<?xml version="1.0" standalone="no"?>
<!DOCTYPE svg PUBLIC "-//W3C//DTD SVG 1.1//EN" "http://www.w3.org/Graphics/SVG/1.1/DTD/svg11.dtd" >
<svg xmlns="http://www.w3.org/2000/svg">
<metadata></metadata>
<defs>
<font id="semillaregular" horiz-adv-x="1050" >
<font-face units-per-em="2048" ascent="1638" descent="-410" />
<missing-glyph horiz-adv-x="368" />
<glyph unicode="&#xfb01;" horiz-adv-x="1107" d="M-205 -414q0 7 4 19q56 73 104.5 181t89 244.5t71.5 259t71.5 290.5t69.5 272h-105q-32 0 -32 27q0 19 17 34t46 15h96q4 13 21 65.5t26 79.5q30 85 75.5 157t107 131t144 92.5t175.5 33.5q101 0 172 -47q39 22 86 22q63 0 96 -38.5t33 -96.5q0 -75 -49.5 -136 t-130.5 -61q-63 0 -96 39t-33 97q0 63 35 116q-49 52 -117 52q-31 0 -57.5 -10t-45.5 -25t-36.5 -41t-28.5 -48.5t-23 -57t-18.5 -57t-16 -59t-14.5 -53.5l-43 -155h80q33 0 33 -27q0 -19 -17 -34t-46 -15h-68q-91 -376 -145 -541q-134 -408 -342 -618q-32 -32 -66 -60 q-2 -2 -17.5 -14.5t-22.5 -17.5t-20 -13.5t-24 -12t-22 -3.5q-17 0 -17 14zM516 659q0 32 30 81.5t77 96.5t112 81t127 34q55 0 96 -29t41 -85q0 -78 -90 -394.5t-100 -384.5q62 15 141 119.5t121 192.5q33 0 33 -31q0 -37 -31.5 -101.5t-81 -130t-120 -113.5t-138.5 -48 q-76 0 -124 41t-48 108q0 61 43 225.5t86 315.5t43 178q-47 -4 -102 -65t-82 -121q-33 0 -33 30z" />
<glyph unicode="&#xfb02;" horiz-adv-x="1083" d="M-205 -414q0 7 4 19q56 73 104.5 181t89 244.5t71.5 259t71.5 290.5t69.5 272h-105q-32 0 -32 27q0 19 17 34t46 15h96q4 13 21 65.5t26 79.5q74 205 234.5 322.5t388.5 117.5q96 0 157.5 -37.5t61.5 -97.5q0 -79 -160 -666t-170 -653q62 15 141.5 119.5t121.5 192.5 q32 0 32 -31q0 -37 -31.5 -101.5t-80.5 -130t-119.5 -113.5t-138.5 -48q-76 0 -124 41t-48 108q0 48 73 328.5t161 601.5t106 401q-49 17 -78 17q-46 0 -86 -25.5t-67 -61t-51.5 -89.5t-37.5 -94t-27 -91l-43 -155h117q33 0 33 -27q0 -19 -17.5 -34t-46.5 -15h-104 q-91 -376 -145 -541q-134 -408 -342 -618q-32 -32 -66 -60q-2 -2 -15 -12.5t-18 -14t-17 -12t-19.5 -12t-18 -7t-18.5 -3.5q-17 0 -17 14z" />
<glyph unicode="&#xfb03;" horiz-adv-x="1634" d="M-205 -414q0 7 4 19q56 73 104.5 181t89 244.5t71.5 259t71.5 290.5t69.5 272h-105q-32 0 -32 27q0 19 17 34t46 15h96q4 13 21 65.5t26 79.5q30 85 75.5 157t107 131t144 92.5t175.5 33.5q70 0 126.5 -35t76.5 -96q138 131 324 131q101 0 172 -47q39 22 86 22 q63 0 96 -38.5t33 -96.5q0 -75 -50 -136t-131 -61q-63 0 -96 39t-33 97q0 63 35 116q-49 52 -117 52q-35 0 -64 -11.5t-50.5 -35.5t-37.5 -47.5t-30 -63t-21.5 -64t-19 -68.5t-16.5 -61l-43 -155h80q32 0 32 -27q0 -19 -17 -34t-46 -15h-68q-91 -376 -145 -541 q-134 -408 -342 -618q-32 -32 -66 -60q-2 -2 -17.5 -14.5t-22.5 -17.5t-20 -13.5t-24 -12t-22 -3.5q-16 0 -16 14q0 7 4 19q55 73 103.5 181t89 244.5t71.5 259t71.5 290.5t69.5 272h-260q-91 -376 -145 -541q-134 -408 -342 -618q-32 -32 -66 -60q-2 -2 -17.5 -14.5 t-22.5 -17.5t-20 -13.5t-24 -12t-22 -3.5q-17 0 -17 14zM489 928h265q4 13 21 65.5t26 79.5q46 126 110 209q-9 156 -155 156q-26 0 -50 -11.5t-42 -28.5t-34.5 -45t-28 -52.5t-23.5 -59.5t-18.5 -57.5t-15 -55.5t-12.5 -45zM1042 659q0 32 30.5 81.5t77.5 96.5t112 81 t127 34q55 0 96 -29t41 -85q0 -78 -90.5 -394.5t-100.5 -384.5q62 15 141 119.5t121 192.5q33 0 33 -31q0 -37 -31.5 -101.5t-80.5 -130t-119.5 -113.5t-138.5 -48q-76 0 -124.5 41t-48.5 108q0 61 43.5 225.5t86.5 315.5t43 178q-47 -4 -102.5 -65t-82.5 -121q-33 0 -33 30 z" />
<glyph unicode="&#xfb04;" horiz-adv-x="1609" d="M-205 -414q0 7 4 19q56 73 104.5 181t89 244.5t71.5 259t71.5 290.5t69.5 272h-105q-32 0 -32 27q0 19 17 34t46 15h96q4 13 21 65.5t26 79.5q30 85 75.5 157t107 131t144 92.5t175.5 33.5q71 0 129 -36t76 -99q175 161 442 161q96 0 157.5 -37.5t61.5 -97.5 q0 -79 -159.5 -666t-169.5 -653q62 15 141 119.5t121 192.5q33 0 33 -31q0 -37 -31.5 -101.5t-81 -130t-120 -113.5t-138.5 -48q-76 0 -124 41t-48 108q0 48 73 328.5t161 601.5t106 401q-49 17 -78 17q-38 0 -72 -16t-60.5 -48t-46.5 -64t-38 -79.5t-28 -78.5t-23 -75 l-43 -155h117q32 0 32 -27q0 -19 -17 -34t-46 -15h-105q-91 -376 -145 -541q-134 -408 -342 -618q-32 -32 -66 -60q-2 -2 -17.5 -14.5t-22.5 -17.5t-20 -13.5t-24 -12t-22 -3.5q-16 0 -16 14q0 7 4 19q55 73 103.5 181t89 244.5t71.5 259t71.5 290.5t69.5 272h-260 q-91 -376 -145 -541q-134 -408 -342 -618q-32 -32 -66 -60q-2 -2 -17.5 -14.5t-22.5 -17.5t-20 -13.5t-24 -12t-22 -3.5q-17 0 -17 14zM489 928h265q4 13 21 65.5t26 79.5q41 116 112 205q-10 160 -157 160q-26 0 -50 -11.5t-42 -28.5t-34.5 -45t-28 -52.5t-23.5 -59.5 t-18.5 -57.5t-15 -55.5t-12.5 -45z" />
<glyph horiz-adv-x="0" />
<glyph horiz-adv-x="682" />
<glyph unicode=" "  horiz-adv-x="368" />
<glyph unicode="&#x09;" horiz-adv-x="368" />
<glyph unicode="&#xa0;" horiz-adv-x="368" />
<glyph unicode="!" horiz-adv-x="411" d="M10 102q0 75 49.5 136t130.5 61q63 0 96 -38.5t33 -96.5q0 -75 -49.5 -136t-130.5 -61q-63 0 -96 38.5t-33 96.5zM217 393q4 75 10 147t19.5 189.5t31 216t46 206.5t62.5 183.5t83 124.5t106 49q62 0 92.5 -31t30.5 -81q0 -126 -143 -443.5t-289 -566.5z" />
<glyph unicode="&#x22;" horiz-adv-x="706" d="M137 1133q0 165 49 243t115 78q44 0 76.5 -32.5t32.5 -80.5q0 -58 -68 -203t-125 -204q-19 -19 -37 -19q-12 0 -22.5 7.5t-14.5 15.5l-4 8q0 24 -1 87t-1 100zM440 1133q0 165 49 243t115 78q44 0 76.5 -32.5t32.5 -80.5q0 -58 -68 -203t-125 -204q-19 -19 -37 -19 q-12 0 -22.5 7.5t-14.5 15.5l-4 8q-2 57 -2 187z" />
<glyph unicode="#" horiz-adv-x="1148" d="M-29 422q0 19 17.5 34t46.5 15h260l96 346h-274q-33 0 -33 27q0 19 17 34t46 15h265l104 375q6 26 29 26q16 0 28.5 -14.5t12.5 -38.5q0 -8 -4 -24q-2 -4 -12.5 -42.5t-33.5 -125t-42 -156.5h329l105 375q6 26 28 26q16 0 28.5 -14.5t12.5 -38.5q0 -8 -4 -24 q-2 -4 -12.5 -42.5t-33.5 -125t-42 -156.5h246q33 0 33 -27q0 -19 -17.5 -34t-46.5 -15h-237l-95 -346h250q33 0 33 -27q0 -19 -17 -34t-46 -15h-240l-96 -346q-6 -26 -29 -26q-16 0 -28.5 14.5t-12.5 38.5q0 8 4 24l80 295h-330l-96 -346q-6 -26 -29 -26q-16 0 -28.5 14.5 t-12.5 38.5q0 4 5 24l79 295h-270q-33 0 -33 27zM377 471h330l96 346h-332z" />
<glyph unicode="$" horiz-adv-x="1091" d="M-10 336q0 81 33 153.5t82.5 119.5t104.5 74.5t101 27.5q41 0 65.5 -23t24.5 -67q0 -21 -20 -54q-114 -6 -180 -86.5t-66 -187.5q0 -113 74.5 -196t214.5 -89l168 602q-42 49 -60 71t-51.5 69.5t-48.5 81.5t-28 82.5t-13 97.5q0 108 58 195.5t153 136.5t209 55l68 243 q2 0 7 1.5t7 1.5q49 0 49 -41l-2 -13l-53 -192q61 -6 108.5 -29t75 -56.5t41.5 -70t14 -74.5q0 -75 -47 -118t-108 -43q-49 0 -84 30.5t-35 87.5q0 54 37 107.5t102 75.5q-35 31 -121 37l-125 -451q14 -20 51.5 -71t56 -77t47.5 -73.5t43.5 -82.5t26 -81t11.5 -90 q0 -89 -28.5 -166.5t-77 -133.5t-113 -97t-136 -63t-147.5 -26l-45 -167q-27 -9 -37 -9q-28 0 -28 33q0 19 8 43l26 100q-84 5 -157.5 32.5t-131 76.5t-91 124.5t-33.5 168.5zM502 14q102 19 171.5 94.5t69.5 194.5q0 108 -96 238zM631 1159q0 -83 61 -184l103 368 q-71 -15 -117.5 -69t-46.5 -115z" />
<glyph unicode="%" horiz-adv-x="1695" d="M90 756q0 102 37 212t100.5 203t160 153t204.5 60q123 0 184.5 -83t61.5 -214q0 -81 -23 -168.5t-67.5 -169t-104.5 -147t-140.5 -104.5t-168.5 -39q-121 0 -182.5 83t-61.5 214zM283 657q0 -133 77 -133q69 0 138.5 111t110 259.5t40.5 266.5q0 162 -80 162 q-51 0 -119.5 -118.5t-117.5 -278t-49 -269.5zM487 -43q0 17 13 47l678 1417q21 0 38 -13t17 -32q0 -4 -4 -16q-4 -9 -148 -308t-302.5 -629.5t-235.5 -494.5q-8 -2 -27 -2q-29 0 -29 31zM895 260q0 81 23 169t67.5 169.5t104 146.5t140 104.5t167.5 39.5q123 0 184 -82.5 t61 -214.5q0 -102 -37 -212t-100.5 -203.5t-160 -153.5t-205.5 -60q-121 0 -182.5 83t-61.5 214zM1087 162q0 -133 78 -133q69 0 138.5 111t110 259.5t40.5 266.5q0 161 -80 161q-51 0 -120 -118t-118 -277.5t-49 -269.5z" />
<glyph unicode="&#x26;" horiz-adv-x="1193" d="M2 293q0 70 21 134.5t53.5 115.5t83.5 102.5t100.5 89.5t114.5 82q-23 98 -23 180q0 145 49.5 264t153 194t244.5 75q103 0 172 -67t69 -173q0 -102 -71 -182q-29 -33 -75 -69t-83.5 -60.5t-102.5 -65.5t-98 -63q58 -255 205 -444q52 119 81.5 250t29.5 229q42 28 94 28 q43 0 71.5 -25t28.5 -75q0 -116 -57.5 -250.5t-155.5 -259.5q132 -125 289 -188q4 -32 4 -45q0 -71 -38.5 -105.5t-102.5 -34.5q-171 0 -336 183q-203 -152 -369 -152q-151 0 -251.5 96t-100.5 236zM268 383q0 -122 56.5 -215.5t148.5 -93.5q53 0 106 28.5t93 73.5 q-168 211 -264 518q-140 -143 -140 -311zM575 1161q0 -103 15 -205q155 106 211 185q61 85 61 174q0 62 -29.5 101.5t-80.5 39.5q-48 0 -83.5 -23t-55.5 -64.5t-29 -92.5t-9 -115z" />
<glyph unicode="'" horiz-adv-x="403" d="M137 1133q0 165 49 243t115 78q44 0 76.5 -32.5t32.5 -80.5q0 -58 -68 -203t-125 -204q-19 -19 -37 -19q-12 0 -22.5 7.5t-14.5 15.5l-4 8q-2 57 -2 187z" />
<glyph unicode="(" horiz-adv-x="466" d="M53 473q0 195 64 396t163 358t217 274t228 164q24 8 31 8q25 0 28 -26q-60 -30 -133 -114.5t-145 -214t-131.5 -280t-97 -329.5t-37.5 -347q0 -355 161 -608q0 -24 -26 -24q-15 0 -25 10q-297 305 -297 733z" />
<glyph unicode=")" horiz-adv-x="641" d="M-174 -242q76 38 169.5 162.5t177.5 296t141 394.5t57 431q0 354 -162 609q0 24 27 24q14 0 24 -10q297 -305 297 -733q0 -195 -64 -396t-163 -358t-217 -274t-228 -164q-24 -8 -30 -8q-26 0 -29 26z" />
<glyph unicode="*" horiz-adv-x="673" d="M141 918q0 21 14.5 40.5t41.5 28.5q58 18 161 33q-15 7 -50.5 20t-57.5 22.5t-41 28t-19 42.5q0 26 21.5 45.5t52.5 19.5q36 0 55 -27l76 -100q-1 15 -3.5 48.5t-4.5 59.5t-2 27q0 39 23.5 61.5t52.5 22.5q25 0 41 -16.5t16 -48.5q0 -23 -63 -158q28 28 86.5 67.5 t85.5 39.5q31 0 48 -17.5t17 -42.5q0 -22 -14.5 -41.5t-40.5 -28.5q-50 -15 -162 -32q15 -7 50.5 -20t57.5 -22.5t41 -28t19 -42.5q0 -26 -21.5 -45.5t-52.5 -19.5q-37 0 -55 26l-76 101q1 -15 3.5 -49t5 -60t2.5 -27q0 -39 -23.5 -61.5t-52.5 -22.5q-25 0 -41.5 17 t-16.5 49q0 21 64 158q-28 -28 -86.5 -67.5t-85.5 -39.5q-31 0 -48.5 17.5t-17.5 42.5z" />
<glyph unicode="+" horiz-adv-x="1013" d="M98 649q0 19 17.5 34t46.5 15h344l104 363q6 26 29 26q16 0 28.5 -14.5t12.5 -38.5q0 -8 -4 -24q-2 -4 -90 -312h356q33 0 33 -26q0 -19 -17.5 -34t-46.5 -15h-346l-102 -363q-6 -27 -29 -27q-16 0 -28.5 15t-12.5 39q0 8 4 24l88 312h-354q-33 0 -33 26z" />
<glyph unicode="," horiz-adv-x="387" d="M-18 -180q79 0 142 70t81 143q-37 -64 -84 -64q-51 0 -78 36t-27 91q0 77 49 140t132 63q63 0 96 -38.5t33 -96.5q0 -51 -21.5 -119t-57.5 -133t-92 -109.5t-118 -44.5q-55 0 -55 49v13z" />
<glyph unicode="-" horiz-adv-x="1062" d="M86 438q54 73 122 101t152 28q56 0 164.5 -8t159.5 -8q126 0 209 33q33 0 35 -21q-55 -78 -123.5 -107.5t-157.5 -29.5q-48 0 -157 12.5t-168 12.5q-116 0 -203 -31q-31 0 -33 18z" />
<glyph unicode="." horiz-adv-x="387" d="M16 102q0 75 50 136t131 61q63 0 96 -38.5t33 -96.5q0 -75 -50 -136t-131 -61q-63 0 -96 38.5t-33 96.5z" />
<glyph unicode="/" horiz-adv-x="595" d="M-137 -152q0 20 12 48l807 1693q21 0 38 -13t17 -32q0 -4 -4 -16q-736 -1540 -815 -1708q-8 -2 -27 -2q-28 0 -28 30z" />
<glyph unicode="0" horiz-adv-x="1071" d="M16 410q0 106 22.5 218.5t64 221.5t105.5 205.5t142 169.5t178.5 116t210.5 43q83 0 148 -36t104.5 -100.5t59.5 -147.5t20 -182q0 -128 -31.5 -265t-95 -265t-148.5 -229.5t-201.5 -163t-244.5 -61.5q-83 0 -148 37t-105 103t-60.5 151t-20.5 185zM276 272 q0 -113 27.5 -178t83.5 -65q76 0 156.5 108.5t139 266t96.5 336t38 315.5q0 243 -112 243q-76 0 -156 -108.5t-139 -266t-96.5 -335.5t-37.5 -316z" />
<glyph unicode="1" horiz-adv-x="612" d="M61 1096q0 14 27 20q346 96 582 232q22 0 22 -29q-24 -49 -97.5 -292.5t-147 -555t-78.5 -467.5q-103 -41 -166 -41q-97 0 -97 105q0 23 14 92t45.5 198t53.5 217.5t68 268t59 231.5l-254 -12q-31 14 -31 33z" />
<glyph unicode="2" horiz-adv-x="792" d="M-213 41q412 288 597 532t185 519q0 108 -41 170.5t-125 62.5q-67 0 -116 -43q53 -3 82.5 -41t29.5 -78q0 -84 -50.5 -134t-115.5 -50q-57 0 -96 40.5t-39 117.5q0 80 57 139.5t140 87t176 27.5q192 0 280.5 -80t88.5 -215q-1 -124 -53.5 -248.5t-142 -230.5 t-189.5 -192.5t-215 -160.5q182 0 376 -114q43 50 83 113t61 108q33 0 33 -31q0 -37 -31.5 -101.5t-81 -130t-120 -113.5t-138.5 -48q-76 0 -218 41t-210 41q-80 0 -152 -41z" />
<glyph unicode="3" horiz-adv-x="942" d="M-4 227q0 86 46.5 145.5t127.5 59.5q71 0 107 -38t36 -95q0 -62 -43.5 -114.5t-109.5 -67.5q0 -49 45.5 -79t87.5 -30q76 0 149.5 82.5t116.5 200.5t43 225q0 96 -39 152q-85 -31 -178 -31q-58 0 -89.5 18t-31.5 45q0 35 48 64t128 29q78 0 154 -17q61 59 95 152.5 t34 185.5q0 93 -36.5 152t-108.5 59q-68 0 -117 -43q53 -3 82.5 -41t29.5 -78q0 -84 -50 -134t-115 -50q-57 0 -96.5 40.5t-39.5 117.5q0 80 57 139.5t140 87t176 27.5q159 0 237.5 -65.5t78.5 -170.5q0 -106 -72.5 -222.5t-190.5 -195.5q86 -44 130 -119t44 -165 t-41 -180.5t-113 -164.5t-181.5 -120.5t-235.5 -46.5q-75 0 -135 25.5t-96 67t-55 91.5t-19 102zM383 717q0 -3 4.5 -6.5t15.5 -6t25 -2.5q42 0 80 15q-37 16 -76 16q-49 0 -49 -16z" />
<glyph unicode="4" horiz-adv-x="1034" d="M-70 328q0 18 15 37l907 972q41 33 98 33t72 -37q-26 -51 -111 -336t-145 -546h221q19 0 29 -15.5t10 -38.5q0 -36 -21 -66t-55 -30h-217q-38 -195 -41 -297q-102 -41 -166 -41q-96 0 -96 105q0 48 45 233h-194q-128 0 -332 -4q-19 15 -19 31zM168 453q56 0 170 -1 t172 -1q69 283 139 550z" />
<glyph unicode="5" horiz-adv-x="907" d="M-49 227q0 86 46.5 145.5t127.5 59.5q71 0 107 -38t36 -95q0 -62 -43.5 -114.5t-109.5 -67.5q0 -49 45.5 -79t87.5 -30q60 0 118.5 56t99.5 140.5t66 185t25 188.5q0 105 -36.5 168t-110.5 63q-41 0 -112 -51.5t-120 -104.5q-13 0 -31.5 8t-19.5 21q33 113 82.5 336 t77.5 330q3 7 19 13.5t26 6.5q182 -84 356 -84q159 0 279 74q32 0 32 -31q-47 -130 -178 -195t-293 -65q-92 0 -186 23l-82 -293q75 59 131 84.5t117 25.5q160 0 240.5 -92t80.5 -237q0 -84 -26 -173.5t-77 -172t-119 -148t-159.5 -104.5t-191.5 -39q-75 0 -135 25.5t-96 67 t-55 91.5t-19 102z" />
<glyph unicode="6" horiz-adv-x="1007" d="M25 426q0 127 28.5 259.5t88.5 258.5t142.5 225t201 159.5t253.5 60.5q59 0 109.5 -13t92.5 -40t66.5 -74.5t24.5 -110.5q0 -81 -51 -126.5t-117 -45.5q-54 0 -91.5 32t-37.5 89q0 67 44 115.5t112 70.5q-45 39 -111 39q-70 0 -133 -38.5t-110.5 -100.5t-88 -149 t-68 -175.5t-48.5 -187.5q51 70 105.5 118t102 70t82.5 30.5t66 8.5q135 0 202.5 -79.5t67.5 -207.5q0 -106 -45 -222t-122 -214.5t-192 -162.5t-241 -64q-110 0 -187 65t-111.5 170t-34.5 240zM285 289q0 -113 28 -179.5t84 -66.5q65 0 136.5 102t117 241t45.5 249 q0 160 -102 160q-62 0 -142.5 -71.5t-144.5 -180.5q-22 -135 -22 -254z" />
<glyph unicode="7" horiz-adv-x="702" d="M39 1014q9 21 23.5 65.5t26.5 78.5t33 76t43.5 70t57.5 47t76 19q79 0 225.5 -17.5t220.5 -17.5q89 0 183 21q57 0 57 -23q0 -2 -4 -14q-141 -127 -237.5 -228.5t-183.5 -223.5t-138 -246t-81 -278.5t-32 -338.5q-107 -43 -166 -43q-96 0 -96 107q0 132 37.5 262.5 t98 239.5t147.5 216.5t174.5 191.5t189.5 165h-24q-55 0 -150 12t-137 12q-87 0 -163.5 -38.5t-158.5 -139.5q-10 0 -16 8t-6 17z" />
<glyph unicode="8" horiz-adv-x="847" d="M-68 254q0 45 11.5 86.5t28.5 74.5t47 66t57.5 57t70 52.5t74 47t78.5 44.5q-71 90 -110 170.5t-39 167.5q0 82 45.5 153.5t117 118.5t156.5 74t166 27q124 0 186 -60.5t62 -156.5q0 -57 -16 -109t-40.5 -91.5t-64.5 -79.5t-78 -68.5t-90 -63.5q37 -49 52.5 -70t45 -67 t42.5 -78t24.5 -77.5t11.5 -90.5q0 -103 -45.5 -190.5t-118 -143.5t-160.5 -87.5t-176 -31.5q-145 0 -241.5 83t-96.5 243zM125 207q0 -100 56 -153.5t136 -53.5q88 0 156 60t68 161q0 53 -14 103.5t-44.5 102.5t-56.5 88.5t-70 92.5q-110 -83 -170.5 -177.5t-60.5 -223.5z M430 1116q0 -77 30.5 -144.5t86.5 -146.5q99 68 153 148.5t54 189.5q0 70 -31.5 116t-99.5 46q-73 0 -133 -58.5t-60 -150.5z" />
<glyph unicode="9" horiz-adv-x="1052" d="M14 188q0 81 51 126.5t117 45.5q54 0 91.5 -31.5t37.5 -88.5q0 -67 -44 -116t-111 -71q45 -39 110 -39q70 0 133 38.5t110 101t88 149.5t68.5 175.5t49.5 187.5q-51 -70 -106 -119t-103 -70.5t-82.5 -30t-65.5 -8.5q-135 0 -202.5 79.5t-67.5 207.5q0 84 28 176.5 t82.5 179t126 155.5t166.5 111t197 42q83 0 148 -37t105 -103t60.5 -151t20.5 -185q0 -127 -28.5 -259t-88.5 -258.5t-143 -225t-201.5 -159t-253.5 -60.5q-80 0 -143.5 22t-106.5 77t-43 138zM350 705q0 -160 103 -160q62 0 142 70.5t144 179.5q23 161 23 256 q0 112 -28.5 178.5t-84.5 66.5q-65 0 -136.5 -101.5t-117 -240.5t-45.5 -249z" />
<glyph unicode=":" horiz-adv-x="442" d="M16 102q0 75 50 136t131 61q63 0 96 -38.5t33 -96.5q0 -75 -50 -136t-131 -61q-63 0 -96 38.5t-33 96.5zM156 616q0 75 49.5 136t130.5 61q63 0 96 -38.5t33 -96.5q0 -75 -49.5 -136t-130.5 -61q-63 0 -96 38.5t-33 96.5z" />
<glyph unicode=";" horiz-adv-x="442" d="M-18 -180q79 0 142 70t81 143q-37 -64 -84 -64q-51 0 -78 36t-27 91q0 77 49 140t132 63q63 0 96 -38.5t33 -96.5q0 -51 -21.5 -119t-57.5 -133t-92 -109.5t-118 -44.5q-55 0 -55 49v13zM156 616q0 75 49.5 136t130.5 61q63 0 96 -38.5t33 -96.5q0 -75 -49.5 -136 t-130.5 -61q-63 0 -96 38.5t-33 96.5z" />
<glyph unicode="&#x3c;" horiz-adv-x="929" d="M131 651q0 25 16.5 49.5t36.5 32.5l719 254q15 -3 15 -22q0 -21 -15.5 -45.5t-32.5 -28.5q-634 -216 -634 -221q253 -140 487 -262q33 -17 33 -66q0 -35 -19 -35q-9 0 -594 311q-12 12 -12 33z" />
<glyph unicode="=" horiz-adv-x="1112" d="M98 500q0 19 17.5 34t46.5 15h780q33 0 33 -27q0 -19 -17.5 -34t-46.5 -15h-780q-33 0 -33 27zM197 801q0 19 17 34t46 15h780q33 0 33 -27q0 -19 -17 -34t-46 -15h-781q-32 0 -32 27z" />
<glyph unicode="&#x3e;" horiz-adv-x="794" d="M6 330q0 21 15 45t32 28q292 99 444 152t171.5 60.5t19.5 9.5q-253 140 -487 262q-33 17 -33 65q0 35 18 35q9 0 594 -311q13 -13 13 -33q0 -24 -16.5 -49t-37.5 -33l-719 -254q-14 3 -14 23z" />
<glyph unicode="?" horiz-adv-x="659" d="M10 102q0 75 49.5 136t130.5 61q63 0 96 -38.5t33 -96.5q0 -75 -49.5 -136t-130.5 -61q-63 0 -96 38.5t-33 96.5zM152 1241q0 80 57 139.5t139.5 87t175.5 27.5q58 0 112.5 -13.5t102 -40.5t76.5 -76.5t29 -113.5q0 -73 -32 -137t-83 -112.5t-112.5 -94t-123 -88.5 t-112.5 -87t-83 -99.5t-32 -116.5q0 -48 29 -74t70 -26q46 0 82 33t36 90q0 49 -28 92q20 4 28 4q40 0 67.5 -30t27.5 -75q0 -95 -61.5 -149.5t-143.5 -54.5q-85 0 -147 59t-62 166q0 58 45 133t109.5 148t129 145.5t109.5 147.5t45 132q0 88 -35 130.5t-110 42.5 q-67 0 -117 -44q53 -3 83 -40.5t30 -77.5q0 -84 -50.5 -134.5t-115.5 -50.5q-57 0 -96 40.5t-39 117.5z" />
<glyph unicode="@" horiz-adv-x="1875" d="M-27 260q0 141 50 284.5t148 271.5t230.5 227.5t310 158t373.5 58.5q153 0 275 -34t201.5 -91t132.5 -137t75.5 -168t22.5 -187q0 -184 -71 -366.5t-184.5 -299t-229.5 -116.5q-106 0 -177.5 96.5t-74.5 265.5q-147 -274 -305 -274q-117 0 -173.5 73.5t-56.5 196.5 q0 88 27.5 188t78 194t114.5 171t145.5 123.5t163.5 46.5q46 0 82.5 -14.5t74.5 -57.5q50 82 158 82q58 0 119 -22q-72 -203 -111 -322t-75.5 -281.5t-36.5 -277.5q0 -57 20 -87t55 -30q60 0 128 65.5t123 166.5t91.5 233.5t36.5 255.5q0 107 -29 197t-91.5 164.5 t-173.5 117t-261 42.5q-124 0 -242 -41t-212 -111.5t-173.5 -165t-132.5 -201t-82.5 -221t-29.5 -223.5q0 -147 31 -264t84.5 -193.5t128.5 -127t157.5 -72t177.5 -21.5q160 0 328.5 57.5t295.5 148t181 187.5q37 0 37 -26q0 -18 -13 -40.5t-22 -31.5q-164 -176 -384 -267 t-451 -91q-137 0 -264 32t-236.5 97.5t-190.5 158t-127.5 222t-46.5 280.5zM809 188q0 -108 43 -108q46 0 109.5 76.5t99.5 191.5q21 203 121 463q-48 45 -90 45q-68 0 -136 -123.5t-107.5 -279t-39.5 -265.5z" />
<glyph unicode="A" horiz-adv-x="1728" d="M-43 246q0 87 30 178t79 162q91 128 232.5 208t268.5 80q113 0 113 -59q0 -22 -25 -67q-128 -11 -246 -69t-197 -137.5t-126 -168.5t-47 -166q0 -79 53.5 -127.5t161.5 -48.5q234 0 500 581q49 107 85 178.5t97 178.5t116 179t134.5 153.5t160.5 130.5t185.5 81.5 t218.5 32.5q37 0 74 -6q-106 -208 -250.5 -751t-144.5 -730q62 15 141 119.5t121 192.5q32 0 32 -31q0 -28 -21.5 -76.5t-61 -102.5t-87 -102.5t-107 -80t-114.5 -31.5q-73 0 -117.5 62.5t-44.5 197.5q0 162 54 389q-227 0 -305 -2q-41 -86 -88 -167t-114.5 -169 t-138 -152.5t-159.5 -106.5t-178 -42q-76 0 -132.5 23t-89 64t-48 91.5t-15.5 110.5zM961 686h286q57 225 135 432t150 314q-69 -10 -145.5 -74.5t-150.5 -169.5t-142.5 -230.5t-132.5 -271.5z" />
<glyph unicode="B" horiz-adv-x="1533" d="M16 190q0 81 51 126.5t117 45.5q54 0 91.5 -31.5t37.5 -88.5q0 -67 -44 -116t-111 -71q45 -39 110 -39q74 0 140.5 66.5t114 168.5t96 241.5t83.5 268t78.5 267.5t79.5 221q37 82 117 142t170 92q-50 16 -107 16q-103 0 -209.5 -40.5t-195 -110t-145 -176t-56.5 -226.5 q0 -103 49 -196.5t142 -122.5q-14 -35 -40 -53.5t-57 -18.5q-54 0 -95 35t-62 90t-31 109t-10 106q0 125 48.5 235t129.5 190t185 138t217.5 86.5t224.5 28.5q100 0 186.5 -25t154 -73t106 -126t38.5 -178q0 -139 -76 -242t-194 -165q137 -107 137 -309q0 -116 -54 -237 t-150.5 -204.5t-203.5 -83.5q-105 0 -181.5 65t-76.5 181q0 71 26 136.5t54 95.5q11 8 21 8q11 0 26 -15q-20 -39 -35.5 -98.5t-15.5 -116.5q0 -79 29 -120t75 -41q54 0 112 92.5t95 224t37 242.5q0 83 -22 131q-58 -17 -115 -17t-90 19t-33 55q0 33 38 53.5t97 20.5 q82 0 160 -37q45 49 70.5 127t25.5 166q0 104 -37 195.5t-110 144.5q-73 -58 -107 -164q-22 -68 -56.5 -187t-61.5 -214t-69 -217.5t-82.5 -216.5t-99 -190t-121 -158.5t-146 -102t-177.5 -39.5q-80 0 -143.5 22t-106.5 77t-43 138zM1069 770q0 -20 80 -20q26 0 47 6 q-29 32 -76 32q-51 0 -51 -18z" />
<glyph unicode="C" horiz-adv-x="1036" d="M43 469q0 118 28 243.5t79.5 246t130.5 227.5t174.5 188t218.5 128.5t256 47.5q131 0 221 -72.5t90 -207.5q0 -139 -72 -263t-192 -204q-143 -96 -252 -96q-37 0 -37 30q0 9 2 13q75 21 142 84t110 142.5t67.5 164.5t24.5 155q0 81 -34.5 130t-106.5 49q-86 0 -182 -112 t-170 -275t-123 -355t-49 -346q0 -150 50.5 -238t155.5 -88q66 0 123.5 27.5t103 79.5t76.5 100.5t66 116.5q33 0 33 -31t-23.5 -85.5t-62.5 -110.5q-75 -106 -181.5 -166t-236.5 -60q-108 0 -192 42t-135 116t-77 170t-26 209z" />
<glyph unicode="D" horiz-adv-x="1527" d="M10 0v6q81 55 162 84q86 40 152 107t107 148t72 171t54 185t44 180.5t51.5 167t68.5 135.5q27 37 64.5 79.5t112 103t149.5 93.5q-73 27 -148 27q-81 0 -168 -26.5t-166.5 -76t-143 -115t-101 -150t-37.5 -173.5q0 -65 19 -128t63.5 -117.5t107.5 -73.5q-29 -72 -96 -72 q-54 0 -95.5 35t-62.5 90t-31 109.5t-10 105.5q0 125 48.5 235t129.5 190t185 138t217.5 86.5t224.5 28.5q154 0 272 -45.5t189 -125.5t106 -182t35 -223q0 -175 -68.5 -356t-200 -337t-300.5 -241q-216 -108 -408 -108q-85 0 -217 26.5t-194 26.5q-84 0 -164 -31 q-10 2 -16 9t-7 14zM494 121q33 -5 85.5 -15.5t93 -17t75.5 -6.5q110 0 213.5 84t175.5 214.5t115.5 290.5t43.5 310q0 148 -45 265t-137 179q-103 -81 -149 -256q-14 -47 -48 -169.5t-56 -197.5t-63.5 -191t-81 -194.5t-98 -161t-124.5 -134.5z" />
<glyph unicode="E" horiz-adv-x="1062" d="M78 279q0 105 46.5 212.5t140 204t218.5 154.5q-104 104 -104 260q0 83 33.5 161.5t97 142.5t166.5 103t231 39q157 0 240.5 -75.5t83.5 -173.5q0 -84 -52.5 -132.5t-119.5 -48.5q-56 0 -94.5 35t-38.5 99q0 59 41 118t112 82q-32 35 -110 35q-77 0 -159.5 -80.5 t-135.5 -196t-53 -214.5q0 -60 20 -101q87 19 176 19q81 0 121.5 -22t40.5 -56q0 -41 -53 -74t-135 -33q-104 0 -183 31q-94 -86 -152.5 -233.5t-58.5 -276.5q0 -96 36 -154.5t106 -58.5q145 0 286.5 157t200.5 378q21 -5 29 -13t8 -28q0 -32 -18 -86.5t-34 -90.5t-30 -63 q-41 -77 -89.5 -139.5t-111 -115.5t-141.5 -82.5t-166 -29.5q-194 0 -294.5 98t-100.5 249zM711 834q43 -19 100 -19q66 0 66 16q0 4 -8.5 8.5t-28.5 7.5t-47 3q-39 0 -82 -16z" />
<glyph unicode="F" horiz-adv-x="1124" d="M16 188q0 81 51 126.5t117 45.5q54 0 91.5 -31.5t37.5 -88.5q0 -67 -44 -116t-111 -71q45 -39 110 -39q60 0 111 27.5t89.5 77.5t70.5 113.5t57.5 142.5t47 157t42.5 163q3 12 4 18h-194q-39 0 -39 32q0 23 20.5 41.5t54.5 18.5h183q67 228 127 311q25 36 81.5 80.5 t133.5 81.5q-31 1 -97 4.5t-120.5 5.5t-104.5 2q-53 0 -95.5 -2.5t-92.5 -10t-88 -20.5t-75.5 -36t-61.5 -54.5t-39 -77.5t-15 -104q0 -79 23 -154t70 -132t108 -72q-29 -72 -96 -72q-54 0 -95.5 35t-62.5 90t-31 109.5t-10 105.5q0 138 41.5 245t112.5 176t173.5 113.5 t216.5 63t249 18.5q71 0 240 -21.5t257 -21.5q192 0 312 82q32 0 32 -30q0 -40 -45.5 -83t-123 -79t-194 -59t-245.5 -23q-82 -57 -115 -174q-14 -46 -40 -146.5t-41 -150.5h198q39 0 39 -33q0 -22 -21 -40.5t-55 -18.5h-190q-36 -119 -73.5 -215.5t-89 -195.5 t-118.5 -174.5t-145 -119.5q-99 -57 -240 -57q-80 0 -143.5 22t-106.5 77t-43 138z" />
<glyph unicode="G" horiz-adv-x="1138" d="M-55 -256q0 81 52.5 131.5t117.5 50.5q68 0 103.5 -36.5t35.5 -92.5q0 -53 -30 -104.5t-81 -79.5q65 -47 144 -47q64 0 121.5 31.5t93.5 87.5q125 203 217 628q-89 -92 -175 -137t-143 -45q-106 0 -179.5 56.5t-107.5 150t-34 215.5q0 107 27 221.5t78 227t130 213 t176.5 177.5t224.5 122t267 45q81 0 145.5 -22.5t102.5 -59.5t58 -81t20 -89q0 -84 -52.5 -132.5t-119.5 -48.5q-56 0 -94.5 35t-38.5 99q0 59 41 118t112 82q-32 35 -110 35q-122 0 -231.5 -73.5t-186 -189t-133.5 -256t-84 -276t-27 -247.5q0 -104 24 -164t72 -60 q52 0 130.5 70.5t136.5 151.5q9 43 23 115.5t22 113t19.5 88.5t21.5 78q18 55 67.5 81.5t116.5 26.5q63 0 137 -24q-20 -67 -71.5 -265t-92 -343t-104 -310.5t-125.5 -249.5q-202 -272 -488 -272q-58 0 -115 15.5t-105.5 45.5t-78.5 80.5t-30 112.5z" />
<glyph unicode="H" horiz-adv-x="1753" d="M-72 217q0 460 746 533q67 231 121 327q91 161 344 260q-162 -39 -359 -39h-100q-53 0 -94 -2.5t-92 -10t-88 -24t-70.5 -42t-50.5 -66.5t-17 -94q0 -74 48.5 -130.5t121.5 -74.5q-29 -72 -96 -72q-87 0 -127.5 61.5t-40.5 155.5q0 124 51.5 223t138.5 160t195 93t227 32 q52 0 164.5 -12t169.5 -12q150 0 252 67q33 0 33 -30q0 -53 -62 -99l11 6q-112 -96 -180 -168.5t-111 -156.5q-53 -102 -123 -338h49q105 0 156 4q53 152 129 289.5t169 249t205 177.5t224 66q122 0 179.5 -52t57.5 -142q0 -139 -119.5 -302.5t-283.5 -240.5 q-134 -61 -299 -86q-82 -311 -82 -532q0 -170 57 -170q46 0 100 48.5t98 117.5t76.5 136t45.5 111q33 0 33 -30q0 -50 -36.5 -131.5t-92.5 -160.5t-132 -136.5t-145 -57.5q-137 0 -204.5 104t-67.5 279q0 183 67 400h-69q-63 0 -131 -3q-34 -114 -54.5 -176t-57.5 -155 t-80 -160.5t-95 -118.5q-78 -78 -189 -125t-223 -47q-79 0 -139 27t-93 72t-49 95t-16 103zM129 158q0 -78 35.5 -124t109.5 -46q139 0 241 238q55 127 133 430q1 5 3 13q3 10 4 15q-89 -13 -162 -35t-143 -63t-117 -97t-75.5 -140.5t-28.5 -190.5zM1430 805q128 30 225 90 q94 57 167 148t107.5 178.5t34.5 156.5q0 49 -20 78t-58 29q-69 0 -136.5 -56.5t-125 -154.5t-106 -215t-88.5 -254z" />
<glyph unicode="I" horiz-adv-x="1030" d="M16 188q0 81 51 126.5t117 45.5q54 0 91.5 -31.5t37.5 -88.5q0 -67 -44 -116t-111 -71q45 -39 110 -39q89 0 159 63t112.5 160t82 224t67.5 244.5t68.5 232.5t84.5 178q24 32 83.5 90.5t129.5 112.5q-151 -29 -320 -29q-67 0 -119 -4t-111 -15.5t-105.5 -36.5t-77.5 -63 q-54 -66 -54 -186q0 -79 23 -154t70 -132t108 -72q-29 -72 -96 -72q-54 0 -95.5 35t-62.5 90t-31 109.5t-10 105.5q0 138 41.5 245t112.5 176t173.5 113.5t216.5 63t249 18.5q310 0 422 39q32 0 32 -30q0 -60 -104 -115q-64 -40 -117 -103t-78.5 -112.5t-36.5 -87.5 q-10 -37 -32 -120.5t-36.5 -136t-39.5 -137t-47.5 -144t-53.5 -135.5t-64.5 -132.5t-73.5 -114t-88 -101t-101 -73.5q-99 -57 -240 -57q-80 0 -143.5 22t-106.5 77t-43 138z" />
<glyph unicode="J" horiz-adv-x="1015" d="M-215 -205q0 168 63.5 318t178 263t281.5 185.5t366 87.5q32 122 49.5 185.5t50.5 148.5t68 133q30 41 104 112t158 128q-70 -14 -157.5 -22.5t-159 -12.5t-147.5 -10t-133 -17t-103 -30.5t-70.5 -54.5t-24.5 -85q0 -87 66.5 -199.5t146.5 -148.5q-29 -71 -96 -71 q-56 0 -99.5 39.5t-66 100.5t-33 121t-10.5 115q0 140 69 243.5t183 154.5t256 51q69 0 197 -10.5t192 -10.5q145 0 275 41q32 0 32 -30q0 -39 -24.5 -62.5t-73.5 -42.5q-147 -90 -238 -313q-26 -66 -60.5 -187.5t-66.5 -246.5t-78.5 -276t-95.5 -286t-119 -264.5 t-147 -222.5t-180.5 -150t-220.5 -57q-143 0 -237.5 102t-94.5 281zM-78 -193q0 -144 61 -235.5t171 -91.5q55 0 107 39.5t92.5 101.5t79.5 152.5t67 177t55.5 191.5t44 180t34.5 159t25 113q-105 -9 -199.5 -40.5t-168 -79t-135 -109t-104 -130t-72.5 -142.5t-44 -146 t-14 -140z" />
<glyph unicode="K" horiz-adv-x="1839" d="M16 188q0 81 51 126.5t117 45.5q54 0 91.5 -31.5t37.5 -88.5q0 -67 -44 -116t-111 -71q45 -39 110 -39q81 0 150 58t115.5 148t91.5 210.5t77 232.5t73.5 229t80.5 185q91 161 344 260q-162 -39 -358 -39h-101q-65 0 -113 -3.5t-108 -17.5t-98.5 -38.5t-65 -70 t-26.5 -109.5q0 -74 48.5 -130.5t121.5 -74.5q-14 -35 -40 -53.5t-57 -18.5q-87 0 -127 61t-40 156q0 124 51.5 223t138.5 160t195 93t227 32q52 0 164.5 -12t169.5 -12q150 0 252 67q32 0 32 -30q0 -54 -61 -99l10 6q-112 -96 -180 -168.5t-111 -156.5q-16 -31 -30.5 -65.5 t-30.5 -82.5l-24.5 -73.5t-28 -90.5t-25.5 -83q80 25 141 90q47 53 104 142.5t103 171t112 171t134.5 154t168 107t214.5 42.5q106 0 179 -58t73 -167q0 -114 -58.5 -213t-156.5 -166q-110 -78 -203 -78q-31 0 -31 25q0 2 1 5t1 5q62 18 116 69t88.5 115.5t54.5 133.5 t20 126q0 66 -28 105t-87 39q-41 0 -78.5 -28t-68 -74t-67.5 -108.5t-72.5 -129.5t-87 -138t-108.5 -133.5t-138.5 -117t-175.5 -86.5q58 -2 100.5 -16.5t73 -37.5t56.5 -67.5t45 -93.5t44 -129q1 -3 13.5 -47t24 -77t30 -74.5t40.5 -65t46 -23.5q67 63 130 175t83 183 q32 0 32 -30q0 -50 -36.5 -131.5t-92 -160.5t-131.5 -136.5t-145 -57.5q-210 0 -281 336q-4 19 -10 62t-11 75t-18.5 74.5t-32 72.5t-51.5 57t-77 40q-58 -192 -118.5 -326t-150.5 -221q-141 -141 -389 -141q-80 0 -143.5 22t-106.5 77t-43 138z" />
<glyph unicode="L" horiz-adv-x="1259" d="M-92 6q152 148 250 174q60 29 110 90t81 134.5t47.5 126.5t25.5 98q16 77 30.5 139.5t36 140.5t44 140.5t54 131t65.5 120.5t79 100.5t94.5 80t111 50t130.5 18.5q131 0 221 -72.5t90 -207.5q0 -139 -72 -263t-192 -204q-143 -96 -252 -96q-37 0 -37 30q0 9 2 13 q75 21 142 84t110 142.5t67.5 164.5t24.5 155q0 81 -34.5 130t-106.5 49q-59 0 -108 -64.5t-81 -167.5t-55 -203t-42 -201t-29 -132q-58 -184 -139.5 -302t-227.5 -212q37 -6 218 -48.5t274 -42.5q128 0 211.5 69t150.5 200q33 0 33 -31q0 -51 -53.5 -146t-130.5 -161 q-159 -137 -371 -137q-108 0 -320 47t-313 47q-54 0 -117 -13q-22 3 -22 29z" />
<glyph unicode="M" horiz-adv-x="2275" d="M-43 246q0 87 30 178t79 162q91 128 232.5 208t268.5 80q113 0 113 -59q0 -22 -25 -67q-128 -11 -246 -69t-197 -137.5t-126 -168.5t-47 -166q0 -79 53.5 -127.5t161.5 -48.5q234 0 500 581q49 107 85 178.5t97 178.5t116 179t134.5 153.5t160.5 130.5t185.5 81.5 t218.5 32.5l-403 -1214q58 87 132 243.5t133 294.5t143 289t165 242q118 131 248 131q72 0 121 -39q-322 -1082 -324 -1387q143 18 295 310q33 0 33 -31q0 -65 -86 -197q-49 -76 -160 -154.5t-201 -78.5q-42 0 -72.5 20t-46.5 54t-23 70.5t-7 78.5q0 293 221 1069 q-70 -91 -140 -221.5t-120.5 -245.5t-119 -258t-128.5 -243q-23 -38 -53.5 -80t-72 -88.5t-84.5 -83t-91.5 -60.5t-91.5 -24q-37 0 -62 14q51 156 218 708t219 697q-67 -38 -128.5 -111.5t-110.5 -163.5t-97.5 -196.5t-97 -214t-100.5 -213t-115 -196.5t-134.5 -160.5 t-165.5 -109.5t-202 -40q-76 0 -132.5 23t-89 64t-48 91.5t-15.5 110.5z" />
<glyph unicode="N" horiz-adv-x="1685" d="M10 188q0 81 51 126.5t117 45.5q54 0 91.5 -31.5t37.5 -88.5q0 -67 -44 -116t-111 -71q45 -39 110 -39q97 0 178 38t140.5 104.5t109.5 153.5t92 189.5t82 208.5t85 214t95 202t119 176.5t150 133.5q-55 -7 -133.5 -11t-146.5 -4.5t-146 -6t-141 -15t-123.5 -33 t-101 -57.5t-65 -90.5t-24.5 -131.5q0 -79 23 -154t70 -132t108 -72q-29 -72 -96 -72q-54 0 -95.5 35t-62.5 90t-31 109.5t-10 105.5q0 187 86.5 326t235.5 210t339 71q107 0 268.5 -25.5t250.5 -30.5q24 0 24 -49q0 -9 -41 -24q-100 -108 -100 -578q0 -172 14 -328t35 -223 q6 114 32 242.5t67 256t99.5 243.5t125.5 205.5t150.5 142.5t168.5 53q86 0 148.5 -50t62.5 -134q0 -81 -51 -127t-117 -46q-54 0 -91.5 32t-37.5 89q0 103 98 183q-10 4 -32 4q-80 0 -163 -77t-154 -212t-127.5 -304t-89 -368.5t-32.5 -390.5q0 -65 2 -96q-8 -2 -35 -9.5 t-41.5 -11t-38 -7t-42.5 -3.5q-62 0 -107 43t-71 120.5t-38 172t-12 209.5q0 222 38.5 460.5t90.5 366.5q-41 -53 -79 -129t-68 -157.5t-63 -175.5t-62.5 -185t-68 -183t-79 -172t-95 -150t-116.5 -120.5t-143.5 -79t-175.5 -28.5q-80 0 -143.5 22t-106.5 77t-43 138z" />
<glyph unicode="O" horiz-adv-x="1249" d="M70 471q0 118 26 242.5t74 244.5t121.5 226.5t163 187t205 127.5t241.5 47q79 0 144 -27t110.5 -75t76.5 -114.5t45.5 -144.5t14.5 -167q0 -118 -26 -243t-74 -245.5t-121 -228t-162 -188.5t-203.5 -128.5t-238.5 -47.5q-99 0 -176 41.5t-124.5 115t-72 169t-24.5 208.5z M385 311q0 -126 30.5 -198t94.5 -72q68 0 140 78.5t130.5 205.5t106 277.5t74 304t26.5 275.5q0 126 -30.5 198t-94.5 72q-68 0 -140 -78.5t-130.5 -205.5t-106 -277.5t-74 -304t-26.5 -275.5z" />
<glyph unicode="P" horiz-adv-x="1447" d="M16 190q0 81 51 126.5t117 45.5q54 0 91.5 -31.5t37.5 -88.5q0 -67 -44 -116t-111 -71q45 -39 110 -39q74 0 140.5 68.5t115 173.5t97 248.5t84 275.5t79.5 273t80 223q67 149 264 211q-42 10 -77 10q-82 0 -167.5 -25t-164 -74t-140 -114.5t-98.5 -154t-37 -185.5 q0 -103 49 -196.5t142 -122.5q-29 -72 -96 -72q-54 0 -95.5 35t-62.5 90t-31 109.5t-10 105.5q0 125 48.5 235t129.5 190t185 138t217.5 86.5t224.5 28.5q217 0 353 -116t136 -296q0 -155 -90.5 -296t-236.5 -224.5t-303 -83.5q-18 0 -24 5t-13 26q100 16 197.5 96.5 t159.5 194.5t62 223q0 104 -38 196.5t-111 145.5q-64 -55 -98 -168q-18 -56 -45 -148t-48.5 -167t-53 -172.5t-60.5 -177t-69.5 -168.5t-81 -157.5t-93.5 -133t-109 -106.5t-125.5 -67.5t-144.5 -25.5q-80 0 -143.5 22t-106.5 77t-43 138z" />
<glyph unicode="Q" horiz-adv-x="1249" d="M70 471q0 118 26 242.5t74 244.5t121.5 226.5t163 187t205 127.5t241.5 47q79 0 144 -27t110.5 -75t76.5 -114.5t45.5 -144.5t14.5 -167q0 -145 -39 -299t-109 -294t-178.5 -255t-236.5 -174q106 -17 217 -57.5t204 -85t190 -86.5t210 -69.5t228 -27.5q69 0 123 6.5 t115 26t105 62t66 106.5q13 -3 28 -20t15 -33q0 -47 -39.5 -100.5t-110 -102.5t-183 -81t-242.5 -32q-128 0 -287 36.5t-302.5 89t-277 104.5t-246 88.5t-173.5 36.5q-168 0 -258 -66q-7 0 -13 7.5t-6 15.5q0 90 225 151q-123 52 -185 186.5t-62 319.5zM385 311 q0 -126 30.5 -198t94.5 -72q68 0 140 78.5t130.5 205.5t106 277.5t74 304t26.5 275.5q0 126 -30.5 198t-94.5 72q-68 0 -140 -78.5t-130.5 -205.5t-106 -277.5t-74 -304t-26.5 -275.5z" />
<glyph unicode="R" horiz-adv-x="1718" d="M18 190q0 81 51 126.5t117 45.5q54 0 91.5 -31.5t37.5 -88.5q0 -67 -44 -116t-111 -71q45 -39 110 -39q74 0 140.5 68.5t115 173.5t97 248.5t84 275.5t79.5 273t80 223q67 150 271 213q-54 8 -86 8q-82 0 -167.5 -25t-164 -74t-140 -114.5t-98.5 -154t-37 -185.5 q0 -103 49 -196.5t142 -122.5q-29 -72 -96 -72q-54 0 -95.5 35t-62.5 90t-31 109.5t-10 105.5q0 125 48.5 235t129.5 190t185 138t217.5 86.5t224.5 28.5q135 0 239.5 -31t167.5 -84.5t95 -120t32 -143.5q0 -156 -120.5 -296t-325.5 -198q91 -22 138.5 -93.5t101.5 -239.5 q1 -4 13 -47t24 -76.5t30 -75t40 -65t46 -23.5q67 63 130 175t83 183q33 0 33 -30q0 -50 -36.5 -131.5t-92.5 -160.5t-132 -136.5t-145 -57.5q-209 0 -280 336q-4 19 -10 63.5t-11.5 76.5t-19.5 75.5t-33.5 74t-54.5 57t-82 38.5l-23 6q-42 -117 -86.5 -213t-104 -188.5 t-125 -155.5t-149 -101t-176.5 -38q-80 0 -143.5 22t-106.5 77t-43 138zM971 700q3 0 9 1t9 1l37 7q89 16 163 62t121.5 109.5t74 138.5t26.5 150q0 91 -40.5 166.5t-119.5 118.5q-69 -49 -110 -178q-18 -57 -74 -258t-96 -318z" />
<glyph unicode="S" horiz-adv-x="1124" d="M-33 381q0 90 37 170.5t92 132.5t116.5 82.5t113.5 30.5q46 0 73 -25.5t27 -75.5q0 -20 -25 -59q-127 -7 -200.5 -97t-73.5 -208q0 -61 21 -116.5t62 -100.5t108.5 -72t152.5 -27q63 0 122 21.5t107 61.5t76.5 103.5t28.5 141.5q0 70 -21.5 134t-56 114t-76 98.5 t-83.5 96.5t-76.5 97.5t-56 113t-21.5 132.5q0 127 71 227.5t185 153t248 52.5q81 0 143.5 -23t98 -61.5t53.5 -82t18 -89.5q0 -84 -52.5 -132.5t-119.5 -48.5q-56 0 -94.5 35t-38.5 99q0 59 41 118t112 82q-42 45 -170 45q-97 0 -163 -66.5t-66 -144.5q0 -60 29 -127 t72 -126t93.5 -129.5t93.5 -135t72 -145t29 -158.5q0 -103 -34 -192.5t-92.5 -152.5t-135.5 -108t-162.5 -66.5t-173.5 -21.5q-99 0 -188.5 28.5t-160.5 82.5t-113 141.5t-42 196.5z" />
<glyph unicode="T" horiz-adv-x="1081" d="M16 188q0 81 51 126.5t117 45.5q54 0 91.5 -31.5t37.5 -88.5q0 -67 -44 -116t-111 -71q45 -39 110 -39q89 0 159 63t112.5 160t82 224t67.5 244.5t68.5 232.5t84.5 178q25 36 81.5 80.5t133.5 81.5q-31 1 -97 4.5t-120.5 5.5t-104.5 2q-53 0 -95.5 -2.5t-92.5 -10 t-88 -20.5t-75.5 -36t-61.5 -54.5t-39 -77.5t-15 -104q0 -79 23 -154t70 -132t108 -72q-29 -72 -96 -72q-54 0 -95.5 35t-62.5 90t-31 109.5t-10 105.5q0 138 41.5 245t112.5 176t173.5 113.5t216.5 63t249 18.5q71 0 240 -21.5t257 -21.5q192 0 312 82q32 0 32 -30 q0 -40 -45.5 -83t-123 -79t-194 -59t-245.5 -23q-82 -57 -115 -174q-14 -47 -38.5 -136t-42 -153.5t-47 -156.5t-56 -161t-65.5 -148.5t-80 -138.5t-94.5 -113t-112.5 -87q-99 -57 -240 -57q-80 0 -143.5 22t-106.5 77t-43 138z" />
<glyph unicode="U" horiz-adv-x="1492" d="M41 829q0 87 18.5 176.5t63.5 181.5t110.5 163t169.5 116t232 45q41 0 77.5 -7t69.5 -21.5t52.5 -42.5t19.5 -66q0 -66 -143.5 -609.5t-143.5 -584.5q0 -69 33 -69q59 0 128 65t123.5 150.5t100.5 185.5q45 237 119 508.5t113 388.5q18 55 68 82t116 27q60 0 137 -25 q-321 -1079 -323 -1387q143 18 295 310q32 0 32 -31q0 -65 -86 -197q-50 -77 -160 -155t-200 -78q-55 0 -90.5 36t-47.5 83t-12 104q0 51 11 152q-103 -175 -226 -268t-229 -93q-82 0 -132 58.5t-50 165.5q0 86 39.5 265t88.5 351t97.5 352t60.5 256q-76 -1 -139.5 -27.5 t-106.5 -71t-73 -104.5t-43.5 -124.5t-13.5 -133.5q0 -183 84 -299q-55 -77 -111 -77q-55 0 -92 72t-37 177z" />
<glyph unicode="V" horiz-adv-x="1275" d="M47 829q0 87 18.5 176.5t63.5 181.5t110.5 163t169.5 116t232 45q73 0 121 -33.5t66 -81t18 -106.5q0 -90 -64 -323t-128 -467t-64 -324q0 -162 106 -162q55 0 127.5 62.5t145 173.5t134.5 247t101 301.5t39 319.5q0 7 -1 22t-1 23q-12 -2 -33 -2q-86 0 -132 51.5 t-46 124.5q0 76 47 132.5t129 56.5q50 0 88.5 -22t60 -55.5t35 -80.5t17.5 -88.5t4 -87.5q0 -168 -49 -352.5t-130 -342t-178.5 -286.5t-202 -203t-192.5 -74q-323 0 -323 394q0 113 22 256t57.5 280.5t67 244t63.5 204.5t34 104q-76 -1 -139.5 -27.5t-106.5 -71.5 t-73 -104.5t-44 -124.5t-14 -133q0 -183 84 -299q-55 -77 -111 -77q-55 0 -92 72t-37 177z" />
<glyph unicode="W" horiz-adv-x="1744" d="M-14 829q0 87 18.5 176.5t63.5 181.5t110.5 163t169.5 116t232 45q55 0 96.5 -19t64 -51t33 -70t10.5 -81q0 -90 -64 -323t-128 -467t-64 -324q0 -32 17.5 -60t46.5 -28q26 0 57.5 27t72.5 87.5t92.5 177.5t105.5 279q32 193 105 490t75 309q41 8 82 8q86 0 132 -40 t46 -109q0 -33 -41 -187t-91 -328.5t-91 -368t-41 -296.5q0 -123 57 -123q55 0 127.5 62.5t145 173.5t134.5 247t101 301.5t39 319.5q0 7 -1 22t-1 23q-12 -2 -33 -2q-86 0 -132 51.5t-46 124.5q0 76 47 132.5t129 56.5q50 0 88.5 -22t60 -55.5t35 -80.5t17.5 -88.5t4 -87.5 q0 -168 -49 -352.5t-130 -342t-178.5 -286.5t-202 -203t-192.5 -74q-229 0 -229 381q0 33 4 103q-46 -129 -100 -224.5t-106.5 -148t-100 -77.5t-92.5 -25q-95 0 -156.5 110t-61.5 275q0 113 22 256t57.5 280.5t67 244t63.5 204.5t34 104q-76 -1 -139.5 -27.5t-106.5 -71.5 t-73 -104.5t-44 -124.5t-14 -133q0 -183 84 -299q-55 -77 -110 -77t-92 72t-37 177z" />
<glyph unicode="X" horiz-adv-x="1560" d="M16 188q0 81 51 126.5t117 45.5q54 0 91.5 -31.5t37.5 -88.5q0 -67 -44 -116t-111 -71q64 -53 145 -53q56 0 113.5 29t108 75.5t107 120.5t103 146.5t103.5 171.5q-113 397 -113 542q0 130 119 234q-59 -10 -142 -10q-21 0 -61 1t-59 1q-97 0 -156 -61t-59 -144 q0 -69 45 -126t133 -81q-36 -74 -90 -74q-64 0 -119 87.5t-55 199.5q0 83 26 145t69.5 98t103.5 61t123.5 35.5t134 19t132 13.5t119.5 17.5t94 32.5q9 0 27 -17.5t18 -35.5q0 -13 -20 -33q-41 -50 -65 -83.5t-45 -84t-21 -98.5q0 -16 1.5 -33.5t3 -31.5t6 -36t7 -33.5 t9.5 -38.5t9.5 -36t11.5 -41.5t11 -40.5q50 85 92 152.5t95 142t100.5 130.5t104.5 108.5t111.5 86.5t117.5 54t127 20q106 0 179 -58t73 -167q0 -114 -58.5 -213t-156.5 -166q-110 -78 -203 -78q-31 0 -31 25q0 2 1 5t1 5h2q66 0 131 69t103.5 165.5t38.5 179.5 q0 65 -29 104t-88 39q-60 0 -118.5 -20.5t-108.5 -53t-102.5 -87t-94.5 -108t-91 -130.5t-86 -141t-85 -152q50 -181 113.5 -359.5t111.5 -282.5q47 -102 61 -102h1q34 3 75 39t77.5 89t64 99t45.5 85q32 0 32 -31q0 -28 -21.5 -76.5t-61 -102.5t-87 -102.5t-107 -80 t-114.5 -31.5q-230 0 -387 502q-67 -114 -125.5 -196t-128.5 -154.5t-145.5 -110t-155.5 -37.5t-143.5 22t-106.5 77t-43 138z" />
<glyph unicode="Y" horiz-adv-x="1292" d="M47 829q0 87 18.5 176.5t63.5 181.5t110.5 163t169.5 116t232 45q41 0 77.5 -7t69.5 -21.5t52.5 -42.5t19.5 -66q0 -66 -131 -531.5t-131 -506.5q0 -70 33 -70q52 0 112.5 51t113.5 129.5t96 160t71 155.5q19 82 47.5 207.5t44.5 195t33.5 140.5t28.5 104q18 55 68 82 t116 27q60 0 137 -25q-18 -61 -95.5 -352.5t-146 -538.5t-157 -501.5t-150.5 -338.5q-202 -272 -487 -272q-46 0 -92 9.5t-89 30t-76 49.5t-53 72t-20 93q0 81 52.5 131.5t117.5 50.5q68 0 103.5 -36.5t35.5 -92.5q0 -53 -29.5 -104.5t-80.5 -79.5q65 -47 143 -47 q64 0 121.5 31.5t93.5 87.5q113 179 271 813q-102 -181 -227.5 -277t-233.5 -96q-82 0 -132.5 58t-50.5 165q0 109 56.5 321t124 434.5t82.5 313.5q-76 -1 -139.5 -27.5t-106.5 -71.5t-73 -104.5t-44 -124.5t-14 -133q0 -183 84 -299q-55 -77 -111 -77q-55 0 -92 72t-37 177 z" />
<glyph unicode="Z" horiz-adv-x="1097" d="M-82 -18q0 36 24 73t71 70t128.5 53.5t184.5 20.5q31 0 45 -2q44 55 98 126.5t126 168t116 155.5h-224q-38 0 -38 33q0 22 20.5 40.5t54.5 18.5h256q263 333 490 537q-244 -154 -465 -154q-208 0 -324 123q-20 -36 -20 -71q0 -56 42.5 -109.5t102.5 -91.5 q-22 -50 -53.5 -78.5t-65.5 -28.5q-47 0 -79.5 62.5t-32.5 152.5q0 103 49 199t139.5 158.5t198.5 62.5q61 0 200 -37t234 -37q105 0 211 33q23 7 69 28t64 28q19 0 19 -27q0 -17 -7.5 -37.5t-15.5 -28.5q-333 -282 -666 -684h222q38 0 38 -32q0 -23 -20.5 -41.5 t-54.5 -18.5h-258q-70 -87 -188.5 -240.5t-168.5 -216.5q103 -12 196.5 -46t163.5 -79t135.5 -96.5t125 -101t118.5 -89.5t129.5 -64.5t145.5 -24.5q90 0 163 54t116 159q15 0 27 -7.5t12 -17.5q0 -103 -119 -246q-86 -100 -212 -154.5t-249 -54.5q-83 0 -157 30t-131 79.5 t-110 110t-105 125t-104.5 121.5t-119.5 102.5t-139 64.5q-166 -174 -289 -174q-55 0 -87 29t-32 72zM6 -18q0 -19 14 -32t35 -13q75 0 203 131q-28 4 -47 4q-105 0 -155 -27.5t-50 -62.5z" />
<glyph unicode="[" horiz-adv-x="516" d="M-10 -94l438 1587q16 41 109 102.5t147 61.5q31 0 31 -33q-115 -86 -131 -127l-449 -1649q0 -20 15.5 -55t31.5 -59l15 -25q0 -22 -25 -22q-46 0 -114 85t-68 134z" />
<glyph unicode="\" horiz-adv-x="559" d="M188 1663q16 8 29 8q16 0 23.5 -2t13.5 -10t8 -25q5 -42 34.5 -421.5t65.5 -840t50 -626.5q-20 -14 -41 -14q-35 0 -35 59z" />
<glyph unicode="]" horiz-adv-x="479" d="M-80 -281q115 86 131 127l449 1649q0 20 -15.5 54.5t-30.5 59.5l-16 25q0 23 25 23q46 0 114 -85t68 -134l-438 -1588q-16 -41 -109 -102t-147 -61q-31 0 -31 32z" />
<glyph unicode="_" horiz-adv-x="1077" d="M-66 -61q0 19 17.5 34t46.5 15h944q33 0 33 -27q0 -19 -17.5 -34t-46.5 -15h-944q-33 0 -33 27z" />
<glyph unicode="`" d="M584 1294q65 138 149 138q56 0 111.5 -58t87 -130.5t31.5 -123.5q0 -39 -23 -49q-6 6 -41 43t-59.5 58t-66 51.5t-89 48t-100.5 22.5z" />
<glyph unicode="a" d="M23 219q0 88 27.5 188t77.5 194t114.5 171t145.5 123.5t163 46.5q46 0 83 -14.5t75 -57.5q50 82 157 82q58 0 119 -22q-65 -179 -137 -457t-92 -414q62 15 141 119.5t121 192.5q33 0 33 -31q0 -37 -31.5 -101.5t-81 -130t-120 -113.5t-138.5 -48q-135 0 -135 225v29 q-141 -252 -293 -252q-117 0 -173 73.5t-56 196.5zM311 188q0 -108 43 -108q44 0 105.5 72t97.5 182q35 232 127 477q-48 45 -90 45q-68 0 -136 -123.5t-107.5 -279t-39.5 -265.5z" />
<glyph unicode="b" horiz-adv-x="903" d="M20 219q0 133 54.5 362.5t127.5 476t87 308.5q-60 0 -126.5 -64.5t-94.5 -125.5q-33 0 -33 30q0 32 30 81.5t77 96.5t112 81t127 34q67 0 112.5 -32t45.5 -89q0 -135 -107 -512q119 88 277 88q106 0 160.5 -71t54.5 -189q0 -132 -41.5 -252.5t-110 -208.5t-153.5 -154 t-174 -99t-169 -33q-113 0 -184.5 69t-71.5 203zM266 131q0 -111 56 -111q72 0 151 143.5t127.5 322.5t48.5 296q0 33 -17.5 50.5t-47.5 17.5q-46 0 -99 -38t-94 -91q-125 -426 -125 -590z" />
<glyph unicode="c" horiz-adv-x="839" d="M23 272q0 89 27.5 185.5t81 186t124 161.5t163.5 115t193 43q86 0 148.5 -50.5t62.5 -134.5q0 -81 -51 -126.5t-117 -45.5q-54 0 -91.5 32t-37.5 89q0 102 99 182q-10 4 -33 4q-63 0 -129 -105.5t-107 -254t-41 -272.5q0 -96 28.5 -152.5t88.5 -56.5q42 0 87.5 33.5 t85.5 88.5t67 99.5t51 91.5q33 0 33 -31q0 -55 -59.5 -156.5t-141.5 -164.5q-110 -84 -231 -84q-152 0 -226.5 89.5t-74.5 233.5z" />
<glyph unicode="d" horiz-adv-x="1046" d="M23 219q0 88 27.5 188t77.5 194t114.5 171t145.5 123.5t163 46.5q86 0 139 -51q83 323 150 516q40 109 168 109q60 0 127 -23q-82 -225 -226.5 -752.5t-152.5 -681.5q62 15 141 119.5t121 192.5q33 0 33 -31q0 -37 -31.5 -101.5t-81 -130t-120 -113.5t-138.5 -48 q-123 0 -123 258v18q-147 -274 -305 -274q-117 0 -173 73.5t-56 196.5zM311 188q0 -108 43 -108q46 0 114.5 84.5t104.5 202.5q25 162 99 454q-41 35 -78 35q-68 0 -136 -123.5t-107.5 -279t-39.5 -265.5z" />
<glyph unicode="e" horiz-adv-x="825" d="M20 283q0 116 37.5 225t99.5 190.5t137.5 144t154.5 94.5t149 32q99 0 150 -55t51 -142q0 -54 -19 -112.5t-57 -113t-89 -98t-121 -70t-146 -26.5q-24 0 -70 4q-10 -68 -10 -114q0 -187 125 -187q42 0 90 36.5t91 94t73 106t53 93.5q33 0 33 -31q0 -55 -59.5 -156.5 t-141.5 -164.5q-109 -86 -236 -86q-125 0 -210 87.5t-85 248.5zM305 403h19q72 0 129.5 46t90 115.5t49.5 141.5t17 134q0 45 -49 45q-39 0 -90 -73t-96.5 -184.5t-69.5 -224.5z" />
<glyph unicode="f" horiz-adv-x="526" d="M-205 -414q0 7 4 19q56 73 104.5 181t89 244.5t71.5 259t71.5 290.5t69.5 272h-105q-32 0 -32 27q0 19 17 34t46 15h96q4 13 21 65.5t26 79.5q30 85 75.5 157t107 131t144 92.5t175.5 33.5q86 0 148.5 -50t62.5 -134q0 -81 -51 -127t-117 -46q-54 0 -91.5 32t-37.5 89 q0 103 98 183q-10 4 -32 4q-26 0 -50 -11.5t-42 -28.5t-34.5 -45t-28 -52.5t-23.5 -59.5t-18.5 -57.5t-15 -55.5t-12.5 -45l-43 -155h199q33 0 33 -27q0 -19 -17.5 -34t-46.5 -15h-186q-91 -376 -145 -541q-134 -408 -342 -618q-32 -32 -66 -60q-2 -2 -17.5 -14.5 t-22.5 -17.5t-20 -13.5t-24 -12t-22 -3.5q-17 0 -17 14z" />
<glyph unicode="g" horiz-adv-x="929" d="M-29 -309q0 81 51 126.5t117 45.5q54 0 91.5 -32t37.5 -89q0 -102 -98 -182q21 -9 41 -9q189 0 287 474q9 48 26 141q-131 -217 -272 -217q-117 0 -173 73.5t-56 196.5q0 88 27.5 188t77.5 194t114.5 171t145.5 123.5t163 46.5q46 0 83 -14t75 -56q46 80 159 80 q59 0 123 -22q-50 -143 -110 -378t-115.5 -431t-114.5 -311q-71 -139 -189.5 -226.5t-268.5 -87.5q-86 0 -154 55.5t-68 139.5zM311 188q0 -108 43 -108q48 0 114 83.5t101 205.5q60 262 115 442q-48 45 -90 45q-68 0 -136 -123.5t-107.5 -279t-39.5 -265.5z" />
<glyph unicode="h" horiz-adv-x="1091" d="M20 68q0 48 66 318.5t148 588t98 391.5q-60 0 -126.5 -64.5t-94.5 -125.5q-33 0 -33 30q0 32 30 81.5t77 96.5t112 81t127 34q67 0 112.5 -32t45.5 -89q0 -61 -21 -162.5t-41 -172t-68 -228t-63 -207.5q99 174 215 267.5t217 93.5q82 0 124 -35t42 -96q0 -78 -90 -394.5 t-100 -384.5q62 15 141 119.5t121 192.5q33 0 33 -31q0 -37 -31.5 -101.5t-81 -130t-120 -113.5t-138.5 -48q-76 0 -124 41t-48 108q0 71 82 362t82 330q0 33 -25 33q-58 0 -118 -63.5t-107.5 -160.5t-87 -209.5t-63 -214t-29.5 -169.5q-102 -41 -166 -41q-97 0 -97 105z " />
<glyph unicode="i" horiz-adv-x="581" d="M-10 659q0 32 30 81.5t77 96.5t112 81t127 34q55 0 96 -29t41 -85q0 -78 -90 -394.5t-100 -384.5q62 15 141 119.5t121 192.5q33 0 33 -31q0 -37 -31.5 -101.5t-81 -130t-120 -113.5t-138.5 -48q-76 0 -124 41t-48 108q0 61 43 225.5t86 315.5t43 178q-47 -4 -102 -65 t-82 -121q-33 0 -33 30zM328 1266q0 75 49.5 135.5t130.5 60.5q63 0 96 -38.5t33 -96.5q0 -75 -49.5 -136t-130.5 -61q-63 0 -96 39t-33 97z" />
<glyph unicode="j" horiz-adv-x="475" d="M-508 -309q0 81 51 126.5t117 45.5q54 0 91.5 -32t37.5 -89q0 -102 -98 -182q21 -9 41 -9q138 0 223 238q61 168 117.5 408t91.5 428.5t35 189.5q-47 -4 -102.5 -65t-82.5 -121q-32 0 -32 30q0 32 30 81.5t77 96.5t112 81t127 34q55 0 96 -29t41 -85q0 -94 -109 -486 t-184 -542q-71 -139 -190 -226.5t-269 -87.5q-86 0 -153.5 55.5t-67.5 139.5zM322 1266q0 75 49.5 135.5t130.5 60.5q63 0 96 -38.5t33 -96.5q0 -75 -49.5 -136t-130.5 -61q-63 0 -96 39t-33 97z" />
<glyph unicode="k" d="M20 68q0 48 66 318.5t148 588t98 391.5q-60 0 -126.5 -64.5t-94.5 -125.5q-33 0 -33 30q0 32 30 81.5t77 96.5t112 81t127 34q67 0 112.5 -32t45.5 -89q0 -49 -10.5 -112.5t-33 -149t-41 -148.5t-53.5 -175.5t-51 -165.5q48 81 108.5 144t119.5 99.5t113.5 55t99.5 18.5 q71 0 111 -42t40 -107q0 -106 -100 -205.5t-283 -132.5q50 -26 87.5 -85.5t54.5 -114.5t36.5 -97.5t38.5 -42.5q25 0 69.5 54.5t76 106t53.5 93.5q33 0 33 -31q0 -64 -58 -157.5t-143 -164.5t-152 -71q-50 0 -86.5 31t-60.5 82.5t-45.5 107.5t-55.5 118.5t-77 102.5 q-79 -226 -90 -385q-102 -41 -166 -41q-97 0 -97 105zM406 471q70 0 146 37t130.5 104t54.5 142q0 53 -41 53q-152 0 -290 -336z" />
<glyph unicode="l" horiz-adv-x="544" d="M0 96q0 48 70 313.5t155 570.5t103 386q-60 0 -127 -64.5t-95 -125.5q-32 0 -32 30q0 32 30 81.5t77 96.5t112 81t127 34q67 0 112.5 -32t45.5 -89q0 -79 -160 -666t-170 -653q62 15 141 119.5t121 192.5q33 0 33 -31q0 -37 -31.5 -101.5t-81 -130t-120 -113.5 t-138.5 -48q-76 0 -124 41t-48 108z" />
<glyph unicode="m" horiz-adv-x="1509" d="M-10 659q0 32 30 81.5t77 96.5t112 81t127 34q53 0 87 -28.5t34 -85.5q0 -75 -64 -318q210 432 410 432q121 0 121 -127q0 -29 -11 -90q153 234 326 234q82 0 124 -35t42 -96q0 -78 -90.5 -394.5t-100.5 -384.5q62 15 141.5 119.5t121.5 192.5q32 0 32 -31 q0 -37 -31.5 -101.5t-80.5 -130t-119.5 -113.5t-138.5 -48q-76 0 -124 41t-48 108q0 71 81.5 362t81.5 330q0 33 -24 33q-44 0 -88.5 -47.5t-81 -126.5t-69 -169t-58 -186.5t-41.5 -167t-25 -122.5q-11 -3 -45.5 -16t-60.5 -20t-47 -7q-74 0 -74 100q0 79 79 404.5t79 351.5 q-87 -63 -179.5 -236.5t-147.5 -330.5t-71 -246l-36 -12t-43.5 -14t-40.5 -10t-43 -5q-86 0 -86 100q0 61 45 234.5t90 333t45 186.5q-47 -4 -102 -65t-82 -121q-33 0 -33 30z" />
<glyph unicode="n" horiz-adv-x="1099" d="M-10 659q0 32 30 81.5t77 96.5t112 81t127 34q53 0 87 -28.5t34 -85.5t-29 -176q95 149 201.5 228t199.5 79q82 0 124 -35t42 -96q0 -78 -90 -394.5t-100 -384.5q62 15 141 119.5t121 192.5q33 0 33 -31q0 -37 -31.5 -101.5t-81 -130t-120 -113.5t-138.5 -48 q-76 0 -124 41t-48 108q0 71 82 362t82 330q0 33 -25 33q-64 0 -127.5 -69t-110 -167.5t-86.5 -219t-62.5 -210t-33.5 -153.5l-36 -12t-43.5 -14t-40.5 -10t-43 -5q-86 0 -86 100q0 61 45 234.5t90 333t45 186.5q-47 -4 -102 -65t-82 -121q-33 0 -33 30z" />
<glyph unicode="o" horiz-adv-x="911" d="M37 301q0 91 25 187t74 184.5t114 158.5t152.5 112t183.5 42q78 0 137.5 -28t95.5 -77.5t54 -112.5t18 -138q0 -91 -25 -187t-74 -184.5t-114 -158.5t-152.5 -112t-183.5 -42q-78 0 -137.5 28t-95.5 77.5t-54 112.5t-18 138zM285 160q0 -133 67 -133q56 0 128.5 135.5 t122.5 314.5t50 301q0 133 -67 133q-56 0 -128.5 -135.5t-122.5 -314.5t-50 -301z" />
<glyph unicode="p" horiz-adv-x="958" d="M-82 -481q0 48 65.5 318t147.5 588.5t98 391.5q-60 0 -126.5 -64.5t-94.5 -125.5q-33 0 -33 30q0 32 30.5 81.5t77.5 96.5t112 81t127 34q67 0 112 -32t45 -89q0 -36 -10 -94q84 121 171 173.5t165 52.5q84 0 125 -61t41 -165q0 -87 -27.5 -190.5t-79 -203.5t-117.5 -183 t-152 -134t-173 -51q-97 0 -129 103q-113 -406 -113 -621q-108 -43 -166 -43q-96 0 -96 107zM319 170q28 -117 82 -117q52 0 108 78.5t97 187.5t67.5 223.5t26.5 188.5q0 80 -30 80q-134 0 -256 -315z" />
<glyph unicode="q" horiz-adv-x="913" d="M23 219q0 88 27.5 188t77.5 194t114.5 171t145.5 123.5t163 46.5q45 0 82.5 -14t73.5 -56q44 80 157 80q63 0 127 -22q-82 -232 -148 -471t-147 -590q-59 -253 -59 -414q-108 -43 -166 -43q-96 0 -96 107q0 81 139 631q-123 -201 -262 -201q-117 0 -173 73.5t-56 196.5z M311 188q0 -108 43 -108q48 0 114 83.5t101 205.5v-4q64 252 117 444q-47 47 -92 47q-68 0 -136 -123.5t-107.5 -279t-39.5 -265.5z" />
<glyph unicode="r" horiz-adv-x="894" d="M-20 659q0 32 30 81.5t77 96.5t112 81t127 34q55 0 96 -29t41 -85q0 -16 -4 -52q109 181 243 181q77 0 135 -51.5t58 -137.5q0 -81 -51 -126.5t-117 -45.5q-54 0 -91.5 32t-37.5 89q0 102 98 182q-56 -5 -109 -58t-94.5 -137t-77 -179.5t-62.5 -200.5t-44 -184t-28 -146 q-31 -15 -78.5 -28t-81.5 -13q-94 0 -94 103q0 79 85 401t85 348q-47 -4 -102.5 -65t-82.5 -121q-32 0 -32 30z" />
<glyph unicode="s" horiz-adv-x="749" d="M-82 217q0 98 49.5 167t136.5 69q57 0 93 -47q-65 -32 -99.5 -87.5t-34.5 -115.5q0 -90 54 -139.5t129 -49.5q74 0 130 49t56 132q0 37 -31.5 81.5t-77 87.5t-90.5 89t-76.5 100.5t-31.5 105.5q0 86 66 159t160.5 112t187.5 39q98 0 159.5 -47.5t61.5 -143.5 q0 -81 -51 -126.5t-117 -45.5q-54 0 -91.5 32t-37.5 89q0 102 98 182q-10 4 -33 4q-84 0 -132 -38.5t-48 -98.5q0 -45 23.5 -89.5t58 -79.5t75.5 -76t75.5 -78.5t58 -89t23.5 -105.5q0 -94 -65.5 -169.5t-162.5 -113.5t-201 -38q-135 0 -225 70.5t-90 209.5z" />
<glyph unicode="t" horiz-adv-x="567" d="M12 96q0 30 27 136.5t83 308.5t85 311h-174q-9 0 -15 9.5t-6 21.5q0 25 19 41q106 15 177 35.5t124 62.5q27 21 49 44.5t42.5 53.5t27.5 41t26 43q3 5 8.5 16t9 17t9.5 14t13 11.5t15 3.5q20 0 35 -15q-31 -146 -78 -323h132q32 0 32 -27q0 -19 -17 -34t-46 -15h-121 q-26 -97 -85 -310.5t-88.5 -326.5t-35.5 -156q62 15 141 119.5t121 192.5q33 0 33 -31q0 -37 -31.5 -101.5t-81 -130t-120 -113.5t-138.5 -48q-76 0 -124 41t-48 108z" />
<glyph unicode="u" horiz-adv-x="1067" d="M-10 659q0 32 30 81.5t77 96.5t112 81t127 34q55 0 96 -29t41 -85q0 -71 -80 -357t-80 -325q0 -33 25 -33q44 0 152 188t165 365q47 138 56 164q43 112 172 112q57 0 118 -22q-65 -179 -137 -457t-92 -414q62 15 141 119.5t121 192.5q33 0 33 -31q0 -37 -31.5 -101.5 t-81 -130t-120 -113.5t-138.5 -48q-135 0 -135 225q0 86 19 197q-197 -404 -379 -404q-82 0 -124 35t-42 96t43 225.5t86 315.5t43 178q-47 -4 -102 -65t-82 -121q-33 0 -33 30z" />
<glyph unicode="v" horiz-adv-x="868" d="M-10 659q0 32 30 81.5t77 96.5t112 81t127 34q55 0 96 -29t41 -85q0 -78 -85 -386t-85 -339q0 -74 62 -74q81 0 181 107t173.5 272.5t81.5 318.5q-24 -36 -65 -55.5t-85 -19.5q-64 0 -96.5 32.5t-32.5 83.5q0 74 58 139.5t141 65.5q70 0 119 -47.5t49 -134.5 q0 -116 -31 -238t-89.5 -231.5t-134 -196.5t-171.5 -138.5t-195 -51.5q-94 0 -155.5 50t-61.5 157q0 53 76.5 337.5t79.5 325.5q-47 -4 -102 -65t-82 -121q-33 0 -33 30z" />
<glyph unicode="w" horiz-adv-x="1341" d="M-10 659q0 32 30 81.5t77 96.5t112 81t127 34q55 0 96 -29t41 -85q0 -78 -85 -386t-85 -339q0 -64 35 -64q46 0 119.5 100t109.5 220v-2q17 69 56 214.5t60.5 233t23.5 115.5q47 6 84 6q75 0 115 -25.5t40 -72.5q0 -78 -85 -386t-85 -339q0 -74 62 -74q81 0 181 107 t173.5 272.5t81.5 318.5q-24 -36 -65 -55.5t-85 -19.5q-64 0 -96.5 32.5t-32.5 83.5q0 74 58 139.5t141 65.5q70 0 119 -47.5t49 -134.5q0 -116 -31 -238t-89.5 -231.5t-134 -196.5t-171.5 -138.5t-195 -51.5q-92 0 -153 48t-64 148q-55 -101 -112.5 -148.5t-143.5 -47.5 q-94 0 -155.5 50t-61.5 157q0 53 76.5 337.5t79.5 325.5q-47 -4 -102 -65t-82 -121q-33 0 -33 30z" />
<glyph unicode="x" horiz-adv-x="690" d="M-451 -174q92 16 179.5 62.5t166.5 119t144.5 148t136.5 174.5q-9 48 -19.5 113t-18 114t-17.5 104t-21 93.5t-25 72t-33.5 50t-43.5 16.5q-4 12 -4 14q0 37 86 37q55 0 108.5 -15.5t77.5 -41.5q67 -77 111 -260q59 92 99.5 149t89 114t91 84t82.5 27q74 0 138 -100 q-30 -6 -62.5 -23t-60.5 -37t-66 -58t-64 -65.5t-70 -81.5t-68 -84.5t-74 -94.5q36 -194 57 -252q33 -88 84 -88q25 0 69.5 54.5t76 106t53.5 93.5q32 0 32 -31q0 -47 -35.5 -115.5t-87 -129.5t-115.5 -104.5t-114 -43.5q-85 0 -138 67.5t-89 190.5q-181 -211 -338 -318 q-67 -45 -142.5 -71.5t-125.5 -26.5q-17 0 -25 1t-16.5 10t-8.5 26z" />
<glyph unicode="y" horiz-adv-x="929" d="M-20 -309q0 81 50.5 126.5t116.5 45.5q54 0 91.5 -32t37.5 -89q0 -102 -98 -182q21 -9 41 -9q47 0 88.5 28t71.5 79.5t54 107t42.5 129t30 126.5t23 118t16.5 86l18 82q-181 -342 -348 -342q-82 0 -124 35t-42 96t43 225.5t86 315.5t43 178q-47 -4 -102 -65t-82 -121 q-33 0 -33 30q0 32 30 81.5t77 96.5t112 81t127 34q55 0 96 -29t41 -85q0 -71 -79.5 -357t-79.5 -325q0 -33 24 -33q36 0 118 133.5t151 294.5q58 220 81 289q37 112 175 112q58 0 122 -22q-50 -143 -110 -378t-115.5 -431t-114.5 -311q-71 -139 -189.5 -226.5t-268.5 -87.5 q-86 0 -153.5 55.5t-67.5 139.5z" />
<glyph unicode="z" horiz-adv-x="802" d="M-137 27q80 78 184 120q162 133 327 314.5t261 314.5q-131 -123 -260 -123q-49 0 -98 19t-77.5 41t-56 46t-32.5 27q-11 -22 -11 -53q0 -44 21 -83.5t45 -45.5q-35 -35 -70 -35q-33 0 -54.5 30.5t-21.5 80.5q0 69 30 134t89 109t133 44q58 0 172 -44t172 -44q99 0 175 88 q56 -13 67 -19q-112 -171 -308 -393.5t-362 -370.5q46 6 95 6q94 0 177.5 -20.5t127.5 -48.5q50 41 100 118t76 132q33 0 33 -31q0 -37 -31.5 -101.5t-81 -130t-120 -113.5t-138.5 -48q-25 0 -164 33.5t-217 33.5q-99 0 -149 -47z" />
<glyph unicode="{" horiz-adv-x="403" d="M45 145q0 56 19 115.5t42.5 102t42.5 94.5t19 94q0 78 -68 154q-2 14 -2 22q0 17 21 27q75 44 104 117.5t29 215.5q0 43 2.5 75t13.5 76t30 80t54 79t84 80.5t122.5 78.5t166.5 78q6 2 16 2q12 0 18.5 -6.5t7.5 -13.5l1 -6q-92 -63 -157 -136t-98.5 -140.5t-57.5 -137.5 t-44.5 -135t-47.5 -124t-77.5 -114.5t-125.5 -97.5q114 -122 114 -268q0 -53 -21.5 -173.5t-21.5 -191.5q0 -188 121 -375q-5 -24 -22 -24q-12 0 -29 10q-256 242 -256 442z" />
<glyph unicode="|" horiz-adv-x="557" d="M49 -193q0 9 4 25l484 1735q6 26 28 26q16 0 28.5 -14.5t12.5 -38.5q0 -8 -4 -24q-3 -10 -98 -353t-215 -775t-170 -607q-6 -27 -29 -27q-16 0 -28.5 14.5t-12.5 38.5z" />
<glyph unicode="}" horiz-adv-x="587" d="M-158 -270q92 63 157 136t99 140.5t58 137t44.5 134.5t47.5 124.5t77.5 114.5t125.5 97q-115 123 -115 269q0 53 21.5 173t21.5 191q0 188 -121 375q6 25 23 25q10 0 28 -11q256 -242 256 -442q0 -56 -19 -115.5t-42.5 -102t-42.5 -94.5t-19 -94q0 -77 68 -153 q2 -15 2 -23q0 -16 -20 -26q-76 -44 -105 -118.5t-29 -215.5q0 -43 -2.5 -75t-13.5 -76t-30 -80t-54 -79t-84 -80.5t-122.5 -78.5t-166.5 -78q-6 -2 -16 -2q-12 0 -18.5 6.5t-7.5 13.5z" />
<glyph unicode="&#xa1;" horiz-adv-x="493" d="M-164 -453q0 126 143 443.5t289 566.5l49 -6q-4 -75 -10 -147t-19.5 -189.5t-31 -216t-46 -206.5t-62.5 -183.5t-83 -124.5t-106 -49q-62 0 -92.5 31t-30.5 81zM215 780q0 75 49.5 136t130.5 61q63 0 96 -38.5t33 -96.5q0 -75 -49.5 -136t-130.5 -61q-63 0 -96 38.5 t-33 96.5z" />
<glyph unicode="&#xa2;" horiz-adv-x="811" d="M-29 272q0 107 41 222.5t110.5 214.5t173 168t218.5 81l35 123q4 2 14 2q49 0 49 -41l-2 -12l-18 -69q76 -9 128 -58.5t52 -124.5q0 -81 -51 -126.5t-117 -45.5q-64 0 -100 39l-160 -567q15 -6 37 -6q42 0 87.5 33.5t85.5 88.5t67 99.5t51 91.5q33 0 33 -31 q0 -55 -59.5 -156.5t-141.5 -164.5q-95 -70 -195 -82l-49 -184q-27 -9 -37 -9q-28 0 -28 33q0 19 8 43l30 117q-132 11 -197 98.5t-65 222.5zM264 281q0 -89 23 -142l211 762q-87 -50 -160.5 -249.5t-73.5 -370.5z" />
<glyph unicode="&#xa3;" horiz-adv-x="1024" d="M-186 27v6q68 63 119.5 100.5t103.5 54.5q31 15 58 40t47 59.5t35 66t28 75t20 70t15.5 66.5t11.5 51h-182q-39 0 -39 33q0 23 20.5 41.5t54.5 18.5h168l23 96h-174q-39 0 -39 33q0 22 21 40.5t55 18.5h159q24 89 49.5 156.5t64.5 136t85.5 112.5t113 71.5t146.5 27.5 q73 0 129.5 -21.5t88.5 -56t48.5 -74t16.5 -80.5q0 -75 -47.5 -118t-108.5 -43q-49 0 -84 30.5t-35 87.5q0 54 37.5 107.5t102.5 75.5q-39 39 -154 39q-37 0 -67.5 -29t-50 -70t-36 -108t-25 -118.5t-18.5 -125.5h254q39 0 39 -33q0 -22 -20.5 -40.5t-54.5 -18.5h-230 l-14 -96h227q39 0 39 -33q0 -22 -21 -41t-55 -19h-217q-49 -142 -120.5 -240t-190.5 -175q33 -5 169 -43.5t218 -38.5q116 0 192 62.5t136 178.5q28 0 28 -26q0 -46 -48.5 -132t-117.5 -145q-145 -125 -333 -125q-97 0 -265.5 42t-252.5 42q-59 0 -103 -10q-9 2 -14 8.5 t-6 12.5z" />
<glyph unicode="&#xa5;" horiz-adv-x="1294" d="M82 766q0 79 16.5 159.5t57 163.5t99.5 146.5t152.5 104t208.5 40.5q185 0 185 -168q0 -55 -20 -133t-43.5 -141t-43.5 -126.5t-20 -94.5q0 -45 18 -70.5t49 -25.5q44 0 101 48.5t116 145.5q24 91 49.5 163.5t63 147t82 128t106.5 94.5t136 59l32 -47 q-60 -49 -105.5 -123t-79 -175.5t-54.5 -184.5t-49.5 -215t-46.5 -203h116q39 0 39 -33q0 -22 -21 -40.5t-55 -18.5h-106q-7 -31 -21 -70h117q39 0 39 -33q0 -22 -21 -40.5t-55 -18.5h-114q-88 -203 -228 -283q-99 -57 -239 -57q-80 0 -143.5 22t-106.5 77t-43 138 q0 81 51 126.5t117 45.5q54 0 91.5 -31.5t37.5 -88.5q0 -67 -44.5 -116t-111.5 -71q45 -39 111 -39q109 0 180 71.5t121 205.5h-191q-39 0 -39 33q0 22 21 40.5t55 18.5h185l18 70h-193q-38 0 -38 32q0 23 20.5 41.5t54.5 18.5h178q32 133 54 233q-58 -79 -148 -127.5 t-174 -48.5q-86 0 -139 56t-53 173q0 59 20.5 149t43.5 160t51 148t32 92q-69 -1 -125.5 -24.5t-95.5 -63t-66 -92.5t-39 -111t-12 -120q0 -166 76 -271q-51 -71 -100 -71q-50 0 -83.5 65t-33.5 160z" />
<glyph unicode="&#xa6;" horiz-adv-x="557" d="M49 -193q0 9 4 25l215 770q6 27 29 27q16 0 28.5 -15t12.5 -39q0 -8 -4 -24q-3 -9 -31 -111.5t-81.5 -293t-102.5 -365.5q-6 -27 -29 -27q-16 0 -28.5 14.5t-12.5 38.5zM315 768q0 9 4 25l216 770q6 26 28 26q16 0 28.5 -14.5t12.5 -38.5q0 -9 -4 -25q-3 -9 -31 -111.5 t-81.5 -293t-102.5 -365.5q-6 -26 -29 -26q-16 0 -28.5 14.5t-12.5 38.5z" />
<glyph unicode="&#xa7;" horiz-adv-x="890" d="M-82 209q0 98 49.5 166.5t136.5 68.5q57 0 93 -47q-65 -32 -99.5 -87t-34.5 -115q0 -90 54 -139.5t129 -49.5q74 0 130 48.5t56 131.5q0 37 -31.5 81.5t-77 88t-90.5 89.5t-76.5 100.5t-31.5 105.5q0 89 69 162.5t173 112.5q-76 90 -76 170q0 65 39 124t99.5 98.5 t133.5 63t142 23.5q98 0 159.5 -47.5t61.5 -143.5q0 -81 -51 -126.5t-117 -45.5q-54 0 -91.5 32t-37.5 89q0 103 98 183q-10 4 -33 4q-84 0 -132 -39t-48 -99q0 -45 23 -89.5t58 -79.5t75.5 -76t75.5 -78.5t58 -89t23 -105.5q0 -94 -62 -166.5t-161 -113.5q58 -83 58 -164 q0 -94 -65.5 -169.5t-162.5 -114t-201 -38.5q-135 0 -225 71t-90 210zM348 768q0 -32 9.5 -61t33 -59.5t40 -49t53.5 -54.5t51 -50q63 53 63 137q0 22 -10 45.5t-32.5 51t-40 46t-52.5 53t-51 50.5q-64 -39 -64 -109z" />
<glyph unicode="&#xa8;" d="M442 1266q0 75 50 135.5t131 60.5q63 0 96 -38.5t33 -96.5q0 -75 -50 -136t-131 -61q-63 0 -96 39t-33 97zM840 1266q0 75 49.5 135.5t130.5 60.5q63 0 96 -38.5t33 -96.5q0 -75 -49.5 -136t-130.5 -61q-63 0 -96 39t-33 97z" />
<glyph unicode="&#xa9;" horiz-adv-x="1220" d="M98 315q0 118 40 224t106.5 183t151.5 134.5t176.5 86t179.5 28.5q155 0 253.5 -90.5t98.5 -268.5q0 -119 -40.5 -228t-108 -190.5t-153 -142.5t-178.5 -92t-180 -31q-151 0 -248.5 97.5t-97.5 289.5zM240 352q0 -159 72.5 -240t185.5 -81q79 0 162 39.5t152 108t113 173 t44 223.5q0 149 -76 226.5t-191 77.5q-63 0 -128 -22.5t-125 -68t-106.5 -107.5t-74.5 -147.5t-28 -181.5zM342 346q0 74 29 153.5t78.5 146t123.5 110t156 43.5q57 0 98 -32.5t41 -88.5q0 -53 -33 -83t-75 -30q-35 0 -59.5 20t-24.5 58q0 70 61 121q-6 4 -22 4 q-42 0 -85 -70t-69 -167t-26 -179q0 -137 75 -137q23 0 48 16.5t43.5 36.5t42 54t33.5 51.5t26 46.5q20 0 20 -21q0 -36 -39 -102.5t-92 -106.5q-69 -57 -151 -57q-99 0 -149 59t-50 154z" />
<glyph unicode="&#xaa;" horiz-adv-x="833" d="M121 795q0 104 52 218.5t144.5 196.5t192.5 82q67 0 111 -49q43 64 137 64q35 0 76 -13q-47 -131 -96.5 -317.5t-61.5 -276.5q16 0 53 49t65 99l29 49q14 0 25.5 -8.5t11.5 -18.5q0 -26 -22 -71t-56.5 -90.5t-84.5 -79t-97 -33.5q-94 0 -94 158v14q-42 -82 -105 -126 t-125 -44q-68 0 -111.5 51.5t-43.5 145.5zM342 766q0 -78 31 -78q30 0 72.5 51t68.5 127q22 153 88 334q-33 33 -63 33q-47 0 -94.5 -85.5t-75 -194.5t-27.5 -187z" />
<glyph unicode="&#xab;" horiz-adv-x="1392" d="M86 436q0 28 19 56t42 36l797 281q17 -6 17 -25q0 -22 -17.5 -50t-34.5 -32q-706 -239 -706 -245q276 -150 542 -291q37 -21 37 -72q0 -39 -20 -39q-12 0 -662 346q-14 11 -14 35zM510 410q0 28 19 56t42 36l797 280q16 -5 16 -24q0 -22 -17 -50t-34 -32 q-706 -239 -706 -246q71 -38 212.5 -117.5t264.5 -144.5q37 -21 37 -72q0 -17 -6 -28t-15 -11q-47 23 -106.5 55.5t-193 104.5t-296.5 158q-14 11 -14 35z" />
<glyph unicode="&#xad;" horiz-adv-x="1062" d="M86 438q54 73 122 101t152 28q56 0 164.5 -8t159.5 -8q126 0 209 33q33 0 35 -21q-55 -78 -123.5 -107.5t-157.5 -29.5q-48 0 -157 12.5t-168 12.5q-116 0 -203 -31q-31 0 -33 18z" />
<glyph unicode="&#xae;" horiz-adv-x="813" d="M63 719q0 106 44.5 198t114.5 151.5t153.5 93.5t163.5 34q112 0 184 -66t72 -196q0 -107 -45 -202.5t-116 -158.5t-155 -100t-164 -37q-111 0 -181.5 71t-70.5 212zM166 743q0 -115 53 -174t135 -59q58 0 118.5 28t109.5 80q-58 0 -80 91q0 3 -3 21t-5.5 26.5t-9 23 t-18 23t-28.5 12.5q-67 -188 -174 -188q-34 0 -57 15t-23 48q0 22 14 34.5t33 12.5q35 0 35 -32q0 -37 -43 -52q13 -10 31 -10q37 0 66 59.5t56 157t40 127.5q18 41 73 57q-4 0 -11 1.5t-11 1.5q-61 0 -113.5 -43t-52.5 -107q0 -29 13 -54.5t38 -33.5q-6 -18 -24 -18 q-29 0 -42.5 29.5t-13.5 62.5q0 82 69 133t151 51q71 0 108 -30t37 -74q0 -41 -33 -79t-88 -55q25 -6 38 -25.5t28 -64.5q0 -1 2.5 -10t4.5 -15.5t5 -16t6.5 -16t8 -12.5t9.5 -7q78 110 78 245q0 108 -54.5 164.5t-137.5 56.5q-58 0 -117 -27t-108.5 -74.5t-81 -122 t-31.5 -161.5zM444 829l15 2q48 9 76 45.5t28 79.5q0 56 -43 78q-22 -18 -31 -49q-35 -126 -45 -156z" />
<glyph unicode="&#xaf;" d="M367 1188q0 36 25 75.5t59 39.5h557q24 0 24 -35q0 -37 -25.5 -76t-58.5 -39h-557q-24 0 -24 35z" />
<glyph unicode="&#xb0;" horiz-adv-x="391" d="M145 1120q0 81 54.5 147t142.5 66q68 0 104.5 -42t36.5 -105q0 -82 -54 -147.5t-142 -65.5q-68 0 -105 42t-37 105zM242 1139q0 -27 15.5 -45.5t45.5 -18.5q38 0 61 28.5t23 63.5q0 27 -15.5 45.5t-45.5 18.5q-38 0 -61 -28.5t-23 -63.5z" />
<glyph unicode="&#xb2;" horiz-adv-x="657" d="M27 555q163 113 258 205q60 58 135.5 210.5t75.5 250.5q0 100 -90 100q-40 0 -70 -27q31 -1 49 -23.5t18 -47.5q0 -50 -31.5 -79.5t-72.5 -29.5q-37 0 -62.5 25t-25.5 73q0 72 70.5 116t162.5 44q93 0 158.5 -48t65.5 -140q0 -71 -28.5 -143t-78.5 -134.5t-106.5 -114.5 t-122.5 -98h18q89 0 185 -59q32 37 69 119q11 0 23 -8t12 -17q0 -21 -19 -60t-48.5 -78t-72 -68t-83.5 -29q-44 0 -129 24.5t-127 24.5q-49 0 -92 -25z" />
<glyph unicode="&#xb3;" horiz-adv-x="1411" d="M66 664q0 51 27 86.5t75 35.5q43 0 64.5 -22.5t21.5 -56.5q0 -37 -26.5 -69.5t-65.5 -41.5q0 -29 27.5 -47.5t52.5 -18.5q42 0 84 51t67 124t25 137q0 48 -19 84q-56 -17 -102 -17q-35 0 -53.5 10.5t-18.5 26.5q0 21 28.5 38t76.5 17q40 0 78 -6q33 39 54 101t21 118 q0 48 -17 77.5t-52 29.5q-40 0 -72 -25q32 -3 50 -25t18 -46q0 -49 -31.5 -78t-71.5 -29q-37 0 -62.5 24.5t-25.5 71.5q0 70 74 115t166 45q80 0 134 -37.5t54 -109.5q0 -66 -44 -137.5t-114 -118.5q58 -28 87.5 -75t29.5 -103q0 -53 -25.5 -106.5t-70 -97t-113.5 -70.5 t-149 -27q-87 0 -134.5 52t-47.5 120zM283 -152q0 20 12 48l807 1693q21 0 38 -13t17 -32q0 -4 -4 -16q-736 -1540 -815 -1708q-8 -2 -27 -2q-28 0 -28 30zM297 956q0 -8 27 -8q18 0 38 10q-15 9 -36 9q-8 0 -15 -2t-10.5 -4.5t-3.5 -4.5zM618 211q0 13 9 22l544 584 q25 21 80 21q49 0 58 -21q-15 -31 -65.5 -198t-86.5 -320h105q20 0 20 -29q0 -26 -15 -50.5t-38 -24.5h-94q-23 -134 -23 -177q-75 -26 -121 -26q-73 0 -73 63q0 28 28 140h-119q-137 0 -198 -2q-11 7 -11 18zM795 301q31 0 91 -1t89 -1q69 232 100 313z" />
<glyph unicode="&#xb4;" d="M686 1143q0 51 31 123t86.5 130t111.5 58q86 0 150 -137q-53 -5 -100.5 -22.5t-89 -48t-66 -51.5t-59.5 -58t-41 -43q-23 10 -23 49z" />
<glyph unicode="&#xb6;" horiz-adv-x="970" d="M-246 -248q0 81 51 126.5t117 45.5q54 0 91.5 -32t37.5 -89q0 -102 -98 -182q19 -8 41 -8q256 0 487 879q-24 -3 -45 -3q-138 0 -212 77t-74 179q0 79 46 135t126 56h729q32 0 32 -27q0 -19 -17 -34t-46 -15h-105q-68 -352 -140 -562q-255 -738 -777 -738q-110 0 -177 45 t-67 147zM184 -365q69 18 131.5 64t114 120t94.5 149t81 181.5t64 186t54 194.5t41 174t33 156h-111q-7 -28 -32 -130t-39.5 -161t-45.5 -168.5t-56 -182.5t-64 -170.5t-77 -166.5t-87 -136t-101 -110z" />
<glyph unicode="&#xb7;" horiz-adv-x="442" d="M82 360q0 75 49.5 136t130.5 61q63 0 96 -38.5t33 -96.5q0 -75 -49.5 -136t-130.5 -61q-63 0 -96 38.5t-33 96.5z" />
<glyph unicode="&#xb8;" horiz-adv-x="839" d="M94 -289q0 5 4 17q46 1 92 32.5t46 57.5t-60 26l-26 -2l-7 15l76 114l60 2l-25 -45q57 -14 85 -42t28 -62q0 -55 -60.5 -102.5t-138.5 -47.5q-74 0 -74 37z" />
<glyph unicode="&#xb9;" horiz-adv-x="458" d="M90 1178q0 19 19 22q205 56 350 137q8 0 20.5 -10.5t12.5 -17.5q-28 -55 -103.5 -341.5t-79.5 -422.5q-85 -33 -127 -33q-61 0 -61 57q0 35 50.5 227.5t102.5 364.5l-165 -8q-19 6 -19 25z" />
<glyph unicode="&#xba;" horiz-adv-x="704" d="M94 846q0 80 29 163t80 152.5t129 113.5t166 44q115 0 174 -72t59 -184q0 -80 -29.5 -163t-80 -152.5t-128 -113.5t-165.5 -44q-117 0 -175.5 72t-58.5 184zM287 739q0 -92 47 -92q39 0 90 95t86 221t35 211q0 94 -47 94q-38 0 -89 -95.5t-86.5 -222t-35.5 -211.5z" />
<glyph unicode="&#xbb;" horiz-adv-x="1441" d="M41 84q0 22 18 49t35 33q764 259 764 264q-71 38 -212.5 117.5t-264.5 144.5q-18 8 -27.5 29t-9.5 43q0 17 6 28t15 11q47 -23 107 -55.5t193 -104.5t296 -158q12 -15 12 -34q0 -28 -18.5 -57t-41.5 -36l-854 -299q-18 3 -18 25zM514 80q0 22 18 49t35 33 q707 239 707 246q-164 89 -543 290q-18 8 -27.5 29t-9.5 43q0 17 6 28t15 11q11 0 661 -346q13 -16 13 -35q0 -28 -18.5 -56.5t-41.5 -35.5l-797 -281q-18 3 -18 25z" />
<glyph unicode="&#xbc;" horiz-adv-x="1206" d="M78 -152q0 20 12 48l807 1693q21 0 38 -13t17 -32q0 -4 -4 -16q-736 -1540 -815 -1708q-8 -2 -27 -2q-28 0 -28 30zM84 1178q0 19 18 22q207 56 351 137q8 0 20 -10.5t12 -17.5q-28 -55 -103 -341.5t-79 -422.5q-85 -33 -127 -33q-61 0 -61 57q0 35 50.5 227.5 t102.5 364.5l-166 -8q-18 6 -18 25zM414 211q0 14 8 22l545 584q25 21 80 21q48 0 57 -21q-15 -31 -65.5 -198t-86.5 -320h105q20 0 20 -29q0 -26 -15 -50.5t-38 -24.5h-94q-23 -134 -23 -177q-75 -26 -121 -26q-73 0 -73 63q0 28 28 140h-118q-138 0 -199 -2q-10 7 -10 18z M590 301q31 0 91 -1t89 -1q69 232 100 313z" />
<glyph unicode="&#xbd;" horiz-adv-x="1210" d="M78 -152q0 20 12 48l807 1693q21 0 38 -13t17 -32q0 -4 -4 -16q-736 -1540 -815 -1708q-8 -2 -27 -2q-28 0 -28 30zM84 1178q0 19 18 22q207 56 351 137q8 0 20 -10.5t12 -17.5q-28 -55 -103 -341.5t-79 -422.5q-85 -33 -127 -33q-61 0 -61 57q0 35 50.5 227.5 t102.5 364.5l-166 -8q-18 6 -18 25zM457 29q167 115 258 204q60 58 135.5 210.5t75.5 250.5q0 101 -90 101q-40 0 -70 -27q31 -1 49.5 -24t18.5 -48q0 -50 -32 -79t-73 -29q-37 0 -62.5 25t-25.5 73q0 72 70.5 116t162.5 44q93 0 158.5 -48.5t65.5 -140.5q0 -71 -28.5 -143 t-78.5 -134t-106.5 -114t-122.5 -98h18q89 0 185 -59q33 38 69 118q11 0 23 -7.5t12 -16.5q0 -21 -19 -60t-48.5 -78.5t-72 -68.5t-83.5 -29q-44 0 -129 24.5t-127 24.5q-51 0 -92 -24z" />
<glyph unicode="&#xbe;" horiz-adv-x="657" d="M66 664q0 51 27 86.5t75 35.5q43 0 64.5 -22.5t21.5 -56.5q0 -37 -26.5 -69.5t-65.5 -41.5q0 -29 27.5 -47.5t52.5 -18.5q42 0 84 51t67 124t25 137q0 48 -19 84q-56 -17 -102 -17q-35 0 -53.5 10.5t-18.5 26.5q0 21 28.5 38t76.5 17q40 0 78 -6q33 39 54 101t21 118 q0 48 -17 77.5t-52 29.5q-40 0 -72 -25q32 -3 50 -25t18 -46q0 -49 -31.5 -78t-71.5 -29q-37 0 -62.5 24.5t-25.5 71.5q0 70 74 115t166 45q80 0 134 -37.5t54 -109.5q0 -66 -44 -137.5t-114 -118.5q58 -28 87.5 -75t29.5 -103q0 -53 -25.5 -106.5t-70 -97t-113.5 -70.5 t-149 -27q-87 0 -134.5 52t-47.5 120zM297 956q0 -8 27 -8q18 0 38 10q-15 9 -36 9q-8 0 -15 -2t-10.5 -4.5t-3.5 -4.5z" />
<glyph unicode="&#xbf;" horiz-adv-x="643" d="M-160 -315q0 73 32 137t83 112.5t112.5 94t123 88.5t112.5 87t83 99.5t32 116.5q0 48 -29 74t-70 26q-46 0 -82 -33t-36 -90q0 -49 28 -92q-20 -4 -28 -4q-40 0 -67.5 30t-27.5 75q0 95 61.5 149.5t143.5 54.5q85 0 147 -59t62 -166q0 -58 -45 -133t-109.5 -148 l-129 -146t-109.5 -148t-45 -132q0 -88 35 -130t110 -42q68 0 117 43q-53 3 -83 41t-30 78q0 84 50.5 134.5t115.5 50.5q57 0 96 -40.5t39 -117.5q0 -80 -57 -139.5t-139.5 -87t-175.5 -27.5q-58 0 -112.5 13.5t-102 40.5t-76.5 76.5t-29 113.5zM365 772q0 75 49.5 136 t130.5 61q63 0 96 -38.5t33 -96.5q0 -75 -49.5 -136t-130.5 -61q-63 0 -96 38.5t-33 96.5z" />
<glyph unicode="&#xc0;" horiz-adv-x="1728" d="M-43 246q0 87 30 178t79 162q91 128 232.5 208t268.5 80q113 0 113 -59q0 -22 -25 -67q-128 -11 -246 -69t-197 -137.5t-126 -168.5t-47 -166q0 -79 53.5 -127.5t161.5 -48.5q234 0 500 581q49 107 85 178.5t97 178.5t116 179t134.5 153.5t160.5 130.5t185.5 81.5 t218.5 32.5q37 0 74 -6q-106 -208 -250.5 -751t-144.5 -730q62 15 141 119.5t121 192.5q32 0 32 -31q0 -28 -21.5 -76.5t-61 -102.5t-87 -102.5t-107 -80t-114.5 -31.5q-73 0 -117.5 62.5t-44.5 197.5q0 162 54 389q-227 0 -305 -2q-41 -86 -88 -167t-114.5 -169 t-138 -152.5t-159.5 -106.5t-178 -42q-76 0 -132.5 23t-89 64t-48 91.5t-15.5 110.5zM961 686h286q57 225 135 432t150 314q-69 -10 -145.5 -74.5t-150.5 -169.5t-142.5 -230.5t-132.5 -271.5zM1456 1839q64 137 150 137q56 0 111.5 -58t86.5 -130t31 -123q0 -39 -23 -49 q-6 6 -41 43t-59.5 58t-66 51.5t-89 48t-100.5 22.5z" />
<glyph unicode="&#xc1;" horiz-adv-x="1728" d="M-43 246q0 87 30 178t79 162q91 128 232.5 208t268.5 80q113 0 113 -59q0 -22 -25 -67q-128 -11 -246 -69t-197 -137.5t-126 -168.5t-47 -166q0 -79 53.5 -127.5t161.5 -48.5q234 0 500 581q49 107 85 178.5t97 178.5t116 179t134.5 153.5t160.5 130.5t185.5 81.5 t218.5 32.5q37 0 74 -6q-106 -208 -250.5 -751t-144.5 -730q62 15 141 119.5t121 192.5q32 0 32 -31q0 -28 -21.5 -76.5t-61 -102.5t-87 -102.5t-107 -80t-114.5 -31.5q-73 0 -117.5 62.5t-44.5 197.5q0 162 54 389q-227 0 -305 -2q-41 -86 -88 -167t-114.5 -169 t-138 -152.5t-159.5 -106.5t-178 -42q-76 0 -132.5 23t-89 64t-48 91.5t-15.5 110.5zM961 686h286q57 225 135 432t150 314q-69 -10 -145.5 -74.5t-150.5 -169.5t-142.5 -230.5t-132.5 -271.5zM1524 1640q0 51 31 123.5t86.5 130.5t111.5 58q86 0 150 -137 q-53 -5 -100.5 -22.5t-89 -48t-66 -52t-60 -58.5t-41.5 -43q-22 10 -22 49z" />
<glyph unicode="&#xc2;" horiz-adv-x="1728" d="M-43 246q0 87 30 178t79 162q91 128 232.5 208t268.5 80q113 0 113 -59q0 -22 -25 -67q-128 -11 -246 -69t-197 -137.5t-126 -168.5t-47 -166q0 -79 53.5 -127.5t161.5 -48.5q234 0 500 581q49 107 85 178.5t97 178.5t116 179t134.5 153.5t160.5 130.5t185.5 81.5 t218.5 32.5q37 0 74 -6q-106 -208 -250.5 -751t-144.5 -730q62 15 141 119.5t121 192.5q32 0 32 -31q0 -28 -21.5 -76.5t-61 -102.5t-87 -102.5t-107 -80t-114.5 -31.5q-73 0 -117.5 62.5t-44.5 197.5q0 162 54 389q-227 0 -305 -2q-41 -86 -88 -167t-114.5 -169 t-138 -152.5t-159.5 -106.5t-178 -42q-76 0 -132.5 23t-89 64t-48 91.5t-15.5 110.5zM961 686h286q57 225 135 432t150 314q-69 -10 -145.5 -74.5t-150.5 -169.5t-142.5 -230.5t-132.5 -271.5zM1423 1657q0 51 68.5 131.5t157 141.5t141.5 61q49 0 76.5 -64.5t27.5 -150.5 q0 -61 -16 -108t-45 -58q-6 8 -24 35.5t-33 50t-33 47t-32 39t-21 14.5q-15 0 -40.5 -12t-59 -35.5t-56.5 -40.5t-58.5 -45t-39.5 -31q-13 6 -13 25z" />
<glyph unicode="&#xc3;" horiz-adv-x="1728" d="M-43 246q0 87 30 178t79 162q91 128 232.5 208t268.5 80q113 0 113 -59q0 -22 -25 -67q-128 -11 -246 -69t-197 -137.5t-126 -168.5t-47 -166q0 -79 53.5 -127.5t161.5 -48.5q234 0 500 581q49 107 85 178.5t97 178.5t116 179t134.5 153.5t160.5 130.5t185.5 81.5 t218.5 32.5q37 0 74 -6q-106 -208 -250.5 -751t-144.5 -730q62 15 141 119.5t121 192.5q32 0 32 -31q0 -28 -21.5 -76.5t-61 -102.5t-87 -102.5t-107 -80t-114.5 -31.5q-73 0 -117.5 62.5t-44.5 197.5q0 162 54 389q-227 0 -305 -2q-41 -86 -88 -167t-114.5 -169 t-138 -152.5t-159.5 -106.5t-178 -42q-76 0 -132.5 23t-89 64t-48 91.5t-15.5 110.5zM961 686h286q57 225 135 432t150 314q-69 -10 -145.5 -74.5t-150.5 -169.5t-142.5 -230.5t-132.5 -271.5zM1305 1688q46 121 102.5 167t126.5 46q46 0 136 -14.5t134 -14.5q100 0 176 53 q9 0 14.5 -1.5t9.5 -9t5 -22.5q-48 -127 -105 -176t-130 -49q-41 0 -132.5 20.5t-140.5 20.5q-94 0 -168 -53q-13 0 -20 6.5t-8 26.5z" />
<glyph unicode="&#xc4;" horiz-adv-x="1728" d="M-43 246q0 87 30 178t79 162q91 128 232.5 208t268.5 80q113 0 113 -59q0 -22 -25 -67q-128 -11 -246 -69t-197 -137.5t-126 -168.5t-47 -166q0 -79 53.5 -127.5t161.5 -48.5q234 0 500 581q49 107 85 178.5t97 178.5t116 179t134.5 153.5t160.5 130.5t185.5 81.5 t218.5 32.5q37 0 74 -6q-106 -208 -250.5 -751t-144.5 -730q62 15 141 119.5t121 192.5q32 0 32 -31q0 -28 -21.5 -76.5t-61 -102.5t-87 -102.5t-107 -80t-114.5 -31.5q-73 0 -117.5 62.5t-44.5 197.5q0 162 54 389q-227 0 -305 -2q-41 -86 -88 -167t-114.5 -169 t-138 -152.5t-159.5 -106.5t-178 -42q-76 0 -132.5 23t-89 64t-48 91.5t-15.5 110.5zM961 686h286q57 225 135 432t150 314q-69 -10 -145.5 -74.5t-150.5 -169.5t-142.5 -230.5t-132.5 -271.5zM1255 1778q0 75 50 135.5t131 60.5q63 0 96 -38.5t33 -96.5q0 -75 -50 -136 t-131 -61q-63 0 -96 39t-33 97zM1653 1778q0 75 49.5 135.5t130.5 60.5q63 0 96 -38.5t33 -96.5q0 -75 -49.5 -136t-130.5 -61q-63 0 -96 39t-33 97z" />
<glyph unicode="&#xc5;" horiz-adv-x="1728" d="M-43 246q0 87 30 178t79 162q91 128 232.5 208t268.5 80q113 0 113 -59q0 -22 -25 -67q-128 -11 -246 -69t-197 -137.5t-126 -168.5t-47 -166q0 -79 53.5 -127.5t161.5 -48.5q234 0 500 581q49 107 85 178.5t97 178.5t116 179t134.5 153.5t160.5 130.5t185.5 81.5 t218.5 32.5q37 0 74 -6q-106 -208 -250.5 -751t-144.5 -730q62 15 141 119.5t121 192.5q32 0 32 -31q0 -28 -21.5 -76.5t-61 -102.5t-87 -102.5t-107 -80t-114.5 -31.5q-73 0 -117.5 62.5t-44.5 197.5q0 162 54 389q-227 0 -305 -2q-41 -86 -88 -167t-114.5 -169 t-138 -152.5t-159.5 -106.5t-178 -42q-76 0 -132.5 23t-89 64t-48 91.5t-15.5 110.5zM961 686h286q57 225 135 432t150 314q-69 -10 -145.5 -74.5t-150.5 -169.5t-142.5 -230.5t-132.5 -271.5zM1620 1782q0 80 54.5 146.5t142.5 66.5q68 0 104.5 -42.5t36.5 -105.5 q0 -81 -54.5 -147t-142.5 -66q-68 0 -104.5 42.5t-36.5 105.5zM1716 1800q0 -28 15.5 -45.5t46.5 -17.5q38 0 61 28.5t23 63.5q0 27 -16 45t-46 18q-38 0 -61 -28.5t-23 -63.5z" />
<glyph unicode="&#xc6;" horiz-adv-x="2011" d="M-43 246q0 87 30 178t79 162q91 128 232.5 208t268.5 80q113 0 113 -59q0 -22 -25 -67q-128 -11 -246 -69t-197 -137.5t-126 -168.5t-47 -166q0 -79 53.5 -127.5t161.5 -48.5q62 0 127 42t116.5 102.5t104 145.5t86.5 151.5t66 139.5q49 111 98.5 206t113.5 193.5 t131.5 177t151.5 149t175 117.5t201 74t230 27q157 0 240.5 -75.5t83.5 -173.5q0 -84 -52.5 -132.5t-119.5 -48.5q-56 0 -94.5 35t-38.5 99q0 59 41.5 118t112.5 82q-32 35 -111 35q-77 0 -159.5 -80.5t-135.5 -196t-53 -214.5q0 -60 20 -101q87 19 176 19q81 0 121.5 -22 t40.5 -56q0 -41 -53 -74t-135 -33q-104 0 -183 31q-94 -86 -152 -233t-58 -277q0 -96 35.5 -154.5t105.5 -58.5q145 0 286.5 157t200.5 378q21 -5 29 -13t8 -28q0 -32 -18 -86.5t-34 -90.5t-30 -63q-41 -77 -89.5 -139.5t-111 -115.5t-141.5 -82.5t-166 -29.5 q-194 0 -294.5 98t-100.5 249q0 161 104 317q-147 0 -210 -2q-41 -86 -88 -167t-114.5 -169t-138 -152.5t-159.5 -106.5t-178 -42q-76 0 -132.5 23t-89 64t-48 91.5t-15.5 110.5zM961 686h241q90 97 230 164q-105 105 -105 260q0 163 113 285q-117 -70 -241 -261t-238 -448z M1659 834q43 -19 100 -19q66 0 66 16q0 4 -8.5 8.5t-28.5 7.5t-47 3q-39 0 -82 -16z" />
<glyph unicode="&#xc7;" horiz-adv-x="1036" d="M43 469q0 118 28 243.5t79.5 246t130.5 227.5t174.5 188t218.5 128.5t256 47.5q131 0 221 -72.5t90 -207.5q0 -139 -72 -263t-192 -204q-143 -96 -252 -96q-37 0 -37 30q0 9 2 13q75 21 142 84t110 142.5t67.5 164.5t24.5 155q0 81 -34.5 130t-106.5 49q-86 0 -182 -112 t-170 -275t-123 -355t-49 -346q0 -150 50.5 -238t155.5 -88q66 0 123.5 27.5t103 79.5t76.5 100.5t66 116.5q33 0 33 -31t-23.5 -85.5t-62.5 -110.5q-75 -106 -181.5 -166t-236.5 -60q-13 0 -53 5l-14 -27q124 -32 124 -115q0 -61 -66.5 -112.5t-152.5 -51.5q-82 0 -82 39 q0 7 4 19q51 1 101.5 36t50.5 64t-66 29l-28 -2l-8 16l75 115q-105 26 -177.5 102.5t-105 182.5t-32.5 237z" />
<glyph unicode="&#xc8;" horiz-adv-x="1062" d="M78 279q0 105 46.5 212.5t140 204t218.5 154.5q-104 104 -104 260q0 83 33.5 161.5t97 142.5t166.5 103t231 39q157 0 240.5 -75.5t83.5 -173.5q0 -84 -52.5 -132.5t-119.5 -48.5q-56 0 -94.5 35t-38.5 99q0 59 41 118t112 82q-32 35 -110 35q-77 0 -159.5 -80.5 t-135.5 -196t-53 -214.5q0 -60 20 -101q87 19 176 19q81 0 121.5 -22t40.5 -56q0 -41 -53 -74t-135 -33q-104 0 -183 31q-94 -86 -152.5 -233.5t-58.5 -276.5q0 -96 36 -154.5t106 -58.5q145 0 286.5 157t200.5 378q21 -5 29 -13t8 -28q0 -32 -18 -86.5t-34 -90.5t-30 -63 q-41 -77 -89.5 -139.5t-111 -115.5t-141.5 -82.5t-166 -29.5q-194 0 -294.5 98t-100.5 249zM711 834q43 -19 100 -19q66 0 66 16q0 4 -8.5 8.5t-28.5 7.5t-47 3q-39 0 -82 -16zM786 1858q64 137 150 137q56 0 111.5 -58t86.5 -130.5t31 -123.5q0 -39 -22 -49q-6 6 -41.5 43 t-60 58.5t-66 52t-89 48t-100.5 22.5z" />
<glyph unicode="&#xc9;" horiz-adv-x="1062" d="M78 279q0 105 46.5 212.5t140 204t218.5 154.5q-104 104 -104 260q0 83 33.5 161.5t97 142.5t166.5 103t231 39q157 0 240.5 -75.5t83.5 -173.5q0 -84 -52.5 -132.5t-119.5 -48.5q-56 0 -94.5 35t-38.5 99q0 59 41 118t112 82q-32 35 -110 35q-77 0 -159.5 -80.5 t-135.5 -196t-53 -214.5q0 -60 20 -101q87 19 176 19q81 0 121.5 -22t40.5 -56q0 -41 -53 -74t-135 -33q-104 0 -183 31q-94 -86 -152.5 -233.5t-58.5 -276.5q0 -96 36 -154.5t106 -58.5q145 0 286.5 157t200.5 378q21 -5 29 -13t8 -28q0 -32 -18 -86.5t-34 -90.5t-30 -63 q-41 -77 -89.5 -139.5t-111 -115.5t-141.5 -82.5t-166 -29.5q-194 0 -294.5 98t-100.5 249zM711 834q43 -19 100 -19q66 0 66 16q0 4 -8.5 8.5t-28.5 7.5t-47 3q-39 0 -82 -16zM877 1696q0 51 31 123t86.5 130t111.5 58q85 0 149 -137q-53 -5 -100.5 -22.5t-89 -48 t-66 -51.5t-59.5 -58t-41 -43q-22 10 -22 49z" />
<glyph unicode="&#xca;" horiz-adv-x="1062" d="M78 279q0 105 46.5 212.5t140 204t218.5 154.5q-104 104 -104 260q0 83 33.5 161.5t97 142.5t166.5 103t231 39q157 0 240.5 -75.5t83.5 -173.5q0 -84 -52.5 -132.5t-119.5 -48.5q-56 0 -94.5 35t-38.5 99q0 59 41 118t112 82q-32 35 -110 35q-77 0 -159.5 -80.5 t-135.5 -196t-53 -214.5q0 -60 20 -101q87 19 176 19q81 0 121.5 -22t40.5 -56q0 -41 -53 -74t-135 -33q-104 0 -183 31q-94 -86 -152.5 -233.5t-58.5 -276.5q0 -96 36 -154.5t106 -58.5q145 0 286.5 157t200.5 378q21 -5 29 -13t8 -28q0 -32 -18 -86.5t-34 -90.5t-30 -63 q-41 -77 -89.5 -139.5t-111 -115.5t-141.5 -82.5t-166 -29.5q-194 0 -294.5 98t-100.5 249zM711 834q43 -19 100 -19q66 0 66 16q0 4 -8.5 8.5t-28.5 7.5t-47 3q-39 0 -82 -16zM739 1663q0 51 68.5 131.5t157 141.5t141.5 61q49 0 76.5 -64.5t27.5 -150.5q0 -61 -16 -108 t-45 -58q-6 8 -24 35.5t-33 50t-33 47t-32 39t-21 14.5q-15 0 -40.5 -12t-59 -35.5t-56.5 -40.5t-58.5 -45t-39.5 -31q-13 6 -13 25z" />
<glyph unicode="&#xcb;" horiz-adv-x="1062" d="M78 279q0 105 46.5 212.5t140 204t218.5 154.5q-104 104 -104 260q0 83 33.5 161.5t97 142.5t166.5 103t231 39q157 0 240.5 -75.5t83.5 -173.5q0 -84 -52.5 -132.5t-119.5 -48.5q-56 0 -94.5 35t-38.5 99q0 59 41 118t112 82q-32 35 -110 35q-77 0 -159.5 -80.5 t-135.5 -196t-53 -214.5q0 -60 20 -101q87 19 176 19q81 0 121.5 -22t40.5 -56q0 -41 -53 -74t-135 -33q-104 0 -183 31q-94 -86 -152.5 -233.5t-58.5 -276.5q0 -96 36 -154.5t106 -58.5q145 0 286.5 157t200.5 378q21 -5 29 -13t8 -28q0 -32 -18 -86.5t-34 -90.5t-30 -63 q-41 -77 -89.5 -139.5t-111 -115.5t-141.5 -82.5t-166 -29.5q-194 0 -294.5 98t-100.5 249zM610 1817q0 75 50 135.5t131 60.5q63 0 96 -38.5t33 -96.5q0 -75 -50 -136t-131 -61q-63 0 -96 39t-33 97zM711 834q43 -19 100 -19q66 0 66 16q0 4 -8.5 8.5t-28.5 7.5t-47 3 q-39 0 -82 -16zM1008 1817q0 75 49.5 135.5t130.5 60.5q63 0 96 -38.5t33 -96.5q0 -75 -49.5 -136t-130.5 -61q-63 0 -96 39t-33 97z" />
<glyph unicode="&#xcc;" horiz-adv-x="1030" d="M16 188q0 81 51 126.5t117 45.5q54 0 91.5 -31.5t37.5 -88.5q0 -67 -44 -116t-111 -71q45 -39 110 -39q89 0 159 63t112.5 160t82 224t67.5 244.5t68.5 232.5t84.5 178q24 32 83.5 90.5t129.5 112.5q-151 -29 -320 -29q-67 0 -119 -4t-111 -15.5t-105.5 -36.5t-77.5 -63 q-54 -66 -54 -186q0 -79 23 -154t70 -132t108 -72q-29 -72 -96 -72q-54 0 -95.5 35t-62.5 90t-31 109.5t-10 105.5q0 138 41.5 245t112.5 176t173.5 113.5t216.5 63t249 18.5q310 0 422 39q32 0 32 -30q0 -60 -104 -115q-64 -40 -117 -103t-78.5 -112.5t-36.5 -87.5 q-10 -37 -32 -120.5t-36.5 -136t-39.5 -137t-47.5 -144t-53.5 -135.5t-64.5 -132.5t-73.5 -114t-88 -101t-101 -73.5q-99 -57 -240 -57q-80 0 -143.5 22t-106.5 77t-43 138zM903 1841q64 137 150 137q56 0 111.5 -58t86.5 -130t31 -123q0 -39 -22 -49q-9 9 -35 36 t-44.5 45.5t-52 45.5t-64.5 44.5t-74 32.5t-87 19z" />
<glyph unicode="&#xcd;" horiz-adv-x="1030" d="M16 188q0 81 51 126.5t117 45.5q54 0 91.5 -31.5t37.5 -88.5q0 -67 -44 -116t-111 -71q45 -39 110 -39q89 0 159 63t112.5 160t82 224t67.5 244.5t68.5 232.5t84.5 178q24 32 83.5 90.5t129.5 112.5q-151 -29 -320 -29q-67 0 -119 -4t-111 -15.5t-105.5 -36.5t-77.5 -63 q-54 -66 -54 -186q0 -79 23 -154t70 -132t108 -72q-29 -72 -96 -72q-54 0 -95.5 35t-62.5 90t-31 109.5t-10 105.5q0 138 41.5 245t112.5 176t173.5 113.5t216.5 63t249 18.5q310 0 422 39q32 0 32 -30q0 -60 -104 -115q-64 -40 -117 -103t-78.5 -112.5t-36.5 -87.5 q-10 -37 -32 -120.5t-36.5 -136t-39.5 -137t-47.5 -144t-53.5 -135.5t-64.5 -132.5t-73.5 -114t-88 -101t-101 -73.5q-99 -57 -240 -57q-80 0 -143.5 22t-106.5 77t-43 138zM1008 1638q0 51 31 123.5t86.5 130.5t111.5 58q84 0 149 -138q-53 -5 -100.5 -22.5t-89 -48 t-66 -51.5t-59.5 -58t-41 -43q-22 10 -22 49z" />
<glyph unicode="&#xce;" horiz-adv-x="1030" d="M16 188q0 81 51 126.5t117 45.5q54 0 91.5 -31.5t37.5 -88.5q0 -67 -44 -116t-111 -71q45 -39 110 -39q89 0 159 63t112.5 160t82 224t67.5 244.5t68.5 232.5t84.5 178q24 32 83.5 90.5t129.5 112.5q-151 -29 -320 -29q-67 0 -119 -4t-111 -15.5t-105.5 -36.5t-77.5 -63 q-54 -66 -54 -186q0 -79 23 -154t70 -132t108 -72q-29 -72 -96 -72q-54 0 -95.5 35t-62.5 90t-31 109.5t-10 105.5q0 138 41.5 245t112.5 176t173.5 113.5t216.5 63t249 18.5q310 0 422 39q32 0 32 -30q0 -60 -104 -115q-64 -40 -117 -103t-78.5 -112.5t-36.5 -87.5 q-10 -37 -32 -120.5t-36.5 -136t-39.5 -137t-47.5 -144t-53.5 -135.5t-64.5 -132.5t-73.5 -114t-88 -101t-101 -73.5q-99 -57 -240 -57q-80 0 -143.5 22t-106.5 77t-43 138zM870 1649q0 51 68.5 131.5t157 141t141.5 60.5q49 0 76.5 -64.5t27.5 -150.5q0 -61 -16 -107.5 t-45 -57.5q-6 8 -24 35.5t-33 50t-33 47t-32 39t-21 14.5q-15 0 -40.5 -12t-59 -35.5t-56.5 -40.5t-58.5 -45t-39.5 -31q-13 6 -13 25z" />
<glyph unicode="&#xcf;" horiz-adv-x="1030" d="M16 188q0 81 51 126.5t117 45.5q54 0 91.5 -31.5t37.5 -88.5q0 -67 -44 -116t-111 -71q45 -39 110 -39q89 0 159 63t112.5 160t82 224t67.5 244.5t68.5 232.5t84.5 178q24 32 83.5 90.5t129.5 112.5q-151 -29 -320 -29q-67 0 -119 -4t-111 -15.5t-105.5 -36.5t-77.5 -63 q-54 -66 -54 -186q0 -79 23 -154t70 -132t108 -72q-29 -72 -96 -72q-54 0 -95.5 35t-62.5 90t-31 109.5t-10 105.5q0 138 41.5 245t112.5 176t173.5 113.5t216.5 63t249 18.5q310 0 422 39q32 0 32 -30q0 -60 -104 -115q-64 -40 -117 -103t-78.5 -112.5t-36.5 -87.5 q-10 -37 -32 -120.5t-36.5 -136t-39.5 -137t-47.5 -144t-53.5 -135.5t-64.5 -132.5t-73.5 -114t-88 -101t-101 -73.5q-99 -57 -240 -57q-80 0 -143.5 22t-106.5 77t-43 138zM825 1784q0 75 50 135.5t131 60.5q63 0 96 -38.5t33 -96.5q0 -75 -50 -135.5t-131 -60.5 q-63 0 -96 38.5t-33 96.5zM1223 1784q0 75 49.5 135.5t130.5 60.5q63 0 96 -38.5t33 -96.5q0 -75 -49.5 -135.5t-130.5 -60.5q-63 0 -96 38.5t-33 96.5z" />
<glyph unicode="&#xd0;" horiz-adv-x="1527" d="M10 0v6q81 55 162 84q71 33 128.5 85.5t95 108.5t70.5 135t52 141.5t41 152.5h-63q-39 0 -39 32q0 23 20.5 41.5t54.5 18.5h50q22 91 37.5 145.5t42.5 122t59 111.5q27 37 64.5 79.5t112 103t149.5 93.5q-73 27 -148 27q-81 0 -168 -26.5t-166.5 -76t-143 -115t-101 -150 t-37.5 -173.5q0 -65 19 -128t63.5 -117.5t107.5 -73.5q-29 -72 -96 -72q-54 0 -95.5 35t-62.5 90t-31 109.5t-10 105.5q0 125 48.5 235t129.5 190t185 138t217.5 86.5t224.5 28.5q154 0 272 -45.5t189 -125.5t106 -182t35 -223q0 -175 -68.5 -356t-200 -337t-300.5 -241 q-216 -108 -408 -108q-85 0 -217 26.5t-194 26.5q-84 0 -164 -31q-10 2 -16 9t-7 14zM494 121q33 -5 85.5 -15.5t93 -17t75.5 -6.5q110 0 213.5 84t175.5 214.5t115.5 290.5t43.5 310q0 148 -45 265t-137 179q-103 -81 -149 -256q-13 -44 -47.5 -168t-55.5 -196h133 q39 0 39 -33q0 -22 -21 -40.5t-55 -18.5h-124q-65 -200 -146.5 -351.5t-193.5 -240.5z" />
<glyph unicode="&#xd1;" horiz-adv-x="1685" d="M10 188q0 81 51 126.5t117 45.5q54 0 91.5 -31.5t37.5 -88.5q0 -67 -44 -116t-111 -71q45 -39 110 -39q97 0 178 38t140.5 104.5t109.5 153.5t92 189.5t82 208.5t85 214t95 202t119 176.5t150 133.5q-55 -7 -133.5 -11t-146.5 -4.5t-146 -6t-141 -15t-123.5 -33 t-101 -57.5t-65 -90.5t-24.5 -131.5q0 -79 23 -154t70 -132t108 -72q-29 -72 -96 -72q-54 0 -95.5 35t-62.5 90t-31 109.5t-10 105.5q0 187 86.5 326t235.5 210t339 71q107 0 268.5 -25.5t250.5 -30.5q24 0 24 -49q0 -9 -41 -24q-100 -108 -100 -578q0 -172 14 -328t35 -223 q6 114 32 242.5t67 256t99.5 243.5t125.5 205.5t150.5 142.5t168.5 53q86 0 148.5 -50t62.5 -134q0 -81 -51 -127t-117 -46q-54 0 -91.5 32t-37.5 89q0 103 98 183q-10 4 -32 4q-80 0 -163 -77t-154 -212t-127.5 -304t-89 -368.5t-32.5 -390.5q0 -65 2 -96q-8 -2 -35 -9.5 t-41.5 -11t-38 -7t-42.5 -3.5q-62 0 -107 43t-71 120.5t-38 172t-12 209.5q0 222 38.5 460.5t90.5 366.5q-41 -53 -79 -129t-68 -157.5t-63 -175.5t-62.5 -185t-68 -183t-79 -172t-95 -150t-116.5 -120.5t-143.5 -79t-175.5 -28.5q-80 0 -143.5 22t-106.5 77t-43 138z M1272 1700q46 121 102.5 167t126.5 46q47 0 137 -14.5t134 -14.5q100 0 176 53q10 0 14.5 -1.5t8.5 -8.5t5 -22q-48 -127 -105.5 -176.5t-129.5 -49.5q-41 0 -132 20.5t-141 20.5q-94 0 -168 -53q-13 0 -20 6.5t-8 26.5z" />
<glyph unicode="&#xd2;" horiz-adv-x="1249" d="M70 471q0 118 26 242.5t74 244.5t121.5 226.5t163 187t205 127.5t241.5 47q79 0 144 -27t110.5 -75t76.5 -114.5t45.5 -144.5t14.5 -167q0 -118 -26 -243t-74 -245.5t-121 -228t-162 -188.5t-203.5 -128.5t-238.5 -47.5q-99 0 -176 41.5t-124.5 115t-72 169t-24.5 208.5z M385 311q0 -126 30.5 -198t94.5 -72q68 0 140 78.5t130.5 205.5t106 277.5t74 304t26.5 275.5q0 126 -30.5 198t-94.5 72q-68 0 -140 -78.5t-130.5 -205.5t-106 -277.5t-74 -304t-26.5 -275.5zM770 1835q64 137 150 137q56 0 111.5 -58t86.5 -130t31 -123q0 -39 -23 -49 q-6 6 -41 43t-59.5 58t-66 51.5t-89 48t-100.5 22.5z" />
<glyph unicode="&#xd3;" horiz-adv-x="1249" d="M70 471q0 118 26 242.5t74 244.5t121.5 226.5t163 187t205 127.5t241.5 47q79 0 144 -27t110.5 -75t76.5 -114.5t45.5 -144.5t14.5 -167q0 -118 -26 -243t-74 -245.5t-121 -228t-162 -188.5t-203.5 -128.5t-238.5 -47.5q-99 0 -176 41.5t-124.5 115t-72 169t-24.5 208.5z M385 311q0 -126 30.5 -198t94.5 -72q68 0 140 78.5t130.5 205.5t106 277.5t74 304t26.5 275.5q0 126 -30.5 198t-94.5 72q-68 0 -140 -78.5t-130.5 -205.5t-106 -277.5t-74 -304t-26.5 -275.5zM825 1690q0 51 31.5 123t87 130t111.5 58q85 0 149 -137q-53 -5 -100.5 -22.5 t-88.5 -48t-66 -52t-59.5 -58t-41.5 -43.5q-23 10 -23 50z" />
<glyph unicode="&#xd4;" horiz-adv-x="1249" d="M70 471q0 118 26 242.5t74 244.5t121.5 226.5t163 187t205 127.5t241.5 47q79 0 144 -27t110.5 -75t76.5 -114.5t45.5 -144.5t14.5 -167q0 -118 -26 -243t-74 -245.5t-121 -228t-162 -188.5t-203.5 -128.5t-238.5 -47.5q-99 0 -176 41.5t-124.5 115t-72 169t-24.5 208.5z M385 311q0 -126 30.5 -198t94.5 -72q68 0 140 78.5t130.5 205.5t106 277.5t74 304t26.5 275.5q0 126 -30.5 198t-94.5 72q-68 0 -140 -78.5t-130.5 -205.5t-106 -277.5t-74 -304t-26.5 -275.5zM694 1667q0 51 68.5 131.5t157 141.5t141.5 61q49 0 76.5 -64.5t27.5 -150.5 q0 -61 -16 -108t-45 -58q-6 8 -24 35.5t-33 50t-33 47t-32 39t-21 14.5q-15 0 -40.5 -12t-59 -35.5t-56.5 -40.5t-58.5 -45t-39.5 -31q-13 6 -13 25z" />
<glyph unicode="&#xd5;" horiz-adv-x="1249" d="M70 471q0 118 26 242.5t74 244.5t121.5 226.5t163 187t205 127.5t241.5 47q79 0 144 -27t110.5 -75t76.5 -114.5t45.5 -144.5t14.5 -167q0 -118 -26 -243t-74 -245.5t-121 -228t-162 -188.5t-203.5 -128.5t-238.5 -47.5q-99 0 -176 41.5t-124.5 115t-72 169t-24.5 208.5z M385 311q0 -126 30.5 -198t94.5 -72q68 0 140 78.5t130.5 205.5t106 277.5t74 304t26.5 275.5q0 126 -30.5 198t-94.5 72q-68 0 -140 -78.5t-130.5 -205.5t-106 -277.5t-74 -304t-26.5 -275.5zM602 1700q46 121 102.5 167t126.5 46q46 0 136.5 -14.5t134.5 -14.5 q100 0 176 53q10 0 14.5 -1.5t9 -8.5t5.5 -22q-48 -127 -105.5 -176.5t-130.5 -49.5q-41 0 -132 20.5t-140 20.5q-94 0 -168 -53q-14 0 -21 6.5t-8 26.5z" />
<glyph unicode="&#xd6;" horiz-adv-x="1249" d="M70 471q0 118 26 242.5t74 244.5t121.5 226.5t163 187t205 127.5t241.5 47q79 0 144 -27t110.5 -75t76.5 -114.5t45.5 -144.5t14.5 -167q0 -118 -26 -243t-74 -245.5t-121 -228t-162 -188.5t-203.5 -128.5t-238.5 -47.5q-99 0 -176 41.5t-124.5 115t-72 169t-24.5 208.5z M385 311q0 -126 30.5 -198t94.5 -72q68 0 140 78.5t130.5 205.5t106 277.5t74 304t26.5 275.5q0 126 -30.5 198t-94.5 72q-68 0 -140 -78.5t-130.5 -205.5t-106 -277.5t-74 -304t-26.5 -275.5zM610 1780q0 75 50 135.5t131 60.5q63 0 96 -38.5t33 -96.5q0 -75 -50 -135.5 t-131 -60.5q-63 0 -96 38.5t-33 96.5zM1008 1780q0 75 49.5 135.5t130.5 60.5q63 0 96 -38.5t33 -96.5q0 -75 -49.5 -135.5t-130.5 -60.5q-63 0 -96 38.5t-33 96.5z" />
<glyph unicode="&#xd7;" horiz-adv-x="870" d="M117 414q0 36 37 59q51 37 258 191l-166 196q-17 20 -17 39q0 16 11 31.5t28 15.5q12 0 21 -12l188 -221l285 209q13 10 26 10q9 0 16 -7.5t7 -19.5q0 -32 -37 -59l-252 -187q90 -106 129.5 -154.5t47.5 -61.5t8 -21q0 -17 -10.5 -33t-28.5 -16q-15 0 -21 12l-192 225 l-289 -213q-10 -8 -27 -8q-19 0 -22 25z" />
<glyph unicode="&#xd8;" horiz-adv-x="1249" d="M70 471q0 118 26 242.5t74 244.5t121.5 226.5t163 187t205 127.5t241.5 47q62 0 127 -20l31 63q21 0 38 -13t17 -32q0 -4 -4 -16q-7 -10 -16 -35q98 -61 148 -186.5t50 -288.5q0 -118 -26 -243t-74 -245.5t-121 -228t-162 -188.5t-203.5 -128.5t-238.5 -47.5 q-65 0 -111 14q-29 -56 -61 -131q-8 -2 -27 -2q-28 0 -28 30q0 20 12 48l39 81q-110 58 -165.5 189t-55.5 305zM385 311q0 -71 8 -118l563 1183q-32 76 -94 76q-68 0 -140 -78.5t-130.5 -205.5t-106 -277.5t-74 -304t-26.5 -275.5zM424 94q30 -53 86 -53q68 0 140 78.5 t130.5 205.5t106 277.5t74 304t26.5 275.5q0 57 -4 82z" />
<glyph unicode="&#xd9;" horiz-adv-x="1492" d="M41 829q0 87 18.5 176.5t63.5 181.5t110.5 163t169.5 116t232 45q41 0 77.5 -7t69.5 -21.5t52.5 -42.5t19.5 -66q0 -66 -143.5 -609.5t-143.5 -584.5q0 -69 33 -69q59 0 128 65t123.5 150.5t100.5 185.5q45 237 119 508.5t113 388.5q18 55 68 82t116 27q60 0 137 -25 q-321 -1079 -323 -1387q143 18 295 310q32 0 32 -31q0 -65 -86 -197q-50 -77 -160 -155t-200 -78q-55 0 -90.5 36t-47.5 83t-12 104q0 51 11 152q-103 -175 -226 -268t-229 -93q-82 0 -132 58.5t-50 165.5q0 86 39.5 265t88.5 351t97.5 352t60.5 256q-76 -1 -139.5 -27.5 t-106.5 -71t-73 -104.5t-43.5 -124.5t-13.5 -133.5q0 -183 84 -299q-55 -77 -111 -77q-55 0 -92 72t-37 177zM809 1804q65 138 149 138q56 0 111.5 -58t87 -130.5t31.5 -123.5q0 -39 -23 -49q-6 6 -41 43t-59.5 58t-66 51.5t-89 48t-100.5 22.5z" />
<glyph unicode="&#xda;" horiz-adv-x="1492" d="M41 829q0 87 18.5 176.5t63.5 181.5t110.5 163t169.5 116t232 45q41 0 77.5 -7t69.5 -21.5t52.5 -42.5t19.5 -66q0 -66 -143.5 -609.5t-143.5 -584.5q0 -69 33 -69q59 0 128 65t123.5 150.5t100.5 185.5q45 237 119 508.5t113 388.5q18 55 68 82t116 27q60 0 137 -25 q-321 -1079 -323 -1387q143 18 295 310q32 0 32 -31q0 -65 -86 -197q-50 -77 -160 -155t-200 -78q-55 0 -90.5 36t-47.5 83t-12 104q0 51 11 152q-103 -175 -226 -268t-229 -93q-82 0 -132 58.5t-50 165.5q0 86 39.5 265t88.5 351t97.5 352t60.5 256q-76 -1 -139.5 -27.5 t-106.5 -71t-73 -104.5t-43.5 -124.5t-13.5 -133.5q0 -183 84 -299q-55 -77 -111 -77q-55 0 -92 72t-37 177zM936 1638q0 51 31 123.5t86.5 130.5t111.5 58q85 0 150 -138q-44 -4 -87 -19t-74 -32.5t-64.5 -44.5t-52 -45.5t-44.5 -45.5t-35 -36q-22 10 -22 49z" />
<glyph unicode="&#xdb;" horiz-adv-x="1492" d="M41 829q0 87 18.5 176.5t63.5 181.5t110.5 163t169.5 116t232 45q41 0 77.5 -7t69.5 -21.5t52.5 -42.5t19.5 -66q0 -66 -143.5 -609.5t-143.5 -584.5q0 -69 33 -69q59 0 128 65t123.5 150.5t100.5 185.5q45 237 119 508.5t113 388.5q18 55 68 82t116 27q60 0 137 -25 q-321 -1079 -323 -1387q143 18 295 310q32 0 32 -31q0 -65 -86 -197q-50 -77 -160 -155t-200 -78q-55 0 -90.5 36t-47.5 83t-12 104q0 51 11 152q-103 -175 -226 -268t-229 -93q-82 0 -132 58.5t-50 165.5q0 86 39.5 265t88.5 351t97.5 352t60.5 256q-76 -1 -139.5 -27.5 t-106.5 -71t-73 -104.5t-43.5 -124.5t-13.5 -133.5q0 -183 84 -299q-55 -77 -111 -77q-55 0 -92 72t-37 177zM799 1620q0 51 68.5 131.5t156.5 141.5t141 61q49 0 77 -65t28 -150q0 -60 -16.5 -107.5t-45.5 -58.5q-6 8 -24 35.5t-33 50t-33 47t-32 39t-21 14.5 q-15 0 -40.5 -12t-59 -35.5t-56.5 -40.5t-58.5 -45t-39.5 -31q-12 6 -12 25z" />
<glyph unicode="&#xdc;" horiz-adv-x="1492" d="M41 829q0 87 18.5 176.5t63.5 181.5t110.5 163t169.5 116t232 45q41 0 77.5 -7t69.5 -21.5t52.5 -42.5t19.5 -66q0 -66 -143.5 -609.5t-143.5 -584.5q0 -69 33 -69q59 0 128 65t123.5 150.5t100.5 185.5q45 237 119 508.5t113 388.5q18 55 68 82t116 27q60 0 137 -25 q-321 -1079 -323 -1387q143 18 295 310q32 0 32 -31q0 -65 -86 -197q-50 -77 -160 -155t-200 -78q-55 0 -90.5 36t-47.5 83t-12 104q0 51 11 152q-103 -175 -226 -268t-229 -93q-82 0 -132 58.5t-50 165.5q0 86 39.5 265t88.5 351t97.5 352t60.5 256q-76 -1 -139.5 -27.5 t-106.5 -71t-73 -104.5t-43.5 -124.5t-13.5 -133.5q0 -183 84 -299q-55 -77 -111 -77q-55 0 -92 72t-37 177zM743 1757q0 75 50 136t131 61q63 0 96 -38.5t33 -96.5q0 -75 -50 -136t-131 -61q-63 0 -96 38.5t-33 96.5zM1141 1757q0 75 49.5 136t130.5 61q63 0 96 -38.5 t33 -96.5q0 -75 -49.5 -136t-130.5 -61q-63 0 -96 38.5t-33 96.5z" />
<glyph unicode="&#xdd;" horiz-adv-x="1292" d="M47 829q0 87 18.5 176.5t63.5 181.5t110.5 163t169.5 116t232 45q41 0 77.5 -7t69.5 -21.5t52.5 -42.5t19.5 -66q0 -66 -131 -531.5t-131 -506.5q0 -70 33 -70q52 0 112.5 51t113.5 129.5t96 160t71 155.5q19 82 47.5 207.5t44.5 195t33.5 140.5t28.5 104q18 55 68 82 t116 27q60 0 137 -25q-18 -61 -95.5 -352.5t-146 -538.5t-157 -501.5t-150.5 -338.5q-202 -272 -487 -272q-46 0 -92 9.5t-89 30t-76 49.5t-53 72t-20 93q0 81 52.5 131.5t117.5 50.5q68 0 103.5 -36.5t35.5 -92.5q0 -53 -29.5 -104.5t-80.5 -79.5q65 -47 143 -47 q64 0 121.5 31.5t93.5 87.5q113 179 271 813q-102 -181 -227.5 -277t-233.5 -96q-82 0 -132.5 58t-50.5 165q0 109 56.5 321t124 434.5t82.5 313.5q-76 -1 -139.5 -27.5t-106.5 -71.5t-73 -104.5t-44 -124.5t-14 -133q0 -183 84 -299q-55 -77 -111 -77q-55 0 -92 72t-37 177 zM969 1669q0 51 31 123t86.5 130t111.5 58q86 0 150 -137q-44 -4 -87 -19t-74 -32.5t-64.5 -44.5t-52 -45.5t-44.5 -45.5t-35 -36q-22 10 -22 49z" />
<glyph unicode="&#xde;" horiz-adv-x="1447" d="M16 190q0 81 51 126.5t117 45.5q54 0 91.5 -31.5t37.5 -88.5q0 -67 -44 -116t-111 -71q45 -39 110 -39q68 0 129.5 58t106.5 145.5t91.5 217t78.5 244t73.5 257t71.5 227.5q12 38 31 74q-94 -17 -183.5 -63.5t-161.5 -114.5t-115.5 -163.5t-43.5 -201.5q0 -103 49 -196.5 t142 -122.5q-14 -35 -40 -53.5t-57 -18.5q-54 0 -95 35t-62 90t-31 109t-10 106q0 108 36.5 205.5t99 172.5t145.5 134.5t177 97t193 54.5q100 146 263.5 229.5t318.5 83.5q14 0 24 -11.5t10 -29.5q-127 -27 -213.5 -88t-140.5 -180q172 -28 276.5 -138t104.5 -264 q0 -117 -54 -228.5t-141.5 -193.5t-203 -132t-232.5 -50q-18 0 -24 5t-13 26q74 12 151 63t135.5 122.5t96 159.5t37.5 169q0 112 -42.5 208t-127.5 146q-23 -79 -37 -131q-99 -360 -168 -535q-171 -434 -413 -546q-90 -41 -191 -41q-80 0 -143.5 22t-106.5 77t-43 138z" />
<glyph unicode="&#xdf;" horiz-adv-x="962" d="M-205 -414q0 7 4 19q79 104 148 294t112.5 373.5t103.5 419.5t111 381q30 85 75.5 157t107 131t144 92.5t175.5 33.5q49 0 96 -9.5t89 -29t68 -56t26 -83.5q0 -174 -105.5 -320.5t-271.5 -232.5q123 -22 183.5 -104.5t60.5 -198.5q0 -85 -32.5 -173t-88 -160t-138 -117.5 t-174.5 -45.5q-71 0 -121.5 64t-50.5 155q0 71 26 136.5t54 95.5q11 8 21 8q11 0 26 -15q-20 -39 -35.5 -98.5t-15.5 -116.5q0 -79 29 -120t76 -41q40 0 88.5 70t82 176.5t33.5 201.5q0 93 -38 154.5t-121 72.5q-39 -12 -117 -24q-35 -141 -63.5 -240t-75 -226.5t-95 -221.5 t-119.5 -189.5t-155 -165.5q-2 -2 -17.5 -14.5t-22.5 -17.5t-20 -13.5t-24 -12t-22 -3.5q-17 0 -17 14zM446 756q90 23 165.5 88t120 146.5t69 164t24.5 152.5q0 61 -17.5 96t-51.5 35q-26 0 -50 -11.5t-42 -28.5t-34.5 -45t-28 -52.5t-23.5 -59.5t-18.5 -57.5t-15 -55.5 t-12.5 -45q-15 -50 -86 -327z" />
<glyph unicode="&#xe0;" d="M23 219q0 88 27.5 188t77.5 194t114.5 171t145.5 123.5t163 46.5q46 0 83 -14.5t75 -57.5q50 82 157 82q58 0 119 -22q-65 -179 -137 -457t-92 -414q62 15 141 119.5t121 192.5q33 0 33 -31q0 -37 -31.5 -101.5t-81 -130t-120 -113.5t-138.5 -48q-135 0 -135 225v29 q-141 -252 -293 -252q-117 0 -173 73.5t-56 196.5zM311 188q0 -108 43 -108q44 0 105.5 72t97.5 182q35 232 127 477q-48 45 -90 45q-68 0 -136 -123.5t-107.5 -279t-39.5 -265.5zM584 1294q65 138 149 138q56 0 111.5 -58t87 -130.5t31.5 -123.5q0 -39 -23 -49q-6 6 -41 43 t-59.5 58t-66 51.5t-89 48t-100.5 22.5z" />
<glyph unicode="&#xe1;" d="M23 219q0 88 27.5 188t77.5 194t114.5 171t145.5 123.5t163 46.5q46 0 83 -14.5t75 -57.5q50 82 157 82q58 0 119 -22q-65 -179 -137 -457t-92 -414q62 15 141 119.5t121 192.5q33 0 33 -31q0 -37 -31.5 -101.5t-81 -130t-120 -113.5t-138.5 -48q-135 0 -135 225v29 q-141 -252 -293 -252q-117 0 -173 73.5t-56 196.5zM311 188q0 -108 43 -108q44 0 105.5 72t97.5 182q35 232 127 477q-48 45 -90 45q-68 0 -136 -123.5t-107.5 -279t-39.5 -265.5zM686 1143q0 51 31 123t86.5 130t111.5 58q86 0 150 -137q-53 -5 -100.5 -22.5t-89 -48 t-66 -51.5t-59.5 -58t-41 -43q-23 10 -23 49z" />
<glyph unicode="&#xe2;" d="M23 219q0 88 27.5 188t77.5 194t114.5 171t145.5 123.5t163 46.5q46 0 83 -14.5t75 -57.5q50 82 157 82q58 0 119 -22q-65 -179 -137 -457t-92 -414q62 15 141 119.5t121 192.5q33 0 33 -31q0 -37 -31.5 -101.5t-81 -130t-120 -113.5t-138.5 -48q-135 0 -135 225v29 q-141 -252 -293 -252q-117 0 -173 73.5t-56 196.5zM311 188q0 -108 43 -108q44 0 105.5 72t97.5 182q35 232 127 477q-48 45 -90 45q-68 0 -136 -123.5t-107.5 -279t-39.5 -265.5zM463 1124q0 51 68.5 131.5t156.5 141.5t141 61q49 0 77 -65.5t28 -149.5q0 -62 -15.5 -107.5 t-46.5 -58.5l-24 36t-33 50t-33 47.5t-32 39t-21 14.5q-15 0 -40.5 -12t-59 -35.5t-56.5 -40.5t-58.5 -45t-39.5 -31q-12 6 -12 24z" />
<glyph unicode="&#xe3;" d="M23 219q0 88 27.5 188t77.5 194t114.5 171t145.5 123.5t163 46.5q46 0 83 -14.5t75 -57.5q50 82 157 82q58 0 119 -22q-65 -179 -137 -457t-92 -414q62 15 141 119.5t121 192.5q33 0 33 -31q0 -37 -31.5 -101.5t-81 -130t-120 -113.5t-138.5 -48q-135 0 -135 225v29 q-141 -252 -293 -252q-117 0 -173 73.5t-56 196.5zM311 188q0 -108 43 -108q44 0 105.5 72t97.5 182q35 232 127 477q-48 45 -90 45q-68 0 -136 -123.5t-107.5 -279t-39.5 -265.5zM401 1153q46 121 103 167t127 46q47 0 136.5 -14.5t133.5 -14.5q98 0 176 54q9 0 14.5 -1.5 t9.5 -9t5 -22.5q-48 -126 -105.5 -175.5t-130.5 -49.5q-40 0 -131 20.5t-141 20.5q-93 0 -168 -54q-14 0 -21 6.5t-8 26.5z" />
<glyph unicode="&#xe4;" d="M23 219q0 88 27.5 188t77.5 194t114.5 171t145.5 123.5t163 46.5q46 0 83 -14.5t75 -57.5q50 82 157 82q58 0 119 -22q-65 -179 -137 -457t-92 -414q62 15 141 119.5t121 192.5q33 0 33 -31q0 -37 -31.5 -101.5t-81 -130t-120 -113.5t-138.5 -48q-135 0 -135 225v29 q-141 -252 -293 -252q-117 0 -173 73.5t-56 196.5zM311 188q0 -108 43 -108q44 0 105.5 72t97.5 182q35 232 127 477q-48 45 -90 45q-68 0 -136 -123.5t-107.5 -279t-39.5 -265.5zM442 1266q0 75 50 135.5t131 60.5q63 0 96 -38.5t33 -96.5q0 -75 -50 -136t-131 -61 q-63 0 -96 39t-33 97zM840 1266q0 75 49.5 135.5t130.5 60.5q63 0 96 -38.5t33 -96.5q0 -75 -49.5 -136t-130.5 -61q-63 0 -96 39t-33 97z" />
<glyph unicode="&#xe5;" d="M23 219q0 88 27.5 188t77.5 194t114.5 171t145.5 123.5t163 46.5q46 0 83 -14.5t75 -57.5q50 82 157 82q58 0 119 -22q-65 -179 -137 -457t-92 -414q62 15 141 119.5t121 192.5q33 0 33 -31q0 -37 -31.5 -101.5t-81 -130t-120 -113.5t-138.5 -48q-135 0 -135 225v29 q-141 -252 -293 -252q-117 0 -173 73.5t-56 196.5zM311 188q0 -108 43 -108q44 0 105.5 72t97.5 182q35 232 127 477q-48 45 -90 45q-68 0 -136 -123.5t-107.5 -279t-39.5 -265.5zM625 1264q0 80 54 146.5t142 66.5q68 0 105 -42.5t37 -105.5q0 -81 -54.5 -147t-142.5 -66 q-68 0 -104.5 42.5t-36.5 105.5zM721 1282q0 -28 15 -45.5t46 -17.5q38 0 61 28.5t23 63.5q0 27 -15.5 45t-45.5 18q-38 0 -61 -28.5t-23 -63.5z" />
<glyph unicode="&#xe6;" horiz-adv-x="1363" d="M23 219q0 88 27.5 188t77.5 194t114.5 171t145.5 123.5t163 46.5q70 0 130.5 -43.5t84.5 -116.5q86 87 185 137t186 50q99 0 149.5 -55t50.5 -142q0 -54 -19 -112.5t-57 -113t-89 -98t-121 -70t-146 -26.5q-23 0 -69 4q-11 -75 -11 -114q0 -187 125 -187q42 0 90 36.5 t91 94t73 106t53 93.5q33 0 33 -31q0 -55 -59 -156.5t-141 -164.5q-109 -86 -236 -86q-114 0 -197 73t-96 211q-148 -282 -309 -282q-117 0 -173 73.5t-56 196.5zM311 188q0 -108 43 -108q44 0 107.5 76t99.5 188q20 226 176 406q-76 106 -143 106q-68 0 -136 -123.5 t-107.5 -279t-39.5 -265.5zM844 403h18q58 0 107.5 31t81.5 78.5t55 107t33 115.5t10 105q0 45 -49 45q-39 0 -90 -73t-96.5 -184.5t-69.5 -224.5z" />
<glyph unicode="&#xe7;" horiz-adv-x="839" d="M23 272q0 89 27.5 185.5t81 186t124 161.5t163.5 115t193 43q86 0 148.5 -50.5t62.5 -134.5q0 -81 -51 -126.5t-117 -45.5q-54 0 -91.5 32t-37.5 89q0 102 99 182q-10 4 -33 4q-63 0 -129 -105.5t-107 -254t-41 -272.5q0 -96 28.5 -152.5t88.5 -56.5q42 0 87.5 33.5 t85.5 88.5t67 99.5t51 91.5q33 0 33 -31q0 -55 -59.5 -156.5t-141.5 -164.5q-110 -84 -231 -84q-22 0 -58 4l-12 -25q113 -28 113 -104q0 -55 -60.5 -102.5t-138.5 -47.5q-74 0 -74 37q0 5 4 17q46 1 92 32.5t46 57.5t-60 26l-26 -2l-7 15l70 108q-96 30 -143 111.5 t-47 195.5z" />
<glyph unicode="&#xe8;" horiz-adv-x="825" d="M20 283q0 116 37.5 225t99.5 190.5t137.5 144t154.5 94.5t149 32q99 0 150 -55t51 -142q0 -54 -19 -112.5t-57 -113t-89 -98t-121 -70t-146 -26.5q-24 0 -70 4q-10 -68 -10 -114q0 -187 125 -187q42 0 90 36.5t91 94t73 106t53 93.5q33 0 33 -31q0 -55 -59.5 -156.5 t-141.5 -164.5q-109 -86 -236 -86q-125 0 -210 87.5t-85 248.5zM305 403h19q72 0 129.5 46t90 115.5t49.5 141.5t17 134q0 45 -49 45q-39 0 -90 -73t-96.5 -184.5t-69.5 -224.5zM383 1294q65 138 149 138q56 0 111.5 -58t87 -130.5t31.5 -123.5q0 -39 -23 -49q-6 6 -41 43 t-59.5 58t-66 51.5t-89 48t-100.5 22.5z" />
<glyph unicode="&#xe9;" horiz-adv-x="825" d="M20 283q0 116 37.5 225t99.5 190.5t137.5 144t154.5 94.5t149 32q99 0 150 -55t51 -142q0 -54 -19 -112.5t-57 -113t-89 -98t-121 -70t-146 -26.5q-24 0 -70 4q-10 -68 -10 -114q0 -187 125 -187q42 0 90 36.5t91 94t73 106t53 93.5q33 0 33 -31q0 -55 -59.5 -156.5 t-141.5 -164.5q-109 -86 -236 -86q-125 0 -210 87.5t-85 248.5zM305 403h19q72 0 129.5 46t90 115.5t49.5 141.5t17 134q0 45 -49 45q-39 0 -90 -73t-96.5 -184.5t-69.5 -224.5zM518 1143q0 51 31.5 123t87 130t111.5 58q85 0 149 -137q-53 -5 -100.5 -22.5t-89 -48 t-66 -51.5t-59.5 -58t-41 -43q-23 10 -23 49z" />
<glyph unicode="&#xea;" horiz-adv-x="825" d="M20 283q0 116 37.5 225t99.5 190.5t137.5 144t154.5 94.5t149 32q99 0 150 -55t51 -142q0 -54 -19 -112.5t-57 -113t-89 -98t-121 -70t-146 -26.5q-24 0 -70 4q-10 -68 -10 -114q0 -187 125 -187q42 0 90 36.5t91 94t73 106t53 93.5q33 0 33 -31q0 -55 -59.5 -156.5 t-141.5 -164.5q-109 -86 -236 -86q-125 0 -210 87.5t-85 248.5zM305 403h19q72 0 129.5 46t90 115.5t49.5 141.5t17 134q0 45 -49 45q-39 0 -90 -73t-96.5 -184.5t-69.5 -224.5zM389 1124q0 51 68.5 131.5t157 141.5t141.5 61q49 0 76.5 -64.5t27.5 -150.5q0 -61 -16 -108 t-45 -58q-6 8 -24 36t-33.5 50t-33.5 47t-32 39.5t-21 14.5q-15 0 -40.5 -12t-59 -35.5t-56.5 -40.5t-58.5 -45t-39.5 -31q-12 6 -12 24z" />
<glyph unicode="&#xeb;" horiz-adv-x="825" d="M20 283q0 116 37.5 225t99.5 190.5t137.5 144t154.5 94.5t149 32q99 0 150 -55t51 -142q0 -54 -19 -112.5t-57 -113t-89 -98t-121 -70t-146 -26.5q-24 0 -70 4q-10 -68 -10 -114q0 -187 125 -187q42 0 90 36.5t91 94t73 106t53 93.5q33 0 33 -31q0 -55 -59.5 -156.5 t-141.5 -164.5q-109 -86 -236 -86q-125 0 -210 87.5t-85 248.5zM305 403h19q72 0 129.5 46t90 115.5t49.5 141.5t17 134q0 45 -49 45q-39 0 -90 -73t-96.5 -184.5t-69.5 -224.5zM317 1266q0 75 50 135.5t131 60.5q63 0 96 -38.5t33 -96.5q0 -75 -50 -136t-131 -61 q-63 0 -96 39t-33 97zM715 1266q0 75 49.5 135.5t130.5 60.5q63 0 96 -38.5t33 -96.5q0 -75 -49.5 -136t-130.5 -61q-63 0 -96 39t-33 97z" />
<glyph unicode="&#xec;" horiz-adv-x="581" d="M-10 659q0 32 30 81.5t77 96.5t112 81t127 34q55 0 96 -29t41 -85q0 -78 -90 -394.5t-100 -384.5q62 15 141 119.5t121 192.5q33 0 33 -31q0 -37 -31.5 -101.5t-81 -130t-120 -113.5t-138.5 -48q-76 0 -124 41t-48 108q0 61 43 225.5t86 315.5t43 178q-47 -4 -102 -65 t-82 -121q-33 0 -33 30zM184 1294q65 138 150 138q56 0 111.5 -58t86.5 -130.5t31 -123.5q0 -39 -22 -49q-9 9 -35 36t-44.5 45.5t-52 45.5t-64.5 44.5t-74 32.5t-87 19z" />
<glyph unicode="&#xed;" horiz-adv-x="581" d="M-10 659q0 32 30 81.5t77 96.5t112 81t127 34q55 0 96 -29t41 -85q0 -78 -90 -394.5t-100 -384.5q62 15 141 119.5t121 192.5q33 0 33 -31q0 -37 -31.5 -101.5t-81 -130t-120 -113.5t-138.5 -48q-76 0 -124 41t-48 108q0 61 43 225.5t86 315.5t43 178q-47 -4 -102 -65 t-82 -121q-33 0 -33 30zM338 1143q0 51 31 123t86.5 130t111.5 58q86 0 150 -137q-44 -4 -87 -19t-74 -32.5t-64.5 -44.5t-52 -45.5t-44.5 -45.5t-35 -36q-22 10 -22 49z" />
<glyph unicode="&#xee;" horiz-adv-x="581" d="M-10 659q0 32 30 81.5t77 96.5t112 81t127 34q55 0 96 -29t41 -85q0 -78 -90 -394.5t-100 -384.5q62 15 141 119.5t121 192.5q33 0 33 -31q0 -37 -31.5 -101.5t-81 -130t-120 -113.5t-138.5 -48q-76 0 -124 41t-48 108q0 61 43 225.5t86 315.5t43 178q-47 -4 -102 -65 t-82 -121q-33 0 -33 30zM170 1124q0 51 68.5 131.5t157 141.5t141.5 61q49 0 76.5 -64.5t27.5 -150.5q0 -61 -16 -108t-45 -58q-6 8 -24 36t-33.5 50t-33.5 47t-32 39.5t-21 14.5q-15 0 -40.5 -12t-59 -35.5t-56.5 -40.5t-58.5 -45t-39.5 -31q-12 6 -12 24z" />
<glyph unicode="&#xef;" horiz-adv-x="581" d="M-10 659q0 32 30 81.5t77 96.5t112 81t127 34q55 0 96 -29t41 -85q0 -78 -90 -394.5t-100 -384.5q62 15 141 119.5t121 192.5q33 0 33 -31q0 -37 -31.5 -101.5t-81 -130t-120 -113.5t-138.5 -48q-76 0 -124 41t-48 108q0 61 43 225.5t86 315.5t43 178q-47 -4 -102 -65 t-82 -121q-33 0 -33 30zM115 1266q0 75 49.5 135.5t130.5 60.5q63 0 96 -38.5t33 -96.5q0 -75 -49.5 -136t-130.5 -61q-63 0 -96 39t-33 97zM512 1266q0 75 49.5 135.5t130.5 60.5q63 0 96 -38.5t33 -96.5q0 -75 -49.5 -136t-130.5 -61q-63 0 -96 39t-33 97z" />
<glyph unicode="&#xf0;" horiz-adv-x="911" d="M37 301q0 91 25 187t74 184.5t114 158.5t152.5 112t183.5 42q22 0 32 -2q-31 93 -79 147q-98 -52 -215 -110q-12 -4 -19 -4q-26 0 -26 22q0 17 12.5 37.5t25.5 26.5l160 82q-100 65 -239 65q-95 0 -166 -39q-19 19 -19 37q0 42 63 75t139.5 47.5t139.5 14.5 q159 0 289 -96l137 70q8 4 13 4q10 0 17 -10t7 -25q0 -36 -39 -55l-74 -39q83 -86 128 -208.5t45 -256.5q0 -88 -17 -182t-49 -186t-82 -174t-112 -145t-143.5 -99.5t-172.5 -36.5q-78 0 -137.5 28t-95.5 77.5t-54 112.5t-18 138zM285 160q0 -133 67 -133q56 0 128.5 135.5 t122.5 314.5t50 301q0 133 -67 133q-56 0 -128.5 -135.5t-122.5 -314.5t-50 -301z" />
<glyph unicode="&#xf1;" horiz-adv-x="1099" d="M-10 659q0 32 30 81.5t77 96.5t112 81t127 34q53 0 87 -28.5t34 -85.5t-29 -176q95 149 201.5 228t199.5 79q82 0 124 -35t42 -96q0 -78 -90 -394.5t-100 -384.5q62 15 141 119.5t121 192.5q33 0 33 -31q0 -37 -31.5 -101.5t-81 -130t-120 -113.5t-138.5 -48 q-76 0 -124 41t-48 108q0 71 82 362t82 330q0 33 -25 33q-64 0 -127.5 -69t-110 -167.5t-86.5 -219t-62.5 -210t-33.5 -153.5l-36 -12t-43.5 -14t-40.5 -10t-43 -5q-86 0 -86 100q0 61 45 234.5t90 333t45 186.5q-47 -4 -102 -65t-82 -121q-33 0 -33 30zM362 1153 q46 121 103 167t127 46q46 0 136 -14.5t134 -14.5q98 0 176 54q9 0 14.5 -1.5t9.5 -9t5 -22.5q-48 -126 -105.5 -175.5t-130.5 -49.5q-41 0 -132 20.5t-140 20.5q-93 0 -168 -54q-14 0 -21 6.5t-8 26.5z" />
<glyph unicode="&#xf2;" horiz-adv-x="911" d="M37 301q0 91 25 187t74 184.5t114 158.5t152.5 112t183.5 42q78 0 137.5 -28t95.5 -77.5t54 -112.5t18 -138q0 -91 -25 -187t-74 -184.5t-114 -158.5t-152.5 -112t-183.5 -42q-78 0 -137.5 28t-95.5 77.5t-54 112.5t-18 138zM285 160q0 -133 67 -133q56 0 128.5 135.5 t122.5 314.5t50 301q0 133 -67 133q-56 0 -128.5 -135.5t-122.5 -314.5t-50 -301zM446 1294q65 138 150 138q56 0 111.5 -58t86.5 -130.5t31 -123.5q0 -39 -22 -49q-9 9 -35 36t-44.5 45.5t-52 45.5t-64.5 44.5t-74 32.5t-87 19z" />
<glyph unicode="&#xf3;" horiz-adv-x="911" d="M37 301q0 91 25 187t74 184.5t114 158.5t152.5 112t183.5 42q78 0 137.5 -28t95.5 -77.5t54 -112.5t18 -138q0 -91 -25 -187t-74 -184.5t-114 -158.5t-152.5 -112t-183.5 -42q-78 0 -137.5 28t-95.5 77.5t-54 112.5t-18 138zM285 160q0 -133 67 -133q56 0 128.5 135.5 t122.5 314.5t50 301q0 133 -67 133q-56 0 -128.5 -135.5t-122.5 -314.5t-50 -301zM559 1143q0 51 31 123t86.5 130t111.5 58q86 0 150 -137q-53 -5 -100.5 -22.5t-89 -48t-66 -51.5t-59.5 -58t-41 -43q-23 10 -23 49z" />
<glyph unicode="&#xf4;" horiz-adv-x="911" d="M37 301q0 91 25 187t74 184.5t114 158.5t152.5 112t183.5 42q78 0 137.5 -28t95.5 -77.5t54 -112.5t18 -138q0 -91 -25 -187t-74 -184.5t-114 -158.5t-152.5 -112t-183.5 -42q-78 0 -137.5 28t-95.5 77.5t-54 112.5t-18 138zM285 160q0 -133 67 -133q56 0 128.5 135.5 t122.5 314.5t50 301q0 133 -67 133q-56 0 -128.5 -135.5t-122.5 -314.5t-50 -301zM434 1124q0 51 68.5 131.5t157 141.5t141.5 61q49 0 76.5 -64.5t27.5 -150.5q0 -61 -16 -108t-45 -58q-6 8 -24 36t-33.5 50t-33.5 47t-32 39.5t-21 14.5q-15 0 -40.5 -12t-59 -35.5 t-56.5 -40.5t-58.5 -45t-39.5 -31q-12 6 -12 24z" />
<glyph unicode="&#xf5;" horiz-adv-x="911" d="M37 301q0 91 25 187t74 184.5t114 158.5t152.5 112t183.5 42q78 0 137.5 -28t95.5 -77.5t54 -112.5t18 -138q0 -91 -25 -187t-74 -184.5t-114 -158.5t-152.5 -112t-183.5 -42q-78 0 -137.5 28t-95.5 77.5t-54 112.5t-18 138zM285 160q0 -133 67 -133q56 0 128.5 135.5 t122.5 314.5t50 301q0 133 -67 133q-56 0 -128.5 -135.5t-122.5 -314.5t-50 -301zM350 1153q46 121 103 167t127 46q46 0 136 -14.5t134 -14.5q98 0 176 54q9 0 14.5 -1.5t9.5 -9t5 -22.5q-48 -126 -105.5 -175.5t-130.5 -49.5q-41 0 -132 20.5t-140 20.5q-93 0 -168 -54 q-14 0 -21 6.5t-8 26.5z" />
<glyph unicode="&#xf6;" horiz-adv-x="911" d="M37 301q0 91 25 187t74 184.5t114 158.5t152.5 112t183.5 42q78 0 137.5 -28t95.5 -77.5t54 -112.5t18 -138q0 -91 -25 -187t-74 -184.5t-114 -158.5t-152.5 -112t-183.5 -42q-78 0 -137.5 28t-95.5 77.5t-54 112.5t-18 138zM285 160q0 -133 67 -133q56 0 128.5 135.5 t122.5 314.5t50 301q0 133 -67 133q-56 0 -128.5 -135.5t-122.5 -314.5t-50 -301zM362 1266q0 75 50 135.5t131 60.5q63 0 96 -38.5t33 -96.5q0 -75 -49.5 -136t-130.5 -61q-63 0 -96.5 39t-33.5 97zM760 1266q0 75 49.5 135.5t130.5 60.5q63 0 96 -38.5t33 -96.5 q0 -75 -49.5 -136t-130.5 -61q-63 0 -96 39t-33 97z" />
<glyph unicode="&#xf7;" horiz-adv-x="1013" d="M98 649q0 19 17.5 34t46.5 15h780q33 0 33 -26q0 -19 -17.5 -34t-46.5 -15h-780q-33 0 -33 26zM348 377q0 60 40 109t104 49q51 0 77.5 -31.5t26.5 -77.5q0 -60 -40 -109t-105 -49q-51 0 -77 31.5t-26 77.5zM487 891q0 60 40 109t104 49q51 0 77.5 -31.5t26.5 -77.5 q0 -60 -40 -109t-105 -49q-51 0 -77 31.5t-26 77.5z" />
<glyph unicode="&#xf8;" horiz-adv-x="911" d="M37 301q0 91 25 187t74 184.5t114 158.5t152.5 112t183.5 42q30 0 80 -8l84 176q21 0 38 -13t17 -32q0 -4 -4 -16q-7 -13 -68 -142q79 -41 118.5 -126t39.5 -195q0 -91 -25 -187t-74 -184.5t-114 -158.5t-152.5 -112t-183.5 -42q-44 0 -86 10q-27 -52 -63 -135 q-8 -2 -27 -2q-29 0 -29 30q0 18 13 48l40 86q-77 41 -115 125.5t-38 193.5zM285 178l340 715q-15 18 -39 18q-55 0 -125.5 -130.5t-121 -304.5t-54.5 -298zM303 55q19 -28 49 -28q56 0 128.5 135.5t122.5 314.5t50 301v6z" />
<glyph unicode="&#xf9;" horiz-adv-x="1067" d="M-10 659q0 32 30 81.5t77 96.5t112 81t127 34q55 0 96 -29t41 -85q0 -71 -80 -357t-80 -325q0 -33 25 -33q44 0 152 188t165 365q47 138 56 164q43 112 172 112q57 0 118 -22q-65 -179 -137 -457t-92 -414q62 15 141 119.5t121 192.5q33 0 33 -31q0 -37 -31.5 -101.5 t-81 -130t-120 -113.5t-138.5 -48q-135 0 -135 225q0 86 19 197q-197 -404 -379 -404q-82 0 -124 35t-42 96t43 225.5t86 315.5t43 178q-47 -4 -102 -65t-82 -121q-33 0 -33 30zM379 1294q65 138 149 138q56 0 111.5 -58t87 -130.5t31.5 -123.5q0 -39 -23 -49q-6 6 -41 43 t-59.5 58t-66 51.5t-89 48t-100.5 22.5z" />
<glyph unicode="&#xfa;" horiz-adv-x="1067" d="M-10 659q0 32 30 81.5t77 96.5t112 81t127 34q55 0 96 -29t41 -85q0 -71 -80 -357t-80 -325q0 -33 25 -33q44 0 152 188t165 365q47 138 56 164q43 112 172 112q57 0 118 -22q-65 -179 -137 -457t-92 -414q62 15 141 119.5t121 192.5q33 0 33 -31q0 -37 -31.5 -101.5 t-81 -130t-120 -113.5t-138.5 -48q-135 0 -135 225q0 86 19 197q-197 -404 -379 -404q-82 0 -124 35t-42 96t43 225.5t86 315.5t43 178q-47 -4 -102 -65t-82 -121q-33 0 -33 30zM563 1143q0 51 31.5 123t87 130t111.5 58q85 0 149 -137q-53 -5 -100.5 -22.5t-89 -48 t-66 -51.5t-59.5 -58t-41 -43q-23 10 -23 49z" />
<glyph unicode="&#xfb;" horiz-adv-x="1067" d="M-10 659q0 32 30 81.5t77 96.5t112 81t127 34q55 0 96 -29t41 -85q0 -71 -80 -357t-80 -325q0 -33 25 -33q44 0 152 188t165 365q47 138 56 164q43 112 172 112q57 0 118 -22q-65 -179 -137 -457t-92 -414q62 15 141 119.5t121 192.5q33 0 33 -31q0 -37 -31.5 -101.5 t-81 -130t-120 -113.5t-138.5 -48q-135 0 -135 225q0 86 19 197q-197 -404 -379 -404q-82 0 -124 35t-42 96t43 225.5t86 315.5t43 178q-47 -4 -102 -65t-82 -121q-33 0 -33 30zM428 1124q0 51 68.5 131.5t157 141.5t141.5 61q49 0 76.5 -64.5t27.5 -150.5q0 -61 -16 -108 t-45 -58q-6 8 -24 36t-33.5 50t-33.5 47t-32 39.5t-21 14.5q-15 0 -40.5 -12t-59 -35.5t-56.5 -40.5t-58.5 -45t-39.5 -31q-12 6 -12 24z" />
<glyph unicode="&#xfc;" horiz-adv-x="1067" d="M-10 659q0 32 30 81.5t77 96.5t112 81t127 34q55 0 96 -29t41 -85q0 -71 -80 -357t-80 -325q0 -33 25 -33q44 0 152 188t165 365q47 138 56 164q43 112 172 112q57 0 118 -22q-65 -179 -137 -457t-92 -414q62 15 141 119.5t121 192.5q33 0 33 -31q0 -37 -31.5 -101.5 t-81 -130t-120 -113.5t-138.5 -48q-135 0 -135 225q0 86 19 197q-197 -404 -379 -404q-82 0 -124 35t-42 96t43 225.5t86 315.5t43 178q-47 -4 -102 -65t-82 -121q-33 0 -33 30zM342 1266q0 75 49.5 135.5t130.5 60.5q63 0 96 -38.5t33 -96.5q0 -75 -49.5 -136t-130.5 -61 q-63 0 -96 39t-33 97zM739 1266q0 75 50 135.5t131 60.5q63 0 96 -38.5t33 -96.5q0 -75 -50 -136t-131 -61q-63 0 -96 39t-33 97z" />
<glyph unicode="&#xfd;" horiz-adv-x="929" d="M-20 -309q0 81 50.5 126.5t116.5 45.5q54 0 91.5 -32t37.5 -89q0 -102 -98 -182q21 -9 41 -9q47 0 88.5 28t71.5 79.5t54 107t42.5 129t30 126.5t23 118t16.5 86l18 82q-181 -342 -348 -342q-82 0 -124 35t-42 96t43 225.5t86 315.5t43 178q-47 -4 -102 -65t-82 -121 q-33 0 -33 30q0 32 30 81.5t77 96.5t112 81t127 34q55 0 96 -29t41 -85q0 -71 -79.5 -357t-79.5 -325q0 -33 24 -33q36 0 118 133.5t151 294.5q58 220 81 289q37 112 175 112q58 0 122 -22q-50 -143 -110 -378t-115.5 -431t-114.5 -311q-71 -139 -189.5 -226.5t-268.5 -87.5 q-86 0 -153.5 55.5t-67.5 139.5zM578 1126q0 51 31 123.5t86.5 130.5t111.5 58q84 0 149 -138q-53 -5 -100.5 -22.5t-89 -48t-66 -51.5t-59.5 -58t-41 -43q-22 10 -22 49z" />
<glyph unicode="&#xfe;" horiz-adv-x="894" d="M-145 -481q0 48 77 354.5t175 676.5t112 427q23 94 59.5 226t43.5 163q-60 0 -127 -64.5t-95 -125.5q-32 0 -32 30q0 32 30 81.5t77 96.5t112 81t127 34q67 0 112 -32t45 -89q0 -76 -147 -616q149 199 317 199q84 0 125 -61t41 -165q0 -87 -27.5 -190.5t-79 -203.5 t-117.5 -183t-152 -134t-173 -51q-97 0 -129 103q-112 -402 -112 -621q-108 -43 -166 -43q-96 0 -96 107zM260 152q28 -99 78 -99q52 0 108 78.5t97 187.5t67.5 223.5t26.5 188.5q0 80 -31 80q-133 0 -252 -303q-23 -83 -56.5 -212t-37.5 -144z" />
<glyph unicode="&#xff;" horiz-adv-x="929" d="M-20 -309q0 81 50.5 126.5t116.5 45.5q54 0 91.5 -32t37.5 -89q0 -102 -98 -182q21 -9 41 -9q47 0 88.5 28t71.5 79.5t54 107t42.5 129t30 126.5t23 118t16.5 86l18 82q-181 -342 -348 -342q-82 0 -124 35t-42 96t43 225.5t86 315.5t43 178q-47 -4 -102 -65t-82 -121 q-33 0 -33 30q0 32 30 81.5t77 96.5t112 81t127 34q55 0 96 -29t41 -85q0 -71 -79.5 -357t-79.5 -325q0 -33 24 -33q36 0 118 133.5t151 294.5q58 220 81 289q37 112 175 112q58 0 122 -22q-50 -143 -110 -378t-115.5 -431t-114.5 -311q-71 -139 -189.5 -226.5t-268.5 -87.5 q-86 0 -153.5 55.5t-67.5 139.5zM391 1266q0 75 49.5 135.5t130.5 60.5q63 0 96 -38.5t33 -96.5q0 -75 -49.5 -136t-130.5 -61q-63 0 -96 39t-33 97zM788 1266q0 75 50 135.5t131 60.5q63 0 96 -38.5t33 -96.5q0 -75 -49.5 -136t-130.5 -61q-63 0 -96.5 39t-33.5 97z" />
<glyph unicode="&#x152;" horiz-adv-x="1783" d="M70 471q0 118 26 242.5t74 244.5t121.5 226.5t163 187t205 127.5t241.5 47q218 0 322 -196q130 206 405 206q157 0 240.5 -75.5t83.5 -173.5q0 -84 -52.5 -132.5t-119.5 -48.5q-56 0 -94.5 35t-38.5 99q0 59 41 118t112 82q-32 35 -110 35q-77 0 -160 -80.5t-136 -196 t-53 -214.5q0 -58 21 -101q87 19 176 19q81 0 121.5 -22t40.5 -56q0 -41 -53.5 -74t-135.5 -33q-106 0 -182 31q-94 -86 -152.5 -233.5t-58.5 -276.5q0 -96 36 -154.5t106 -58.5q145 0 286.5 157t200.5 378q21 -5 29 -13t8 -28q0 -32 -18 -86.5t-34 -90.5t-30 -63 q-41 -77 -89.5 -139.5t-111 -115.5t-141.5 -82.5t-166 -29.5q-232 0 -334 140q-182 -135 -393 -135q-99 0 -176 41.5t-124.5 115t-72 169t-24.5 208.5zM385 311q0 -126 30.5 -198t94.5 -72q150 0 295 168q-6 35 -6 70q0 105 47 213t141 204t219 154q-54 55 -92.5 139.5 t-59 161t-42.5 147t-58.5 112.5t-91.5 42q-68 0 -140 -78.5t-130.5 -205.5t-106 -277.5t-74 -304t-26.5 -275.5zM1432 834q43 -19 100 -19q65 0 65 16q0 4 -8.5 8.5t-28.5 7.5t-47 3q-38 0 -81 -16z" />
<glyph unicode="&#x153;" horiz-adv-x="1372" d="M37 301q0 91 25 187t74 184.5t114 158.5t152.5 112t183.5 42q181 0 258 -147q76 63 157 97t152 34q99 0 150 -55t51 -142q0 -54 -19 -112.5t-57 -113t-89 -98t-121 -70t-146 -26.5q-24 0 -70 4q-10 -68 -10 -114q0 -187 125 -187q42 0 90 36.5t91 94t73 106t53 93.5 q33 0 33 -31q0 -55 -59.5 -156.5t-141.5 -164.5q-109 -86 -236 -86q-150 0 -233 114q-132 -116 -295 -116q-78 0 -137.5 28t-95.5 77.5t-54 112.5t-18 138zM285 160q0 -133 67 -133q56 0 128.5 135.5t122.5 314.5t50 301q0 133 -67 133q-56 0 -128.5 -135.5t-122.5 -314.5 t-50 -301zM860 403h19q72 0 129.5 46t90 115.5t49.5 141.5t17 134q0 45 -49 45q-39 0 -90 -73t-96.5 -184.5t-69.5 -224.5z" />
<glyph unicode="&#x178;" horiz-adv-x="1292" d="M47 829q0 87 18.5 176.5t63.5 181.5t110.5 163t169.5 116t232 45q41 0 77.5 -7t69.5 -21.5t52.5 -42.5t19.5 -66q0 -66 -131 -531.5t-131 -506.5q0 -70 33 -70q52 0 112.5 51t113.5 129.5t96 160t71 155.5q19 82 47.5 207.5t44.5 195t33.5 140.5t28.5 104q18 55 68 82 t116 27q60 0 137 -25q-18 -61 -95.5 -352.5t-146 -538.5t-157 -501.5t-150.5 -338.5q-202 -272 -487 -272q-46 0 -92 9.5t-89 30t-76 49.5t-53 72t-20 93q0 81 52.5 131.5t117.5 50.5q68 0 103.5 -36.5t35.5 -92.5q0 -53 -29.5 -104.5t-80.5 -79.5q65 -47 143 -47 q64 0 121.5 31.5t93.5 87.5q113 179 271 813q-102 -181 -227.5 -277t-233.5 -96q-82 0 -132.5 58t-50.5 165q0 109 56.5 321t124 434.5t82.5 313.5q-76 -1 -139.5 -27.5t-106.5 -71.5t-73 -104.5t-44 -124.5t-14 -133q0 -183 84 -299q-55 -77 -111 -77q-55 0 -92 72t-37 177 zM752 1774q0 75 49.5 135.5t130.5 60.5q63 0 96 -38.5t33 -96.5q0 -75 -49.5 -136t-130.5 -61q-63 0 -96 39t-33 97zM1149 1774q0 75 49.5 135.5t130.5 60.5q63 0 96 -38.5t33 -96.5q0 -75 -49.5 -136t-130.5 -61q-63 0 -96 39t-33 97z" />
<glyph unicode="&#x2c6;" d="M463 1124q0 51 68.5 131.5t156.5 141.5t141 61q49 0 77 -65t28 -150q0 -60 -16.5 -107.5t-45.5 -58.5l-24 36t-33 50t-33 47.5t-32 39t-21 14.5q-15 0 -40.5 -12t-59 -35.5t-56.5 -40.5t-58.5 -45t-39.5 -31q-12 6 -12 24z" />
<glyph unicode="&#x2dc;" d="M401 1153q46 121 103 167t127 46q47 0 136.5 -14.5t133.5 -14.5q98 0 176 54q9 0 14.5 -1.5t9.5 -9t5 -22.5q-48 -126 -105.5 -175.5t-130.5 -49.5q-40 0 -131 20.5t-141 20.5q-93 0 -168 -54q-14 0 -21 6.5t-8 26.5z" />
<glyph unicode="&#x2000;" horiz-adv-x="1006" />
<glyph unicode="&#x2001;" horiz-adv-x="2013" />
<glyph unicode="&#x2002;" horiz-adv-x="1006" />
<glyph unicode="&#x2003;" horiz-adv-x="2013" />
<glyph unicode="&#x2004;" horiz-adv-x="671" />
<glyph unicode="&#x2005;" horiz-adv-x="503" />
<glyph unicode="&#x2006;" horiz-adv-x="335" />
<glyph unicode="&#x2007;" horiz-adv-x="335" />
<glyph unicode="&#x2008;" horiz-adv-x="251" />
<glyph unicode="&#x2009;" horiz-adv-x="402" />
<glyph unicode="&#x200a;" horiz-adv-x="111" />
<glyph unicode="&#x2010;" horiz-adv-x="1062" d="M86 438q54 73 122 101t152 28q56 0 164.5 -8t159.5 -8q126 0 209 33q33 0 35 -21q-55 -78 -123.5 -107.5t-157.5 -29.5q-48 0 -157 12.5t-168 12.5q-116 0 -203 -31q-31 0 -33 18z" />
<glyph unicode="&#x2011;" horiz-adv-x="1062" d="M86 438q54 73 122 101t152 28q56 0 164.5 -8t159.5 -8q126 0 209 33q33 0 35 -21q-55 -78 -123.5 -107.5t-157.5 -29.5q-48 0 -157 12.5t-168 12.5q-116 0 -203 -31q-31 0 -33 18z" />
<glyph unicode="&#x2012;" horiz-adv-x="1062" d="M86 438q54 73 122 101t152 28q56 0 164.5 -8t159.5 -8q126 0 209 33q33 0 35 -21q-55 -78 -123.5 -107.5t-157.5 -29.5q-48 0 -157 12.5t-168 12.5q-116 0 -203 -31q-31 0 -33 18z" />
<glyph unicode="&#x2013;" horiz-adv-x="843" d="M86 369q0 17 9.5 32t23.5 15h565q16 0 16 -29q0 -17 -8 -32t-22 -15h-566q-18 0 -18 29z" />
<glyph unicode="&#x2014;" horiz-adv-x="1458" d="M88 367q0 19 17.5 34t46.5 15h1130q33 0 33 -29q0 -17 -17.5 -32t-46.5 -15h-1130q-33 0 -33 27z" />
<glyph unicode="&#x2018;" horiz-adv-x="512" d="M188 1057q0 51 21.5 119t57.5 132.5t92 109t118 44.5q55 0 55 -49v-12q-79 0 -141.5 -69t-83.5 -144q41 63 86 63q51 0 78 -36t27 -91q0 -77 -49 -139.5t-132 -62.5q-63 0 -96 38.5t-33 96.5z" />
<glyph unicode="&#x2019;" horiz-adv-x="475" d="M137 971v12q79 0 142 70t81 143q-34 -63 -84 -63q-51 0 -77.5 36t-26.5 91q0 77 48.5 139.5t131.5 62.5q63 0 96 -38.5t33 -96.5q0 -51 -21 -119t-57 -132.5t-92 -109t-118 -44.5q-56 0 -56 49z" />
<glyph unicode="&#x201a;" horiz-adv-x="387" d="M-20 -195q0 2 1 7.5t1 7.5q79 0 142 70t81 143q-37 -64 -84 -64q-51 0 -78 36t-27 91q0 77 49 140t132 63q63 0 96 -38.5t33 -96.5q0 -51 -21.5 -119t-57.5 -133t-92 -109.5t-118 -44.5q-57 0 -57 47z" />
<glyph unicode="&#x201c;" horiz-adv-x="860" d="M188 1057q0 51 21.5 119t57.5 132.5t92 109t118 44.5q55 0 55 -49v-12q-79 0 -141.5 -69t-83.5 -144q41 63 86 63q51 0 78 -36t27 -91q0 -78 -48.5 -140t-132.5 -62q-63 0 -96 38.5t-33 96.5zM537 1057q0 51 21 119t57 132.5t92 109t118 44.5q56 0 56 -49v-12 q-54 0 -104.5 -37t-79.5 -84t-42 -92q41 63 86 63q51 0 78 -36t27 -91q0 -78 -48 -140t-132 -62q-63 0 -96 38.5t-33 96.5z" />
<glyph unicode="&#x201d;" horiz-adv-x="823" d="M135 969q0 2 1 7t1 7q79 0 142 70t81 143q-34 -63 -84 -63q-51 0 -77.5 36t-26.5 91q0 77 48.5 139.5t131.5 62.5q63 0 96 -38.5t33 -96.5q0 -51 -21 -119t-57 -132.5t-92 -109t-118 -44.5q-58 0 -58 47zM483 969q0 2 1 7t1 7q79 0 142.5 70t81.5 143q-34 -63 -84 -63 q-51 0 -78 36t-27 91q0 77 48.5 139.5t131.5 62.5q63 0 96 -38.5t33 -96.5q0 -51 -21 -119t-57 -132.5t-92 -109t-118 -44.5q-58 0 -58 47z" />
<glyph unicode="&#x201e;" horiz-adv-x="735" d="M-18 -180q79 0 137 62.5t86 150.5q-37 -64 -84 -64q-51 0 -78 36t-27 91q0 77 49 140t132 63q63 0 96 -38.5t33 -96.5q0 -51 -21.5 -119t-57.5 -133t-92 -109.5t-118 -44.5q-55 0 -55 49v13zM330 -180q79 0 137 62.5t86 150.5q-37 -64 -84 -64q-51 0 -77.5 36t-26.5 91 q0 77 48.5 140t131.5 63q63 0 96 -38.5t33 -96.5q0 -51 -21.5 -119t-57.5 -133t-92 -109.5t-118 -44.5q-55 0 -55 49v13z" />
<glyph unicode="&#x2022;" horiz-adv-x="462" d="M72 410q0 90 59 162.5t156 72.5q75 0 115 -46.5t40 -115.5q0 -90 -60 -162.5t-157 -72.5q-75 0 -114 46t-39 116z" />
<glyph unicode="&#x2026;" horiz-adv-x="1284" d="M16 102q0 75 50 136t131 61q63 0 96 -38.5t33 -96.5q0 -75 -50 -136t-131 -61q-63 0 -96 38.5t-33 96.5zM465 102q0 75 49.5 136t130.5 61q63 0 96 -38.5t33 -96.5q0 -75 -49.5 -136t-130.5 -61q-63 0 -96 38.5t-33 96.5zM913 102q0 75 50 136t131 61q63 0 96 -38.5 t33 -96.5q0 -75 -50 -136t-131 -61q-63 0 -96 38.5t-33 96.5z" />
<glyph unicode="&#x202f;" horiz-adv-x="402" />
<glyph unicode="&#x2039;" horiz-adv-x="968" d="M86 436q0 28 19 56t42 36l797 281q17 -6 17 -25q0 -22 -17.5 -50t-34.5 -32q-706 -239 -706 -245q276 -150 542 -291q37 -21 37 -72q0 -39 -20 -39q-12 0 -662 346q-14 11 -14 35z" />
<glyph unicode="&#x203a;" horiz-adv-x="968" d="M41 80q0 22 18 49t35 33q707 239 707 246q-164 89 -543 290q-18 8 -27.5 29t-9.5 43q0 17 6 28t15 11q11 0 661 -346q12 -15 12 -35q0 -28 -18 -56.5t-41 -35.5l-797 -281q-18 3 -18 25z" />
<glyph unicode="&#x205f;" horiz-adv-x="503" />
<glyph unicode="&#x20ac;" horiz-adv-x="1019" d="M2 649q0 22 21 41t55 19h80l30 96h-94q-39 0 -39 33q0 22 21 40.5t55 18.5h96q50 107 117.5 196t152.5 159t191.5 109.5t222.5 39.5q73 0 129.5 -21.5t88.5 -56t48.5 -74t16.5 -80.5q0 -75 -47.5 -118t-108.5 -43q-49 0 -83.5 30.5t-34.5 87.5q0 54 37 107.5t102 75.5 q-39 39 -154 39q-88 0 -186 -128t-176 -323h258q39 0 39 -33q0 -22 -21 -40.5t-55 -18.5h-254q0 -1 -31 -96h269q38 0 38 -33q0 -23 -20.5 -41.5t-54.5 -18.5h-256q-35 -152 -35 -280q0 -134 44 -210.5t138 -76.5q48 0 92.5 18t76.5 44.5t64.5 68.5t53 77t45.5 83 q29 0 29 -27q0 -29 -21 -78t-57 -100q-67 -95 -162.5 -149t-212.5 -54q-98 0 -174.5 38.5t-123 107t-70 156.5t-23.5 192q0 91 18 190h-96q-39 0 -39 33z" />
<glyph unicode="&#x2122;" horiz-adv-x="1138" d="M94 856q0 23 15.5 37t35.5 14q15 0 26 -9.5t11 -27.5q0 -41 -47 -55q15 -12 35 -12q39 0 66.5 41t40 92.5t30 112t35.5 86.5q16 24 64 47q-62 4 -97 4q-29 0 -50 -3t-43.5 -11t-34 -27.5t-11.5 -48.5q0 -38 15.5 -70t43.5 -39q-9 -20 -28 -20q-31 0 -45.5 32t-14.5 68 q0 184 238 184q22 0 72.5 -6t76.5 -6q56 0 93 25q10 0 10 -9q0 -27 -52.5 -50t-129.5 -23q-29 -20 -33 -54q-3 -10 -18.5 -64.5t-25 -80.5t-28 -69t-41 -70t-49.5 -43q-31 -17 -72 -17q-38 0 -63 17.5t-25 54.5zM373 872q0 56 35 103q28 38 69.5 62t79.5 24q35 0 35 -19 q0 -2 -8 -18q-77 -7 -132 -60t-55 -102q0 -24 16.5 -38.5t49.5 -14.5q69 0 149 174q21 46 36.5 76t44.5 73t58 68.5t71 44.5t89 19l-120 -365q21 32 77 153.5t95 166.5q33 38 73 38q27 0 37 -10q-27 -86 -61.5 -222.5t-34.5 -193.5q43 6 88 93q10 0 10 -11q0 -20 -26 -57 q-14 -23 -47 -47.5t-60 -24.5q-47 0 -47 68q0 99 68 322q-34 -44 -82 -148.5t-72 -142.5q-20 -35 -53.5 -68t-63.5 -33q-12 0 -18 4q17 51 66.5 215t64.5 207q-34 -20 -64.5 -72t-55 -109.5t-53.5 -113t-73 -91.5t-100 -36q-43 0 -64.5 24.5t-21.5 61.5z" />
<glyph unicode="&#x25fc;" horiz-adv-x="1003" d="M0 0v1004h1004v-1004h-1004z" />
</font>
</defs>
</svg>
